STARTFONT 2.1
COMMENT
COMMENT Converted from OpenType font "Xuong.otf" by "otf2bdf 3.0".
COMMENT
FONT -FreeType-Xuong-Bold-R-Normal--89-640-100-100-P-424-ISO10646-1
SIZE 64 100 100
FONTBOUNDINGBOX 95 109 -8 -15
STARTPROPERTIES 19
FOUNDRY "FreeType"
FAMILY_NAME "Xuong"
WEIGHT_NAME "Bold"
SLANT "R"
SETWIDTH_NAME "Normal"
ADD_STYLE_NAME ""
PIXEL_SIZE 89
POINT_SIZE 640
RESOLUTION_X 100
RESOLUTION_Y 100
SPACING "P"
AVERAGE_WIDTH 424
CHARSET_REGISTRY "ISO10646"
CHARSET_ENCODING "1"
FONT_ASCENT 80
FONT_DESCENT 16
COPYRIGHT "-FreeType-Xuong-Bold-R-Normal--89-640-100-100-P-424-ISO10646-1"
_OTF_FONTFILE "Xuong.otf"
_OTF_PSNAME "Xuong"
ENDPROPERTIES
CHARS 445
STARTCHAR 0000
ENCODING 0
SWIDTH 0 0
DWIDTH 0 0
BBX 0 0 0 0
BITMAP
ENDCHAR
STARTCHAR 000D
ENCODING 13
SWIDTH 247 0
DWIDTH 22 0
BBX 0 0 0 0
BITMAP
ENDCHAR
STARTCHAR 0020
ENCODING 32
SWIDTH 236 0
DWIDTH 21 0
BBX 0 0 0 0
BITMAP
ENDCHAR
STARTCHAR 0021
ENCODING 33
SWIDTH 168 0
DWIDTH 15 0
BBX 12 62 2 0
BITMAP
7FC0
7FE0
FFF0
FFF0
FFF0
FFF0
FFF0
FFF0
FFE0
FFE0
FFE0
FFE0
FFE0
7FE0
7FE0
7FE0
7FE0
7FE0
7FE0
7FE0
7FE0
7FE0
7FC0
7FC0
7FC0
7FC0
7FC0
3FC0
3FC0
3FC0
3FC0
3FC0
3FC0
3FC0
3FC0
3FC0
3F80
3F80
3F80
3F80
3F80
1F80
1F80
1F80
1F80
1F80
0000
0000
0000
0000
0000
FFE0
FFE0
FFE0
FFE0
FFE0
FFE0
FFE0
FFE0
FFE0
FFE0
FFE0
ENDCHAR
STARTCHAR 0022
ENCODING 34
SWIDTH 258 0
DWIDTH 23 0
BBX 23 23 0 39
BITMAP
FFC7FE
7FC7FC
7FC7FC
7FC7FC
7FC7FC
7FC7FC
7FC7FC
7FC7FC
7FC7FC
7FC3FC
7F83FC
3F83FC
3F83F8
3F83F8
3F83F8
3F83F8
3F83F8
3F83F8
3F83F8
3F83F8
3F01F8
1F01F8
1F01F0
ENDCHAR
STARTCHAR 0023
ENCODING 35
SWIDTH 720 0
DWIDTH 64 0
BBX 64 62 0 0
BITMAP
0000003FE003FE00
0000003FE007FC00
0000003FE007FC00
0000003FE007FC00
0000007FC007FC00
0000007FC00FF800
0000007FC00FF800
0000007FC00FF800
000000FF801FF800
000000FF801FF000
000000FF801FF000
000001FF801FF000
000001FF003FE000
000001FF003FE000
000001FF003FE000
000003FF003FE000
000003FE007FC000
000003FE007FC000
03FFFFFFFFFFFFFF
03FFFFFFFFFFFFFF
03FFFFFFFFFFFFFF
03FFFFFFFFFFFFFF
03FFFFFFFFFFFFFF
03FFFFFFFFFFFFFF
03FFFFFFFFFFFFFF
03FFFFFFFFFFFFFF
00000FF801FF0000
00001FF003FF0000
00001FF003FE0000
00001FF003FE0000
00003FF003FE0000
00003FE007FE0000
00003FE007FC0000
00003FE007FC0000
00007FE00FFC0000
3FFFFFFFFFFFFFE0
7FFFFFFFFFFFFFE0
FFFFFFFFFFFFFFE0
FFFFFFFFFFFFFFE0
FFFFFFFFFFFFFFE0
FFFFFFFFFFFFFFE0
FFFFFFFFFFFFFFE0
FFFFFFFFFFFFFFE0
FFFFFFFFFFFFFFC0
0001FF003FE00000
0003FF003FE00000
0003FE007FE00000
0003FE007FC00000
0003FE007FC00000
0007FE00FFC00000
0007FC00FF800000
0007FC00FF800000
0007FC00FF800000
000FFC01FF800000
000FF801FF000000
000FF801FF000000
001FF801FF000000
001FF803FF000000
001FF003FE000000
001FF003FE000000
003FF007FE000000
003FF007FE000000
ENDCHAR
STARTCHAR 0024
ENCODING 36
SWIDTH 540 0
DWIDTH 48 0
BBX 41 80 4 -9
BITMAP
0000FF800000
0000FF800000
0000FF800000
0000FF800000
0000FF800000
0000FF800000
0000FF800000
0000FF800000
0000FF800000
7FFFFFFFC000
7FFFFFFFE000
FFFFFFFFE000
FFFFFFFFF000
FFFFFFFFF800
FFFFFFFFFC00
FFFFFFFFFC00
FFFFFFFFFE00
FFFFFFFFFF00
FFFFFFFFFF00
FFFFFFFFFF80
FFFFFFFFFF80
FFFFFFFFFF80
FFFFFFFFFF80
FFFC000FFF80
FFFE0007FF80
FFFF0007FF80
FFFF00000000
FFFF80000000
FFFFC0000000
7FFFE0000000
3FFFF0000000
1FFFF8000000
0FFFFC000000
07FFFE000000
03FFFF000000
01FFFF800000
00FFFFC00000
007FFFE00000
003FFFF00000
003FFFF80000
001FFFFC0000
000FFFFE0000
0007FFFF0000
0003FFFF8000
0001FFFFC000
0000FFFFE000
00007FFFF000
00003FFFF800
00001FFFFC00
00000FFFFE00
000007FFFF00
000003FFFF80
000001FFFF80
000000FFFF80
FFE0007FFF80
FFF0003FFF80
FFF8001FFF80
FFFFFFFFFF80
FFFFFFFFFF80
FFFFFFFFFF80
FFFFFFFFFF80
FFFFFFFFFF80
7FFFFFFFFF80
7FFFFFFFFF80
3FFFFFFFFF80
1FFFFFFFFF80
1FFFFFFFFF80
0FFFFFFFFF80
07FFFFFFFF00
03FFFFFFFE00
03FFFFFFFE00
0000FF800000
0000FF800000
0000FF800000
0000FF800000
0000FF800000
0000FF800000
0000FF800000
0000FF800000
0000FF800000
ENDCHAR
STARTCHAR 0025
ENCODING 37
SWIDTH 607 0
DWIDTH 54 0
BBX 47 62 4 0
BITMAP
7FFFE0007FC0
7FFFF000FFC0
FFFFF000FFC0
FFFFF801FF80
FFFFF801FF80
FFFFF801FF00
FFFFF803FF00
FE07F803FE00
FE07F807FE00
FE07F807FC00
FE07F80FFC00
FE07F80FF800
FE07F81FF800
FFFFF81FF000
FFFFF83FF000
FFFFF83FE000
FFFFF87FE000
FFFFF87FE000
FFFFF0FFC000
7FFFE0FFC000
3FFFE1FF8000
000001FF8000
000001FF0000
000003FF0000
000003FE0000
000007FE0000
000007FC0000
00000FFC0000
00000FF80000
00001FF80000
00001FF00000
00003FF00000
00003FF00000
00007FE00000
00007FE00000
0000FFC00000
0000FFC00000
0001FF800000
0001FF800000
0003FF000000
0003FF000000
0003FE0FFFF8
0007FE1FFFFC
0007FC3FFFFE
000FFC3FFFFE
000FF83FFFFE
001FF83FFFFE
001FF83FFFFE
003FF03FC1FE
003FF03FC1FE
007FE03FC1FE
007FE03FC1FE
00FFC03FC1FE
00FFC03FC1FE
01FF803FFFFE
01FF803FFFFE
03FF003FFFFE
03FF003FFFFE
07FE003FFFFE
07FE003FFFFE
07FC001FFFFC
0FFC000FFFF8
ENDCHAR
STARTCHAR 0026
ENCODING 38
SWIDTH 686 0
DWIDTH 61 0
BBX 57 62 4 0
BITMAP
001FFFFFF8000000
003FFFFFFC000000
003FFFFFFC000000
007FFFFFFE000000
00FFFFFFFF000000
01FFFFFFFF000000
01FFFFFFFF800000
03FFFFFFFFC00000
07FFFFFFFFE00000
07FFFFFFFFE00000
0FFFFFFFFFE00000
0FFFFFFFFFE00000
0FFFFFFFFFE00000
0FFFFFFFFFE00000
0FFFC001FFE00000
0FFFC001FFE00000
0FFF8001FFE00000
0FFF8001FFE00000
0FFF8003FFE00000
0FFF8007FFE00000
0FFF800FFFE00000
0FFF801FFFE00000
0FFFFFFFFFE00000
1FFFFFFFFFC00000
3FFFFFFFFFC00000
7FFFFFFFFF800000
FFFFFFFFFF000000
FFFFFFFFFE000000
FFFFFFFFFE000000
FFFFFFFFFE000000
FFFFFFFFFE003000
FFFE003FFE00F800
FFFC003FFE01FC00
FFF8003FFF03FE00
FFF0003FFF0FFE00
FFF0001FFF9FFF00
FFF0000FFFBFFF80
FFF0000FFFFFFF80
FFF00007FFFFFF80
FFF00007FFFFFF80
FFF00003FFFFFF80
FFF00001FFFFFF80
FFF00001FFFFFF00
FFF00001FFFFFC00
FFF00003FFFFF800
FFF8000FFFFFE000
FFF8001FFFFFC000
FFFC007FFFFF8000
FFFFFFFFFFFFC000
FFFFFFFFFFFFC000
FFFFFFFFFFFFE000
FFFFFFFFFFFFF000
FFFFFFFFFFFFF800
7FFFFFFFFFFFF800
7FFFFFFFFFFFFC00
3FFFFFFFFEFFFE00
1FFFFFFFFC7FFE00
1FFFFFFFF07FFF00
0FFFFFFFE03FFF80
07FFFFFFC01FFF80
03FFFFFF001FFF00
03FFFFFE000FFE00
ENDCHAR
STARTCHAR 0027
ENCODING 39
SWIDTH 112 0
DWIDTH 10 0
BBX 10 23 0 39
BITMAP
FFC0
7FC0
7FC0
7FC0
7FC0
7FC0
7FC0
7FC0
7FC0
7FC0
7F80
3F80
3F80
3F80
3F80
3F80
3F80
3F80
3F80
3F80
3F00
1F00
1F00
ENDCHAR
STARTCHAR 0028
ENCODING 40
SWIDTH 213 0
DWIDTH 19 0
BBX 17 69 2 -3
BITMAP
003F80
007F80
00FF80
00FF80
01FF00
01FF00
03FE00
03FE00
07FC00
0FFC00
0FF800
1FF000
1FF000
3FE000
3FE000
7FC000
FFC000
FF8000
FF8000
FF8000
FF8000
FF8000
FF8000
FF8000
FF8000
FF8000
FF8000
FF8000
FF8000
FF8000
FF8000
FF8000
FF8000
FF8000
FF8000
FF8000
FF8000
FF8000
FF8000
FF8000
FF8000
FF8000
FF8000
FF8000
FF8000
FF8000
FF8000
FF8000
FF8000
FF8000
FF8000
FF8000
FF8000
FFC000
7FC000
7FE000
3FF000
3FF000
1FF800
0FF800
0FFC00
07FC00
07FE00
03FF00
01FF00
01FF80
00FF80
00FF80
007F80
ENDCHAR
STARTCHAR 0029
ENCODING 41
SWIDTH 213 0
DWIDTH 19 0
BBX 17 69 0 -3
BITMAP
FF0000
FF8000
FF8000
7FC000
7FC000
3FE000
3FE000
1FF000
1FF800
0FF800
07FC00
07FC00
03FE00
03FE00
01FF00
01FF80
00FF80
00FF80
00FF80
00FF80
00FF80
00FF80
00FF80
00FF80
00FF80
00FF80
00FF80
00FF80
00FF80
00FF80
00FF80
00FF80
00FF80
00FF80
00FF80
00FF80
00FF80
00FF80
00FF80
00FF80
00FF80
00FF80
00FF80
00FF80
00FF80
00FF80
00FF80
00FF80
00FF80
00FF80
00FF80
00FF80
00FF80
00FF80
01FF80
03FF00
03FF00
07FE00
07FE00
0FFC00
0FF800
1FF800
1FF000
3FF000
7FE000
7FC000
FFC000
FF8000
FF8000
ENDCHAR
STARTCHAR 002A
ENCODING 42
SWIDTH 393 0
DWIDTH 35 0
BBX 31 31 2 31
BITMAP
001FF000
001FF000
001FF000
001FF000
0C1FF030
1E1FF0F0
1F9FF3F8
3FFFF7F8
7FFFFFFC
7FFFFFFE
FFFFFFFE
FFFFFFFE
3FFFFFFC
1FFFFFF0
07FFFFC0
01FFFF80
07FFFFC0
1FFFFFF0
7FFFFFFC
FFFFFFFE
FFFFFFFE
7FFFFFFC
3FFFFFFC
3FFFF7F8
1F9FF3F8
1E1FF0F0
081FF020
001FF000
001FF000
001FF000
001FF000
ENDCHAR
STARTCHAR 002B
ENCODING 43
SWIDTH 427 0
DWIDTH 38 0
BBX 34 34 2 14
BITMAP
0007FC0000
0007FC0000
0007FC0000
0007FC0000
0007FC0000
0007FC0000
0007FC0000
0007FC0000
0007FC0000
0007FC0000
0007FC0000
0007FC0000
FFFFFFFFC0
FFFFFFFFC0
FFFFFFFFC0
FFFFFFFFC0
FFFFFFFFC0
FFFFFFFFC0
FFFFFFFFC0
FFFFFFFFC0
FFFFFFFFC0
0007FC0000
0007FC0000
0007FC0000
0007FC0000
0007FC0000
0007FC0000
0007FC0000
0007FC0000
0007FC0000
0007FC0000
0007FC0000
0007FC0000
0007FC0000
ENDCHAR
STARTCHAR 002C
ENCODING 44
SWIDTH 191 0
DWIDTH 17 0
BBX 16 21 -2 -9
BITMAP
03FC
03FE
03FF
03FF
03FF
03FF
03FF
03FF
03FF
03FF
03FF
03FE
07FC
0FFC
1FF8
1FF0
3FF0
7FE0
7FC0
FFC0
FF80
ENDCHAR
STARTCHAR 002D
ENCODING 45
SWIDTH 427 0
DWIDTH 38 0
BBX 34 8 2 31
BITMAP
FFFFFFFFC0
FFFFFFFFC0
FFFFFFFFC0
FFFFFFFFC0
FFFFFFFFC0
FFFFFFFFC0
FFFFFFFFC0
FFFFFFFFC0
ENDCHAR
STARTCHAR 002E
ENCODING 46
SWIDTH 157 0
DWIDTH 14 0
BBX 10 11 2 0
BITMAP
FFC0
FFC0
FFC0
FFC0
FFC0
FFC0
FFC0
FFC0
FFC0
FFC0
FFC0
ENDCHAR
STARTCHAR 002F
ENCODING 47
SWIDTH 258 0
DWIDTH 23 0
BBX 27 71 -2 -4
BITMAP
00003FE0
00003FE0
00003FE0
00003FE0
00007FC0
00007FC0
00007FC0
00007FC0
0000FF80
0000FF80
0000FF80
0000FF80
0001FF00
0001FF00
0001FF00
0003FF00
0003FE00
0003FE00
0003FE00
0007FE00
0007FC00
0007FC00
0007FC00
000FF800
000FF800
000FF800
000FF800
001FF000
001FF000
001FF000
003FF000
003FE000
003FE000
003FE000
007FE000
007FC000
007FC000
007FC000
00FFC000
00FF8000
00FF8000
00FF8000
01FF8000
01FF0000
01FF0000
03FF0000
03FE0000
03FE0000
03FE0000
07FE0000
07FC0000
07FC0000
07FC0000
0FFC0000
0FF80000
0FF80000
0FF80000
1FF80000
1FF00000
1FF00000
3FF00000
3FF00000
3FE00000
3FE00000
7FE00000
7FC00000
7FC00000
7FC00000
FFC00000
FF800000
FF800000
ENDCHAR
STARTCHAR 0030
ENCODING 48
SWIDTH 573 0
DWIDTH 51 0
BBX 44 62 4 0
BITMAP
03FFFFFFF800
07FFFFFFFC00
07FFFFFFFE00
0FFFFFFFFF00
1FFFFFFFFF00
1FFFFFFFFF80
3FFFFFFFFFC0
7FFFFFFFFFC0
FFFFFFFFFFE0
FFFFFFFFFFF0
FFFFFFFFFFF0
FFFFFFFFFFF0
FFFFFFFFFFF0
FFFFFFFFFFF0
FFFE0007FFF0
FFFC0007FFF0
FFF80003FFF0
FFF80003FFF0
FFF80003FFF0
FFF80003FFF0
FFF80003FFF0
FFF80003FFF0
FFF80003FFF0
FFF80003FFF0
FFF80003FFF0
FFF80003FFF0
FFF80003FFF0
FFF80003FFF0
FFF80003FFF0
FFF80003FFF0
FFF80003FFF0
FFF80003FFF0
FFF80003FFF0
FFF80003FFF0
FFF80003FFF0
FFF80003FFF0
FFF80003FFF0
FFF80003FFF0
FFF80003FFF0
FFF80003FFF0
FFF80003FFF0
FFF80003FFF0
FFF80003FFF0
FFF80003FFF0
FFF80003FFF0
FFFC0003FFF0
FFFC0007FFF0
FFFE000FFFF0
FFFFFFFFFFF0
FFFFFFFFFFF0
FFFFFFFFFFF0
FFFFFFFFFFF0
FFFFFFFFFFF0
7FFFFFFFFFE0
7FFFFFFFFFC0
3FFFFFFFFFC0
1FFFFFFFFF80
1FFFFFFFFF00
0FFFFFFFFE00
07FFFFFFFE00
03FFFFFFFC00
03FFFFFFF800
ENDCHAR
STARTCHAR 0031
ENCODING 49
SWIDTH 393 0
DWIDTH 35 0
BBX 28 62 4 0
BITMAP
0003FFE0
000FFFE0
001FFFF0
003FFFF0
007FFFF0
01FFFFF0
03FFFFF0
07FFFFF0
0FFFFFF0
3FFFFFF0
7FFFFFF0
FFFFFFF0
FFFFFFF0
FFFFFFF0
FFFFFFF0
FFFFFFF0
FFFFFFF0
FFFFFFF0
FFFFFFF0
FFFBFFF0
FFF3FFF0
FFC3FFF0
FF83FFF0
FF03FFF0
FE03FFF0
F803FFF0
0003FFF0
0003FFF0
0003FFF0
0003FFF0
0003FFF0
0003FFF0
0003FFF0
0003FFF0
0003FFF0
0003FFF0
0003FFF0
0003FFF0
0003FFF0
0003FFF0
0003FFF0
0003FFF0
0003FFF0
0003FFF0
0003FFF0
0003FFF0
0003FFF0
0003FFF0
0003FFF0
0003FFF0
0003FFF0
0003FFF0
0003FFF0
0003FFF0
0003FFF0
0003FFF0
0003FFF0
0003FFF0
0003FFF0
0003FFF0
0003FFF0
0003FFF0
ENDCHAR
STARTCHAR 0032
ENCODING 50
SWIDTH 540 0
DWIDTH 48 0
BBX 41 62 4 0
BITMAP
03FFFFFFFF00
07FFFFFFFF00
07FFFFFFFF80
0FFFFFFFFF80
1FFFFFFFFF80
1FFFFFFFFF80
3FFFFFFFFF80
7FFFFFFFFF80
FFFFFFFFFF80
FFFFFFFFFF80
FFFFFFFFFF80
FFFFFFFFFF80
FFFFFFFFFF80
FFFFFFFFFF80
FFFF001FFF80
FFFE001FFF80
FFFE001FFF80
FFFC001FFF80
FFF8001FFF80
0000001FFF80
0000003FFF80
0000007FFF80
000000FFFF80
000001FFFF80
000003FFFF80
000007FFFF00
00000FFFFE00
00001FFFFC00
00003FFFF800
00007FFFF000
0000FFFFE000
0001FFFFC000
0003FFFF8000
0007FFFF0000
000FFFFE0000
000FFFFE0000
001FFFFC0000
003FFFF80000
007FFFF00000
00FFFFE00000
01FFFFC00000
03FFFF800000
07FFFF000000
0FFFFE000000
1FFFFC000000
3FFFF8000000
7FFFF0000000
FFFFE0000000
FFFFFFFFFE00
FFFFFFFFFF00
FFFFFFFFFF80
FFFFFFFFFF80
FFFFFFFFFF80
FFFFFFFFFF80
FFFFFFFFFF80
FFFFFFFFFF80
FFFFFFFFFF80
FFFFFFFFFF80
FFFFFFFFFF80
FFFFFFFFFF80
FFFFFFFFFF80
FFFFFFFFFF80
ENDCHAR
STARTCHAR 0033
ENCODING 51
SWIDTH 517 0
DWIDTH 46 0
BBX 39 62 4 0
BITMAP
FFFFFFFFF8
FFFFFFFFFC
FFFFFFFFFE
FFFFFFFFFE
FFFFFFFFFE
7FFFFFFFFE
3FFFFFFFFE
3FFFFFFFFE
1FFFFFFFFE
0FFFFFFFFE
0FFFFFFFFE
07FFFFFFFE
03FFFFFFFE
01FFFFFFFE
0000007FFE
0000007FFE
0000007FFE
0000007FFE
0000007FFE
0000007FFE
0000007FFE
0000007FFE
0000007FFE
0000007FFE
01FFFFFFFE
01FFFFFFFE
01FFFFFFFE
01FFFFFFFE
01FFFFFFFE
01FFFFFFFE
01FFFFFFFE
01FFFFFFFE
01FFFFFFFE
01FFFFFFFE
01FFFFFFFE
01FFFFFFFE
01FFFFFFFE
01FFFFFFFE
0000007FFE
0000007FFE
0000007FFE
0000007FFE
0000007FFE
0000007FFE
0000007FFE
0000007FFE
0000007FFE
0000007FFE
01FFFFFFFE
03FFFFFFFE
03FFFFFFFE
07FFFFFFFE
0FFFFFFFFE
1FFFFFFFFE
1FFFFFFFFE
3FFFFFFFFE
7FFFFFFFFE
7FFFFFFFFE
FFFFFFFFFE
FFFFFFFFFE
FFFFFFFFFC
FFFFFFFFF8
ENDCHAR
STARTCHAR 0034
ENCODING 52
SWIDTH 573 0
DWIDTH 51 0
BBX 44 62 4 0
BITMAP
00001FFFE000
00003FFFF000
00007FFFF800
00007FFFF800
0000FFFFF800
0000FFFFF800
0001FFFFF800
0003FFFFF800
0003FFFFF800
0007FFFFF800
0007FFFFF800
000FFFFFF800
001FFFFFF800
001FFFFFF800
003FFFFFF800
003FFFFFF800
007FFFFFF800
00FFFFFFF800
00FFFFFFF800
01FFFFFFF800
01FFFFFFF800
03FFFDFFF800
07FFF9FFF800
07FFF9FFF800
0FFFF1FFF800
0FFFF1FFF800
1FFFE1FFF800
3FFFC1FFF800
3FFFC1FFF800
7FFF81FFF800
FFFF01FFF800
FFFF01FFF800
FFFE01FFF800
FFFE01FFF800
FFFC01FFF800
FFFC01FFF800
FFFFFFFFFFC0
FFFFFFFFFFC0
FFFFFFFFFFE0
FFFFFFFFFFF0
FFFFFFFFFFF0
FFFFFFFFFFF0
FFFFFFFFFFF0
FFFFFFFFFFF0
FFFFFFFFFFF0
FFFFFFFFFFF0
FFFFFFFFFFF0
FFFFFFFFFFF0
7FFFFFFFFFF0
7FFFFFFFFFF0
000001FFF800
000001FFF800
000001FFF800
000001FFF800
000001FFF800
000001FFF800
000001FFF800
000001FFF800
000001FFF800
000001FFF800
000001FFF800
000001FFF800
ENDCHAR
STARTCHAR 0035
ENCODING 53
SWIDTH 517 0
DWIDTH 46 0
BBX 39 62 4 0
BITMAP
7FFFFFFFFE
7FFFFFFFFE
FFFFFFFFFE
FFFFFFFFFE
FFFFFFFFFC
FFFFFFFFF8
FFFFFFFFF8
FFFFFFFFF0
FFFFFFFFE0
FFFFFFFFC0
FFFFFFFFC0
FFFFFFFF80
FFFFFFFF00
FFFFFFFF00
FFF8000000
FFF8000000
FFF8000000
FFF8000000
FFF8000000
FFF8000000
FFF8000000
FFF8000000
FFF8000000
FFFFFFFFF0
FFFFFFFFF8
FFFFFFFFFC
FFFFFFFFFE
FFFFFFFFFE
FFFFFFFFFE
FFFFFFFFFE
FFFFFFFFFE
FFFFFFFFFE
FFFFFFFFFE
FFFFFFFFFE
FFFFFFFFFE
7FFFFFFFFE
7FFFFFFFFE
0000007FFE
0000007FFE
0000007FFE
0000007FFE
0000007FFE
0000007FFE
0000007FFE
0000007FFE
0000007FFE
0000007FFE
0000007FFE
03FFFFFFFE
03FFFFFFFE
07FFFFFFFE
0FFFFFFFFE
0FFFFFFFFE
1FFFFFFFFE
3FFFFFFFFE
7FFFFFFFFE
7FFFFFFFFE
FFFFFFFFFE
FFFFFFFFFE
FFFFFFFFFC
FFFFFFFFF8
FFFFFFFFF8
ENDCHAR
STARTCHAR 0036
ENCODING 54
SWIDTH 540 0
DWIDTH 48 0
BBX 41 62 4 0
BITMAP
7FFFFFFFC000
7FFFFFFFE000
FFFFFFFFF000
FFFFFFFFF000
FFFFFFFFF800
FFFFFFFFFC00
FFFFFFFFFC00
FFFFFFFFFE00
FFFFFFFFFF00
FFFFFFFFFF80
FFFFFFFFFF80
FFFFFFFFFF80
FFFFFFFFFF80
FFFFFFFFFF80
FFF8001FFF80
FFF8001FFF80
FFF8000FFF80
FFF80007FF80
FFF80003FF80
FFF800000000
FFF800000000
FFF800000000
FFF800000000
FFF800000000
FFF800000000
FFF800000000
FFF800000000
FFFFFFFFFE00
FFFFFFFFFE00
FFFFFFFFFF00
FFFFFFFFFF80
FFFFFFFFFF80
FFFFFFFFFF80
FFFFFFFFFF80
FFFFFFFFFF80
FFFFFFFFFF80
FFFFFFFFFF80
FFFFFFFFFF80
FFFFFFFFFF80
FFFE007FFF80
FFFE003FFF80
FFFC003FFF80
FFF8001FFF80
FFF8001FFF80
FFF8001FFF80
FFFC001FFF80
FFFC003FFF80
FFFE007FFF80
FFFFFFFFFF80
FFFFFFFFFF80
FFFFFFFFFF80
FFFFFFFFFF80
FFFFFFFFFF80
FFFFFFFFFF80
FFFFFFFFFF80
FFFFFFFFFF80
FFFFFFFFFF80
FFFFFFFFFF80
FFFFFFFFFF80
FFFFFFFFFF00
7FFFFFFFFF00
7FFFFFFFFE00
ENDCHAR
STARTCHAR 0037
ENCODING 55
SWIDTH 472 0
DWIDTH 42 0
BBX 38 62 1 0
BITMAP
FFFFFFFFF0
FFFFFFFFF8
FFFFFFFFFC
FFFFFFFFFC
7FFFFFFFFC
3FFFFFFFFC
3FFFFFFFFC
1FFFFFFFFC
0FFFFFFFFC
07FFFFFFFC
07FFFFFFFC
03FFFFFFFC
01FFFFFFFC
01FFFFFFFC
000003FFFC
000003FFFC
000007FFF8
000007FFF8
000007FFF8
00000FFFF0
00000FFFF0
00000FFFF0
00001FFFE0
00001FFFE0
00001FFFE0
00001FFFC0
00003FFFC0
00003FFFC0
00003FFF80
00007FFF80
00007FFF80
00007FFF80
0000FFFF00
0000FFFF00
0000FFFF00
0001FFFE00
0001FFFE00
0001FFFE00
0003FFFC00
0003FFFC00
0003FFFC00
0007FFF800
0007FFF800
0007FFF800
000FFFF000
000FFFF000
000FFFF000
000FFFE000
001FFFE000
001FFFE000
001FFFE000
003FFFC000
003FFFC000
003FFFC000
007FFF8000
007FFF8000
007FFF8000
007FFF0000
007FFF0000
007FFF0000
007FFE0000
007FFE0000
ENDCHAR
STARTCHAR 0038
ENCODING 56
SWIDTH 573 0
DWIDTH 51 0
BBX 44 62 4 0
BITMAP
03FFFFFFFC00
07FFFFFFFC00
07FFFFFFFE00
0FFFFFFFFF00
1FFFFFFFFF80
1FFFFFFFFF80
3FFFFFFFFFC0
7FFFFFFFFFE0
FFFFFFFFFFE0
FFFFFFFFFFF0
FFFFFFFFFFF0
FFFFFFFFFFF0
FFFFFFFFFFF0
FFFFFFFFFFF0
FFFF001FFFF0
FFFE000FFFF0
FFFC0007FFF0
FFF80003FFF0
FFF80003FFF0
FFF80003FFF0
FFF80003FFF0
FFF80003FFF0
FFF80003FFF0
FFFC0003FFF0
FFFE0007FFF0
FFFF000FFFF0
FFFF801FFFF0
FFFFFFFFFFF0
3FFFFFFFFFC0
1FFFFFFFFF80
0FFFFFFFFF00
0FFFFFFFFF00
3FFFFFFFFF80
7FFFFFFFFFE0
FFFF801FFFF0
FFFF000FFFF0
FFFE0007FFF0
FFFC0003FFF0
FFF80003FFF0
FFF80003FFF0
FFF80003FFF0
FFF80003FFF0
FFF80003FFF0
FFF80003FFF0
FFFC0003FFF0
FFFE0007FFF0
FFFF000FFFF0
FFFF801FFFF0
FFFFFFFFFFF0
FFFFFFFFFFF0
FFFFFFFFFFF0
FFFFFFFFFFF0
FFFFFFFFFFF0
7FFFFFFFFFE0
7FFFFFFFFFE0
3FFFFFFFFFC0
1FFFFFFFFF80
1FFFFFFFFF00
0FFFFFFFFF00
07FFFFFFFE00
03FFFFFFFC00
03FFFFFFFC00
ENDCHAR
STARTCHAR 0039
ENCODING 57
SWIDTH 540 0
DWIDTH 48 0
BBX 41 62 4 0
BITMAP
7FFFFFFFFE00
7FFFFFFFFF00
FFFFFFFFFF00
FFFFFFFFFF80
FFFFFFFFFF80
FFFFFFFFFF80
FFFFFFFFFF80
FFFFFFFFFF80
FFFFFFFFFF80
FFFFFFFFFF80
FFFFFFFFFF80
FFFFFFFFFF80
FFFFFFFFFF80
FFFFFFFFFF80
FFFE007FFF80
FFFC003FFF80
FFF8001FFF80
FFF8001FFF80
FFF8001FFF80
FFF8001FFF80
FFFC003FFF80
FFFE007FFF80
FFFFFFFFFF80
FFFFFFFFFF80
FFFFFFFFFF80
FFFFFFFFFF80
FFFFFFFFFF80
FFFFFFFFFF80
FFFFFFFFFF80
FFFFFFFFFF80
FFFFFFFFFF80
FFFFFFFFFF80
FFFFFFFFFF80
7FFFFFFFFF80
0000001FFF80
0000001FFF80
0000001FFF80
0000001FFF80
0000001FFF80
0000001FFF80
0000001FFF80
0000001FFF80
0000001FFF80
FFE0001FFF80
FFE0001FFF80
FFF0001FFF80
FFF8001FFF80
FFFC001FFF80
FFFFFFFFFF80
FFFFFFFFFF80
FFFFFFFFFF80
FFFFFFFFFF80
FFFFFFFFFF80
7FFFFFFFFF80
7FFFFFFFFF80
3FFFFFFFFF80
1FFFFFFFFF80
1FFFFFFFFF80
0FFFFFFFFF80
07FFFFFFFF00
03FFFFFFFF00
03FFFFFFFE00
ENDCHAR
STARTCHAR 003A
ENCODING 58
SWIDTH 157 0
DWIDTH 14 0
BBX 10 44 2 0
BITMAP
FFC0
FFC0
FFC0
FFC0
FFC0
FFC0
FFC0
FFC0
FFC0
FFC0
0000
0000
0000
0000
0000
0000
0000
0000
0000
0000
0000
0000
0000
0000
0000
0000
0000
0000
0000
0000
0000
0000
0000
FFC0
FFC0
FFC0
FFC0
FFC0
FFC0
FFC0
FFC0
FFC0
FFC0
FFC0
ENDCHAR
STARTCHAR 003B
ENCODING 59
SWIDTH 157 0
DWIDTH 14 0
BBX 16 53 -3 -9
BITMAP
07FF
07FF
07FF
07FF
07FF
07FF
07FF
07FF
07FF
07FF
0000
0000
0000
0000
0000
0000
0000
0000
0000
0000
0000
0000
0000
0000
0000
0000
0000
0000
0000
0000
0000
0000
01FC
01FE
01FF
01FF
01FF
01FF
01FF
01FF
01FF
01FF
03FF
03FE
07FC
0FFC
0FF8
1FF0
3FF0
7FE0
7FC0
FFC0
FF80
ENDCHAR
STARTCHAR 003C
ENCODING 60
SWIDTH 393 0
DWIDTH 35 0
BBX 31 48 2 10
BITMAP
00000002
0000000E
0000003E
000000FE
000001FE
000007FE
00001FFE
00007FFE
0001FFFE
0007FFFE
001FFFFE
007FFFFE
00FFFFFC
03FFFFF0
0FFFFFC0
3FFFFF00
FFFFFC00
FFFFF000
FFFFC000
FFFF0000
FFFC0000
FFE00000
FFC00000
FF800000
FF800000
FF800000
FFE00000
FFF80000
FFFE0000
FFFF8000
FFFFE000
FFFFF800
7FFFFE00
1FFFFF80
07FFFFE0
01FFFFF8
007FFFFE
001FFFFE
0007FFFE
0003FFFE
0000FFFE
00003FFE
00000FFE
000003FE
000000FE
0000003E
0000000E
00000006
ENDCHAR
STARTCHAR 003D
ENCODING 61
SWIDTH 427 0
DWIDTH 38 0
BBX 34 22 2 19
BITMAP
FFFFFFFFC0
FFFFFFFFC0
FFFFFFFFC0
FFFFFFFFC0
FFFFFFFFC0
FFFFFFFFC0
FFFFFFFFC0
FFFFFFFFC0
FFFFFFFFC0
0000000000
0000000000
0000000000
0000000000
FFFFFFFFC0
FFFFFFFFC0
FFFFFFFFC0
FFFFFFFFC0
FFFFFFFFC0
FFFFFFFFC0
FFFFFFFFC0
FFFFFFFFC0
FFFFFFFFC0
ENDCHAR
STARTCHAR 003E
ENCODING 62
SWIDTH 393 0
DWIDTH 35 0
BBX 31 48 2 10
BITMAP
80000000
E0000000
F8000000
FE000000
FF800000
FFC00000
FFF00000
FFFC0000
FFFF0000
FFFFC000
FFFFF000
FFFFFC00
3FFFFF00
0FFFFF80
03FFFFE0
00FFFFF8
003FFFFE
000FFFFE
0003FFFE
0000FFFE
00003FFE
00000FFE
000003FE
000003FE
000003FE
000003FE
00000FFE
00003FFE
0000FFFE
0003FFFE
000FFFFE
003FFFFE
00FFFFFC
03FFFFF0
0FFFFFC0
3FFFFF00
FFFFFC00
FFFFF000
FFFFE000
FFFF8000
FFFE0000
FFF80000
FFE00000
FF800000
FE000000
F8000000
F0000000
C0000000
ENDCHAR
STARTCHAR 003F
ENCODING 63
SWIDTH 528 0
DWIDTH 47 0
BBX 40 62 4 0
BITMAP
03FFFFFFFE
07FFFFFFFE
07FFFFFFFF
0FFFFFFFFF
1FFFFFFFFF
1FFFFFFFFF
3FFFFFFFFF
7FFFFFFFFF
FFFFFFFFFF
FFFFFFFFFF
FFFFFFFFFF
FFFFFFFFFF
FFFFFFFFFF
FFFFFFFFFF
FFF8007FFF
FFF8007FFF
FFF0007FFF
FFF0007FFF
FFE0007FFF
0000007FFE
000000FFFC
000001FFFC
000001FFF8
000003FFF0
000007FFF0
000007FFE0
00000FFFC0
00000FFFC0
00001FFF80
00003FFF00
00003FFF00
00007FFE00
0000FFFC00
0000FFFC00
0001FFF800
0001FFF800
0001FFF800
0001FFF800
0001FFF800
0001FFF800
0001FFF800
0001FFF800
0001FFF800
0001FFF800
0001FFF800
0000000000
0000000000
0000000000
0000000000
0000000000
0000000000
0001FFF800
0001FFF800
0001FFF800
0001FFF800
0001FFF800
0001FFF800
0001FFF800
0001FFF800
0001FFF800
0001FFF800
0001FFF800
ENDCHAR
STARTCHAR 0040
ENCODING 64
SWIDTH 787 0
DWIDTH 70 0
BBX 63 72 4 -10
BITMAP
7FFFFFFFFFFFFFFC
7FFFFFFFFFFFFFFC
FFFFFFFFFFFFFFFE
FFFFFFFFFFFFFFFE
FFFFFFFFFFFFFFFE
FFFFFFFFFFFFFFFE
FFFFFFFFFFFFFFFE
FFFFFFFFFFFFFFFE
FFFFFFFFFFFFFFFE
FF800000000003FE
FF800000000003FE
FF800000000003FE
FF800000000003FE
FF800000000003FE
FF8001FFFF0003FE
FF8001FFFF0003FE
FF8003FFFF8003FE
FF8003FFFF8003FE
FF8003FFFF8003FE
FF8003FFFFC003FE
FF8007FFFFC003FE
FF8007FFFFC003FE
FF8007FFFFC003FE
FF8007FFFFC003FE
FF8007F83FE003FE
FF800FF83FE003FE
FF800FF01FE003FE
FF800FF01FE003FE
FF800FF01FE003FE
FF800FF01FF003FE
FF801FF01FF003FE
FF801FF01FF003FE
FF801FE00FF003FE
FF801FE00FF003FE
FF801FE00FF803FE
FF803FE00FF803FE
FF803FE00FF803FE
FF803FE00FF803FE
FF803FE007F803FE
FF803FC007FC03FE
FF807FE00FFC03FE
FF807FF01FFC03FE
FF807FFFFFFC03FE
FF807FFFFFFC03FE
FF807FFFFFFE03FE
FF80FFFFFFFE03FE
FF80FFFFFFFE03FE
FF80FFBFFBFE03FE
FF80FF9FF3FFFFFE
FF80FF8003FFFFFE
FF81FF8003FFFFFE
FF81FF8001FFFFFE
FF81FF0001FFFFFE
FF81FF0001FFFFFE
FF81FF0001FFFFFE
FF83FF0001FFFFFC
FF83FF0001FFFFFC
FF83FF0000FFFFF8
FF80000000000000
FF80000000000000
FF80000000000000
FF80000000000000
FFFFFFFFFC000000
FFFFFFFFFE000000
FFFFFFFFFF000000
FFFFFFFFFF000000
FFFFFFFFFF000000
FFFFFFFFFF000000
FFFFFFFFFF000000
FFFFFFFFFF000000
7FFFFFFFFF000000
3FFFFFFFFF000000
ENDCHAR
STARTCHAR 0041
ENCODING 65
SWIDTH 585 0
DWIDTH 52 0
BBX 50 62 1 0
BITMAP
0007FFFFF80000
0007FFFFF80000
000FFFFFFC0000
000FFFFFFE0000
001FFFFFFE0000
001FFFFFFE0000
001FFFFFFE0000
001FFFFFFE0000
001FFFFFFF0000
003FFFFFFF0000
003FFFFFFF0000
003FFFFFFF0000
003FFFFFFF0000
003FFFFFFF8000
007FF807FF8000
007FF807FF8000
007FF807FF8000
007FF807FF8000
007FF003FFC000
00FFF003FFC000
00FFF003FFC000
00FFF003FFC000
00FFF003FFC000
00FFF003FFE000
01FFE001FFE000
01FFE001FFE000
01FFE001FFE000
01FFE001FFE000
01FFE001FFF000
03FFE001FFF000
03FFE001FFF000
03FFC000FFF000
03FFC000FFF000
03FFC000FFF800
07FFC000FFF800
07FFC000FFF800
07FFC000FFF800
07FFC000FFF800
07FFE001FFFC00
0FFFF003FFFC00
0FFFFFFFFFFC00
0FFFFFFFFFFC00
0FFFFFFFFFFC00
0FFFFFFFFFFE00
1FFFFFFFFFFE00
1FFFFFFFFFFE00
1FFFFFFFFFFE00
1FFF7FFFBFFE00
1FFF3FFF3FFF00
3FFF00003FFF00
3FFF00003FFF00
3FFE00001FFF00
3FFE00001FFF00
3FFE00001FFF80
7FFE00001FFF80
7FFE00001FFF80
7FFE00001FFF80
7FFC00000FFF80
7FFC00000FFFC0
FFFC00000FFFC0
FFFC00000FFFC0
FFFC00000FFFC0
ENDCHAR
STARTCHAR 0042
ENCODING 66
SWIDTH 573 0
DWIDTH 51 0
BBX 44 62 4 0
BITMAP
FFFFFFFFF800
FFFFFFFFFC00
FFFFFFFFFE00
FFFFFFFFFF00
FFFFFFFFFF00
FFFFFFFFFF80
FFFFFFFFFFC0
FFFFFFFFFFC0
FFFFFFFFFFE0
FFFFFFFFFFF0
FFFFFFFFFFF0
FFFFFFFFFFF0
FFF80007FFF0
FFF80007FFF0
FFF80003FFF0
FFF80003FFF0
FFF80003FFF0
FFF80003FFF0
FFF80003FFF0
FFF80003FFF0
FFF80003FFF0
FFF80003FFF0
FFF80003FFF0
FFF80007FFF0
FFF8000FFFF0
FFFFFFFFFFF0
FFFFFFFFFFE0
FFFFFFFFFFC0
FFFFFFFFFF80
FFFFFFFFFF00
FFFFFFFFFE00
FFFFFFFFFF80
FFFFFFFFFFC0
FFFFFFFFFFE0
FFFFFFFFFFF0
FFFFFFFFFFF0
FFFFFFFFFFF0
FFF8000FFFF0
FFF80007FFF0
FFF80003FFF0
FFF80003FFF0
FFF80003FFF0
FFF80003FFF0
FFF80003FFF0
FFF80003FFF0
FFF80003FFF0
FFF80003FFF0
FFF80003FFF0
FFF80007FFF0
FFF8000FFFF0
FFFFFFFFFFF0
FFFFFFFFFFF0
FFFFFFFFFFF0
FFFFFFFFFFE0
FFFFFFFFFFC0
FFFFFFFFFFC0
FFFFFFFFFF80
FFFFFFFFFF00
FFFFFFFFFE00
FFFFFFFFFE00
FFFFFFFFFC00
FFFFFFFFF800
ENDCHAR
STARTCHAR 0043
ENCODING 67
SWIDTH 540 0
DWIDTH 48 0
BBX 41 62 4 0
BITMAP
FFFFFFFFC000
FFFFFFFFE000
FFFFFFFFF000
FFFFFFFFF800
FFFFFFFFF800
FFFFFFFFFC00
FFFFFFFFFE00
FFFFFFFFFE00
FFFFFFFFFF00
FFFFFFFFFF80
FFFFFFFFFF80
FFFFFFFFFF80
FFFFFFFFFF80
FFFFFFFFFF80
FFF8003FFF80
FFF8001FFF80
FFF8000FFF80
FFF800000000
FFF800000000
FFF800000000
FFF800000000
FFF800000000
FFF800000000
FFF800000000
FFF800000000
FFF800000000
FFF800000000
FFF800000000
FFF800000000
FFF800000000
FFF800000000
FFF800000000
FFF800000000
FFF800000000
FFF800000000
FFF800000000
FFF800000000
FFF800000000
FFF800000000
FFF800000000
FFF800000000
FFF800000000
FFF800000000
FFF800000000
FFF800000000
FFF8000FFF80
FFF8001FFF80
FFF8003FFF80
FFFFFFFFFF80
FFFFFFFFFF80
FFFFFFFFFF80
FFFFFFFFFF80
FFFFFFFFFF80
FFFFFFFFFF00
FFFFFFFFFE00
FFFFFFFFFE00
FFFFFFFFFC00
FFFFFFFFF800
FFFFFFFFF000
FFFFFFFFF000
FFFFFFFFE000
FFFFFFFFC000
ENDCHAR
STARTCHAR 0044
ENCODING 68
SWIDTH 573 0
DWIDTH 51 0
BBX 44 62 4 0
BITMAP
FFFFFFFFF800
FFFFFFFFFC00
FFFFFFFFFE00
FFFFFFFFFF00
FFFFFFFFFF00
FFFFFFFFFF80
FFFFFFFFFFC0
FFFFFFFFFFC0
FFFFFFFFFFE0
FFFFFFFFFFF0
FFFFFFFFFFF0
FFFFFFFFFFF0
FFFFFFFFFFF0
FFFFFFFFFFF0
FFF80007FFF0
FFF80007FFF0
FFF80003FFF0
FFF80003FFF0
FFF80003FFF0
FFF80003FFF0
FFF80003FFF0
FFF80003FFF0
FFF80003FFF0
FFF80003FFF0
FFF80003FFF0
FFF80003FFF0
FFF80003FFF0
FFF80003FFF0
FFF80003FFF0
FFF80003FFF0
FFF80003FFF0
FFF80003FFF0
FFF80003FFF0
FFF80003FFF0
FFF80003FFF0
FFF80003FFF0
FFF80003FFF0
FFF80003FFF0
FFF80003FFF0
FFF80003FFF0
FFF80003FFF0
FFF80003FFF0
FFF80003FFF0
FFF80003FFF0
FFF80003FFF0
FFF80003FFF0
FFF80007FFF0
FFF8000FFFF0
FFFFFFFFFFF0
FFFFFFFFFFF0
FFFFFFFFFFF0
FFFFFFFFFFF0
FFFFFFFFFFF0
FFFFFFFFFFE0
FFFFFFFFFFC0
FFFFFFFFFFC0
FFFFFFFFFF80
FFFFFFFFFF00
FFFFFFFFFE00
FFFFFFFFFE00
FFFFFFFFFC00
FFFFFFFFF800
ENDCHAR
STARTCHAR 0045
ENCODING 69
SWIDTH 540 0
DWIDTH 48 0
BBX 41 62 4 0
BITMAP
FFFFFFFFC000
FFFFFFFFE000
FFFFFFFFF000
FFFFFFFFF000
FFFFFFFFF800
FFFFFFFFFC00
FFFFFFFFFC00
FFFFFFFFFE00
FFFFFFFFFF00
FFFFFFFFFF80
FFFFFFFFFF80
FFFFFFFFFF80
FFFFFFFFFF80
FFFFFFFFFF80
FFF8000FFF80
FFF80007FF80
FFF80003FF80
FFF800000000
FFF800000000
FFF800000000
FFF800000000
FFF800000000
FFF800000000
FFF800000000
FFF800000000
FFF800000000
FFFFFFFC0000
FFFFFFFC0000
FFFFFFFC0000
FFFFFFFC0000
FFFFFFFC0000
FFFFFFFC0000
FFFFFFFC0000
FFFFFFFC0000
FFFFFFFC0000
FFFFFFFC0000
FFF800000000
FFF800000000
FFF800000000
FFF800000000
FFF800000000
FFF800000000
FFF800000000
FFF800000000
FFF800000000
FFF80003FF80
FFF80007FF80
FFF8000FFF80
FFFFFFFFFF80
FFFFFFFFFF80
FFFFFFFFFF80
FFFFFFFFFF80
FFFFFFFFFF00
FFFFFFFFFF00
FFFFFFFFFE00
FFFFFFFFFC00
FFFFFFFFFC00
FFFFFFFFF800
FFFFFFFFF000
FFFFFFFFE000
FFFFFFFFE000
FFFFFFFFC000
ENDCHAR
STARTCHAR 0046
ENCODING 70
SWIDTH 506 0
DWIDTH 45 0
BBX 38 62 4 0
BITMAP
FFFFFFFF80
FFFFFFFFC0
FFFFFFFFC0
FFFFFFFFE0
FFFFFFFFE0
FFFFFFFFF0
FFFFFFFFF0
FFFFFFFFF8
FFFFFFFFF8
FFFFFFFFFC
FFFFFFFFFC
FFFFFFFFFC
FFFFFFFFFC
FFFFFFFFFC
FFF8003FFC
FFF8001FFC
FFF8000FFC
FFF8000000
FFF8000000
FFF8000000
FFF8000000
FFF8000000
FFF8000000
FFF8000000
FFF8000000
FFF8000000
FFF8000000
FFF8000000
FFFFFFFF80
FFFFFFFF80
FFFFFFFF80
FFFFFFFF80
FFFFFFFF80
FFFFFFFF80
FFFFFFFF80
FFFFFFFF80
FFFFFFFF80
FFFFFFFF80
FFFFFFFF80
FFFFFFFF80
FFF8000000
FFF8000000
FFF8000000
FFF8000000
FFF8000000
FFF8000000
FFF8000000
FFF8000000
FFF8000000
FFF8000000
FFF8000000
FFF8000000
FFF8000000
FFF8000000
FFF8000000
FFF8000000
FFF8000000
FFF8000000
FFF8000000
FFF8000000
FFF8000000
FFF8000000
ENDCHAR
STARTCHAR 0047
ENCODING 71
SWIDTH 551 0
DWIDTH 49 0
BBX 42 62 4 0
BITMAP
FFFFFFFFE000
FFFFFFFFF000
FFFFFFFFF800
FFFFFFFFF800
FFFFFFFFFC00
FFFFFFFFFE00
FFFFFFFFFE00
FFFFFFFFFF00
FFFFFFFFFF80
FFFFFFFFFFC0
FFFFFFFFFFC0
FFFFFFFFFFC0
FFFFFFFFFFC0
FFFFFFFFFFC0
FFF80007FFC0
FFF80007FFC0
FFF80003FFC0
FFF800000000
FFF800000000
FFF800000000
FFF800000000
FFF800000000
FFF800000000
FFF800000000
FFF800000000
FFF800000000
FFF80FFFFFC0
FFF80FFFFFC0
FFF80FFFFFC0
FFF80FFFFFC0
FFF80FFFFFC0
FFF80FFFFFC0
FFF80FFFFFC0
FFF80FFFFFC0
FFF80FFFFFC0
FFF80FFFFFC0
FFF80FFFFFC0
FFF80FFFFFC0
FFF80FFFFFC0
FFF80FFFFFC0
FFF8000FFFC0
FFF8000FFFC0
FFF8000FFFC0
FFF8000FFFC0
FFF8000FFFC0
FFF8000FFFC0
FFF8000FFFC0
FFF8000FFFC0
FFFFFFFFFFC0
FFFFFFFFFFC0
FFFFFFFFFFC0
FFFFFFFFFFC0
FFFFFFFFFFC0
FFFFFFFFFFC0
FFFFFFFFFFC0
FFFFFFFFFFC0
FFFFFFFFFFC0
FFFFFFFFFFC0
FFFFFFFFFFC0
FFFFFFFF7FC0
FFFFFFFF3FC0
FFFFFFFE1FC0
ENDCHAR
STARTCHAR 0048
ENCODING 72
SWIDTH 573 0
DWIDTH 51 0
BBX 44 62 4 0
BITMAP
FFF80003FFF0
FFF80003FFF0
FFF80003FFF0
FFF80003FFF0
FFF80003FFF0
FFF80003FFF0
FFF80003FFF0
FFF80003FFF0
FFF80003FFF0
FFF80003FFF0
FFF80003FFF0
FFF80003FFF0
FFF80003FFF0
FFF80003FFF0
FFF80003FFF0
FFF80003FFF0
FFF80003FFF0
FFF80003FFF0
FFF80003FFF0
FFF80003FFF0
FFFC0003FFF0
FFFE0007FFF0
FFFE000FFFF0
FFFFFFFFFFF0
FFFFFFFFFFF0
FFFFFFFFFFF0
FFFFFFFFFFF0
FFFFFFFFFFF0
FFFFFFFFFFF0
FFFFFFFFFFF0
FFFFFFFFFFF0
FFFFFFFFFFF0
FFFFFFFFFFF0
FFFFFFFFFFF0
FFFFFFFFFFF0
FFFFFFFFFFF0
FFFFFFFFFFF0
FFFE0007FFF0
FFFC0007FFF0
FFFC0003FFF0
FFF80003FFF0
FFF80003FFF0
FFF80003FFF0
FFF80003FFF0
FFF80003FFF0
FFF80003FFF0
FFF80003FFF0
FFF80003FFF0
FFF80003FFF0
FFF80003FFF0
FFF80003FFF0
FFF80003FFF0
FFF80003FFF0
FFF80003FFF0
FFF80003FFF0
FFF80003FFF0
FFF80003FFF0
FFF80003FFF0
FFF80003FFF0
FFF80003FFF0
FFF80003FFF0
FFF80003FFF0
ENDCHAR
STARTCHAR 0049
ENCODING 73
SWIDTH 225 0
DWIDTH 20 0
BBX 13 62 4 0
BITMAP
FFF8
FFF8
FFF8
FFF8
FFF8
FFF8
FFF8
FFF8
FFF8
FFF8
FFF8
FFF8
FFF8
FFF8
FFF8
FFF8
FFF8
FFF8
FFF8
FFF8
FFF8
FFF8
FFF8
FFF8
FFF8
FFF8
FFF8
FFF8
FFF8
FFF8
FFF8
FFF8
FFF8
FFF8
FFF8
FFF8
FFF8
FFF8
FFF8
FFF8
FFF8
FFF8
FFF8
FFF8
FFF8
FFF8
FFF8
FFF8
FFF8
FFF8
FFF8
FFF8
FFF8
FFF8
FFF8
FFF8
FFF8
FFF8
FFF8
FFF8
FFF8
FFF8
ENDCHAR
STARTCHAR 004A
ENCODING 74
SWIDTH 506 0
DWIDTH 45 0
BBX 38 62 4 0
BITMAP
03FFFFFFFC
03FFFFFFFC
03FFFFFFFC
03FFFFFFFC
03FFFFFFFC
03FFFFFFFC
03FFFFFFFC
03FFFFFFFC
03FFFFFFFC
03FFFFFFFC
03FFFFFFFC
03FFFFFFFC
03FFFFFFFC
03FFFFFFFC
000000FFFC
000000FFFC
000000FFFC
000000FFFC
000000FFFC
000000FFFC
000000FFFC
000000FFFC
000000FFFC
000000FFFC
000000FFFC
000000FFFC
000000FFFC
000000FFFC
000000FFFC
000000FFFC
000000FFFC
000000FFFC
000000FFFC
000000FFFC
000000FFFC
000000FFFC
000000FFFC
000000FFFC
000000FFFC
000000FFFC
000000FFFC
000000FFFC
000000FFFC
000000FFFC
000000FFFC
FFFC00FFFC
FFFC00FFFC
FFFE00FFFC
FFFFFFFFFC
FFFFFFFFFC
FFFFFFFFFC
FFFFFFFFFC
FFFFFFFFFC
7FFFFFFFFC
7FFFFFFFFC
3FFFFFFFFC
1FFFFFFFFC
1FFFFFFFFC
0FFFFFFFFC
07FFFFFFFC
03FFFFFFFC
03FFFFFFFC
ENDCHAR
STARTCHAR 004B
ENCODING 75
SWIDTH 573 0
DWIDTH 51 0
BBX 44 62 4 0
BITMAP
FFF80007FFF0
FFF80007FFF0
FFF8000FFFF0
FFF8001FFFF0
FFF8001FFFF0
FFF8003FFFF0
FFF8007FFFF0
FFF8007FFFE0
FFF800FFFFC0
FFF801FFFFC0
FFF801FFFF80
FFF803FFFF00
FFF807FFFE00
FFF807FFFE00
FFF80FFFFC00
FFF81FFFF800
FFF81FFFF000
FFF83FFFF000
FFF87FFFE000
FFF8FFFFC000
FFF8FFFFC000
FFF9FFFF8000
FFFBFFFF0000
FFFBFFFE0000
FFFFFFFE0000
FFFFFFFC0000
FFFFFFF80000
FFFFFFF00000
FFFFFFF00000
FFFFFFE00000
FFFFFFC00000
FFFFFFC00000
FFFFFFE00000
FFFFFFF00000
FFFFFFF00000
FFFFFFF80000
FFFFFFFC0000
FFFFFFFE0000
FFFBFFFE0000
FFF9FFFF0000
FFF9FFFF8000
FFF8FFFF8000
FFF87FFFC000
FFF87FFFE000
FFF83FFFF000
FFF81FFFF000
FFF80FFFF800
FFF80FFFFC00
FFF807FFFE00
FFF803FFFE00
FFF803FFFF00
FFF801FFFF80
FFF800FFFFC0
FFF800FFFFC0
FFF8007FFFE0
FFF8003FFFF0
FFF8001FFFF0
FFF8001FFFF0
FFF8000FFFF0
FFF80007FFF0
FFF80007FFF0
FFF80003FFF0
ENDCHAR
STARTCHAR 004C
ENCODING 76
SWIDTH 405 0
DWIDTH 36 0
BBX 33 62 4 0
BITMAP
FFF8000000
FFF8000000
FFF8000000
FFF8000000
FFF8000000
FFF8000000
FFF8000000
FFF8000000
FFF8000000
FFF8000000
FFF8000000
FFF8000000
FFF8000000
FFF8000000
FFF8000000
FFF8000000
FFF8000000
FFF8000000
FFF8000000
FFF8000000
FFF8000000
FFF8000000
FFF8000000
FFF8000000
FFF8000000
FFF8000000
FFF8000000
FFF8000000
FFF8000000
FFF8000000
FFF8000000
FFF8000000
FFF8000000
FFF8000000
FFF8000000
FFF8000000
FFF8000000
FFF8000000
FFF8000000
FFF8000000
FFF8000000
FFF8000000
FFF8000000
FFF8000000
FFF8000000
FFFC000000
FFFC000000
FFFE000000
FFFFFFFF80
FFFFFFFF80
FFFFFFFF80
FFFFFFFF80
FFFFFFFF80
FFFFFFFF00
FFFFFFFE00
FFFFFFFC00
FFFFFFFC00
FFFFFFF800
FFFFFFF000
FFFFFFF000
FFFFFFE000
FFFFFFC000
ENDCHAR
STARTCHAR 004D
ENCODING 77
SWIDTH 686 0
DWIDTH 61 0
BBX 54 62 4 0
BITMAP
03FFFC00FFFF00
07FFFC00FFFF00
07FFFC00FFFF80
0FFFFC00FFFFC0
1FFFFC00FFFFC0
1FFFFC01FFFFE0
3FFFFE01FFFFF0
7FFFFE01FFFFF8
FFFFFE01FFFFF8
FFFFFE01FFFFFC
FFFFFE01FFFFFC
FFFFFE03FFFFFC
FFFFFE03FFFFFC
FFFFFF03FFFFFC
FFFFFF03FFFFFC
FFFFFF03FFFFFC
FFFFFF03FFFFFC
FFFFFF03FFFFFC
FFFFFF07FFFFFC
FFFFFF87FFFFFC
FFF8FF87FCFFFC
FFF8FF87FCFFFC
FFF8FF87FCFFFC
FFF8FF87FCFFFC
FFF8FF8FFCFFFC
FFF8FF8FF8FFFC
FFF87FCFF8FFFC
FFF87FCFF8FFFC
FFF87FCFF8FFFC
FFF87FCFF8FFFC
FFF87FCFF8FFFC
FFF87FDFF0FFFC
FFF87FFFF0FFFC
FFF83FFFF0FFFC
FFF83FFFF0FFFC
FFF83FFFF0FFFC
FFF83FFFF0FFFC
FFF83FFFF0FFFC
FFF83FFFE0FFFC
FFF81FFFE0FFFC
FFF81FFFE0FFFC
FFF81FFFE0FFFC
FFF81FFFE0FFFC
FFF81FFFE0FFFC
FFF81FFFC0FFFC
FFF80FFFC0FFFC
FFF807FF80FFFC
FFF8000000FFFC
FFF8000000FFFC
FFF8000000FFFC
FFF8000000FFFC
FFF8000000FFFC
FFF8000000FFFC
FFF8000000FFFC
FFF8000000FFFC
FFF8000000FFFC
FFF8000000FFFC
FFF8000000FFFC
FFF8000000FFFC
FFF8000000FFFC
FFF8000000FFFC
FFF8000000FFFC
ENDCHAR
STARTCHAR 004E
ENCODING 78
SWIDTH 562 0
DWIDTH 50 0
BBX 43 62 4 0
BITMAP
03FC0003FFE0
07FC0003FFE0
07FE0003FFE0
0FFE0003FFE0
1FFE0003FFE0
1FFF0003FFE0
3FFF0003FFE0
7FFF8003FFE0
FFFF8003FFE0
FFFFC003FFE0
FFFFC003FFE0
FFFFE003FFE0
FFFFE003FFE0
FFFFF003FFE0
FFFFF003FFE0
FFFFF003FFE0
FFFFF803FFE0
FFFFF803FFE0
FFFFFC03FFE0
FFFFFC03FFE0
FFFFFE03FFE0
FFFFFE03FFE0
FFFFFF03FFE0
FFFFFF03FFE0
FFFFFF03FFE0
FFFFFF83FFE0
FFFFFF83FFE0
FFFFFFC3FFE0
FFFFFFC3FFE0
FFFFFFE3FFE0
FFFFFFE3FFE0
FFF8FFFFFFE0
FFF8FFFFFFE0
FFF87FFFFFE0
FFF87FFFFFE0
FFF83FFFFFE0
FFF83FFFFFE0
FFF81FFFFFE0
FFF81FFFFFE0
FFF81FFFFFE0
FFF80FFFFFE0
FFF80FFFFFE0
FFF807FFFFE0
FFF807FFFFE0
FFF803FFFFE0
FFF803FFFFE0
FFF801FFFFE0
FFF801FFFFE0
FFF801FFFFE0
FFF800FFFFE0
FFF800FFFFE0
FFF8007FFFE0
FFF8007FFFE0
FFF8003FFFC0
FFF8003FFFC0
FFF8001FFF80
FFF8001FFF00
FFF8001FFE00
FFF8000FFE00
FFF8000FFC00
FFF80007F800
FFF80007F800
ENDCHAR
STARTCHAR 004F
ENCODING 79
SWIDTH 618 0
DWIDTH 55 0
BBX 48 62 4 0
BITMAP
03FFFFFFFF80
07FFFFFFFFC0
07FFFFFFFFC0
0FFFFFFFFFE0
1FFFFFFFFFF0
1FFFFFFFFFF8
3FFFFFFFFFF8
7FFFFFFFFFFC
FFFFFFFFFFFE
FFFFFFFFFFFE
FFFFFFFFFFFF
FFFFFFFFFFFF
FFFFFFFFFFFF
FFFFFFFFFFFF
FFFE0000FFFF
FFFC00007FFF
FFF800003FFF
FFF800003FFF
FFF800003FFF
FFF800003FFF
FFF800003FFF
FFF800003FFF
FFF800003FFF
FFF800003FFF
FFF800003FFF
FFF800003FFF
FFF800003FFF
FFF800003FFF
FFF800003FFF
FFF800003FFF
FFF800003FFF
FFF800003FFF
FFF800003FFF
FFF800003FFF
FFF800003FFF
FFF800003FFF
FFF800003FFF
FFF800003FFF
FFF800003FFF
FFF800003FFF
FFF800003FFF
FFF800003FFF
FFF800003FFF
FFF800003FFF
FFF800003FFF
FFFC00007FFF
FFFC00007FFF
FFFE0000FFFF
FFFFFFFFFFFF
FFFFFFFFFFFF
FFFFFFFFFFFF
FFFFFFFFFFFF
FFFFFFFFFFFE
7FFFFFFFFFFE
7FFFFFFFFFFC
3FFFFFFFFFF8
1FFFFFFFFFF0
1FFFFFFFFFF0
0FFFFFFFFFE0
07FFFFFFFFC0
03FFFFFFFFC0
03FFFFFFFF80
ENDCHAR
STARTCHAR 0050
ENCODING 80
SWIDTH 540 0
DWIDTH 48 0
BBX 41 62 4 0
BITMAP
FFFFFFFFC000
FFFFFFFFE000
FFFFFFFFE000
FFFFFFFFF000
FFFFFFFFF800
FFFFFFFFFC00
FFFFFFFFFC00
FFFFFFFFFE00
FFFFFFFFFF00
FFFFFFFFFF00
FFFFFFFFFF80
FFFFFFFFFF80
FFFFFFFFFF80
FFFFFFFFFF80
FFF8007FFF80
FFF8003FFF80
FFF8001FFF80
FFF8001FFF80
FFF8001FFF80
FFF8001FFF80
FFF8001FFF80
FFF8001FFF80
FFF8001FFF80
FFF8001FFF80
FFF8001FFF80
FFF8003FFF80
FFF8003FFF80
FFF8007FFF80
FFFFFFFFFF80
FFFFFFFFFF80
FFFFFFFFFF80
FFFFFFFFFF80
FFFFFFFFFF00
FFFFFFFFFE00
FFFFFFFFFE00
FFFFFFFFFC00
FFFFFFFFF800
FFFFFFFFF000
FFFFFFFFF000
FFFFFFFFE000
FFFFFFFFC000
FFFFFFFFC000
FFF800000000
FFF800000000
FFF800000000
FFF800000000
FFF800000000
FFF800000000
FFF800000000
FFF800000000
FFF800000000
FFF800000000
FFF800000000
FFF800000000
FFF800000000
FFF800000000
FFF800000000
FFF800000000
FFF800000000
FFF800000000
FFF800000000
FFF800000000
ENDCHAR
STARTCHAR 0051
ENCODING 81
SWIDTH 652 0
DWIDTH 58 0
BBX 53 63 4 -1
BITMAP
03FFFFFFFF8000
07FFFFFFFFC000
07FFFFFFFFC000
0FFFFFFFFFE000
1FFFFFFFFFF000
1FFFFFFFFFF800
3FFFFFFFFFF800
7FFFFFFFFFFC00
FFFFFFFFFFFE00
FFFFFFFFFFFE00
FFFFFFFFFFFF00
FFFFFFFFFFFF00
FFFFFFFFFFFF00
FFFFFFFFFFFF00
FFFE0000FFFF00
FFFC00007FFF00
FFF800003FFF00
FFF800003FFF00
FFF800003FFF00
FFF800003FFF00
FFF800003FFF00
FFF800003FFF00
FFF800003FFF00
FFF800003FFF00
FFF800003FFF00
FFF800003FFF00
FFF800003FFF00
FFF800003FFF00
FFF800003FFF00
FFF800003FFF00
FFF800003FFF00
FFF800003FFF00
FFF800003FFF00
FFF800003FFF00
FFF800003FFF00
FFF800003FFF00
FFF800003FFF00
FFF800003FFF00
FFF800003FFF00
FFF800003FFF00
FFF800003FFF00
FFF800003FFF00
FFF800003FFF00
FFF800003FFF00
FFF800003FFF00
FFFC00007FFF00
FFFC00007FFF00
FFFE0000FFFFC0
FFFFFFFFFFFFF0
FFFFFFFFFFFFF8
FFFFFFFFFFFFF8
FFFFFFFFFFFFF8
FFFFFFFFFFFFF8
7FFFFFFFFFFFF8
7FFFFFFFFFFFF8
3FFFFFFFFFFFF8
1FFFFFFFFFFFF8
1FFFFFFFFFFFF0
0FFFFFFFFFFFE0
07FFFFFFFFFFE0
03FFFFFFFFDFC0
03FFFFFFFF8780
00000000000300
ENDCHAR
STARTCHAR 0052
ENCODING 82
SWIDTH 540 0
DWIDTH 48 0
BBX 42 62 4 0
BITMAP
FFFFFFFFC000
FFFFFFFFE000
FFFFFFFFE000
FFFFFFFFF000
FFFFFFFFF800
FFFFFFFFFC00
FFFFFFFFFC00
FFFFFFFFFE00
FFFFFFFFFF00
FFFFFFFFFF00
FFFFFFFFFF80
FFFFFFFFFF80
FFFFFFFFFF80
FFFFFFFFFF80
FFF8007FFF80
FFF8003FFF80
FFF8001FFF80
FFF8001FFF80
FFF8001FFF80
FFF8001FFF80
FFF8001FFF80
FFF8001FFF80
FFF8003FFF80
FFF8007FFF80
FFF8007FFF80
FFFFFFFFFF00
FFFFFFFFFE00
FFFFFFFFFE00
FFFFFFFFFC00
FFFFFFFFF800
FFFFFFFFF800
FFFFFFFFF000
FFFFFFFFE000
FFFFFFFFC000
FFFFFFFFC000
FFFFFFFFC000
FFFFFFFFC000
FFFFFFFFE000
FFFFFFFFE000
FFF807FFE000
FFF807FFF000
FFF807FFF000
FFF803FFF800
FFF803FFF800
FFF803FFFC00
FFF801FFFC00
FFF801FFFE00
FFF801FFFE00
FFF800FFFE00
FFF800FFFF00
FFF800FFFF00
FFF8007FFF80
FFF8007FFF80
FFF8003FFFC0
FFF8003FFFC0
FFF8003FFFC0
FFF8001FFFC0
FFF8001FFFC0
FFF8001FFFC0
FFF8000FFFC0
FFF8000FFFC0
FFF8000FFFC0
ENDCHAR
STARTCHAR 0053
ENCODING 83
SWIDTH 540 0
DWIDTH 48 0
BBX 41 62 4 0
BITMAP
7FFFFFFFC000
7FFFFFFFE000
FFFFFFFFE000
FFFFFFFFF000
FFFFFFFFF800
FFFFFFFFFC00
FFFFFFFFFC00
FFFFFFFFFE00
FFFFFFFFFF00
FFFFFFFFFF00
FFFFFFFFFF80
FFFFFFFFFF80
FFFFFFFFFF80
FFFFFFFFFF80
FFFC000FFF80
FFFE0007FF80
FFFF0007FF80
FFFF00000000
FFFF80000000
FFFFC0000000
7FFFE0000000
3FFFF0000000
1FFFF8000000
0FFFFC000000
07FFFE000000
03FFFF000000
01FFFF800000
00FFFFC00000
007FFFE00000
003FFFF00000
003FFFF80000
001FFFFC0000
000FFFFE0000
0007FFFF0000
0003FFFF8000
0001FFFFC000
0000FFFFE000
00007FFFF000
00003FFFF800
00001FFFFC00
00000FFFFE00
000007FFFF00
000003FFFF80
000001FFFF80
000000FFFF80
FFE0007FFF80
FFF0003FFF80
FFF8001FFF80
FFFFFFFFFF80
FFFFFFFFFF80
FFFFFFFFFF80
FFFFFFFFFF80
FFFFFFFFFF80
7FFFFFFFFF80
7FFFFFFFFF80
3FFFFFFFFF80
1FFFFFFFFF80
1FFFFFFFFF80
0FFFFFFFFF80
07FFFFFFFF00
03FFFFFFFE00
03FFFFFFFE00
ENDCHAR
STARTCHAR 0054
ENCODING 84
SWIDTH 528 0
DWIDTH 47 0
BBX 47 62 0 0
BITMAP
01FFFFFFFF80
03FFFFFFFF80
07FFFFFFFFC0
0FFFFFFFFFE0
0FFFFFFFFFE0
1FFFFFFFFFF0
3FFFFFFFFFF8
3FFFFFFFFFFC
7FFFFFFFFFFC
FFFFFFFFFFFE
FFFFFFFFFFFE
FFFF7FFDFFFE
FFFE7FFC7FFE
FFF87FFC3FFE
FFF07FFC1FFE
FFE07FFC07FE
FF807FFC03FE
FF007FFC01FE
00007FFC0000
00007FFC0000
00007FFC0000
00007FFC0000
00007FFC0000
00007FFC0000
00007FFC0000
00007FFC0000
00007FFC0000
00007FFC0000
00007FFC0000
00007FFC0000
00007FFC0000
00007FFC0000
00007FFC0000
00007FFC0000
00007FFC0000
00007FFC0000
00007FFC0000
00007FFC0000
00007FFC0000
00007FFC0000
00007FFC0000
00007FFC0000
00007FFC0000
00007FFC0000
00007FFC0000
00007FFC0000
00007FFC0000
00007FFC0000
00007FFC0000
00007FFC0000
00007FFC0000
00007FFC0000
00007FFC0000
00007FFC0000
00007FFC0000
00007FFC0000
00007FFC0000
00007FFC0000
00007FFC0000
00007FFC0000
00007FFC0000
00007FFC0000
ENDCHAR
STARTCHAR 0055
ENCODING 85
SWIDTH 607 0
DWIDTH 54 0
BBX 47 62 4 0
BITMAP
FFF800007FFE
FFF800007FFE
FFF800007FFE
FFF800007FFE
FFF800007FFE
FFF800007FFE
FFF800007FFE
FFF800007FFE
FFF800007FFE
FFF800007FFE
FFF800007FFE
FFF800007FFE
FFF800007FFE
FFF800007FFE
FFF800007FFE
FFF800007FFE
FFF800007FFE
FFF800007FFE
FFF800007FFE
FFF800007FFE
FFF800007FFE
FFF800007FFE
FFF800007FFE
FFF800007FFE
FFF800007FFE
FFF800007FFE
FFF800007FFE
FFF800007FFE
FFF800007FFE
FFF800007FFE
FFF800007FFE
FFF800007FFE
FFF800007FFE
FFF800007FFE
FFF800007FFE
FFF800007FFE
FFF800007FFE
FFF800007FFE
FFF800007FFE
FFF800007FFE
FFF800007FFE
FFF800007FFE
FFF800007FFE
FFF800007FFE
FFF800007FFE
FFFC00007FFE
FFFC0000FFFE
FFFE0001FFFE
FFFFFFFFFFFE
FFFFFFFFFFFE
FFFFFFFFFFFE
FFFFFFFFFFFE
FFFFFFFFFFFE
7FFFFFFFFFFC
7FFFFFFFFFF8
3FFFFFFFFFF0
1FFFFFFFFFF0
1FFFFFFFFFE0
0FFFFFFFFFC0
07FFFFFFFFC0
03FFFFFFFF80
03FFFFFFFF00
ENDCHAR
STARTCHAR 0056
ENCODING 86
SWIDTH 573 0
DWIDTH 51 0
BBX 50 62 1 0
BITMAP
FFF800000FFFC0
FFFC00000FFF80
FFFC00000FFF80
FFFC00001FFF80
FFFC00001FFF80
7FFC00001FFF80
7FFC00001FFF00
7FFC00001FFF00
7FFE00001FFF00
7FFE00003FFF00
3FFE00003FFF00
3FFE00003FFE00
3FFE00003FFE00
3FFE00003FFE00
3FFF00003FFE00
1FFF00003FFE00
1FFF00007FFC00
1FFF00007FFC00
1FFF00007FFC00
1FFF00007FFC00
0FFF00007FFC00
0FFF80007FF800
0FFF8000FFF800
0FFF8000FFF800
0FFF8000FFF800
07FF8000FFF800
07FF8000FFF000
07FFC000FFF000
07FFC001FFF000
07FFC001FFF000
03FFC001FFF000
03FFC001FFE000
03FFC001FFE000
03FFC001FFE000
03FFE001FFE000
01FFE003FFE000
01FFE003FFC000
01FFE003FFC000
01FFE003FFC000
01FFE003FFC000
00FFF003FFC000
00FFF007FF8000
00FFF007FF8000
00FFF007FF8000
00FFF007FF8000
007FF007FF8000
007FF007FF0000
007FF807FF0000
007FFFFFFF0000
007FFFFFFF0000
003FFFFFFF0000
003FFFFFFE0000
003FFFFFFE0000
003FFFFFFE0000
003FFFFFFE0000
001FFFFFFE0000
001FFFFFFC0000
001FFFFFFC0000
001FFFFFFC0000
000FFFFFFC0000
000FFFFFF80000
0007FFFFF00000
ENDCHAR
STARTCHAR 0057
ENCODING 87
SWIDTH 877 0
DWIDTH 78 0
BBX 71 62 4 0
BITMAP
FFF800000000007FFE
FFFC00000000007FFE
FFFC00000000007FFE
FFFC0000000000FFFE
FFFC0000000000FFFE
FFFC0000000000FFFE
FFFE0000000000FFFE
FFFE0000000000FFFE
FFFE0000000000FFFC
FFFE0000000001FFFC
FFFE0000000001FFFC
7FFF0000000001FFFC
7FFF0000000001FFFC
7FFF0000000001FFF8
7FFF0000000001FFF8
7FFF0000000003FFF8
3FFF0000000003FFF8
3FFF8000000003FFF8
3FFF8007FFC003FFF0
3FFF8007FFC003FFF0
3FFF800FFFE007FFF0
1FFF800FFFE007FFF0
1FFFC01FFFF007FFF0
1FFFC01FFFF007FFE0
1FFFC01FFFF007FFE0
0FFFC01FFFF007FFE0
0FFFC03FFFF80FFFE0
0FFFC03FFFF80FFFE0
0FFFE03FFFF80FFFC0
0FFFE03FFFF80FFFC0
07FFE07FFFFC0FFFC0
07FFE07FEFFC0FFFC0
07FFE07FEFFC1FFFC0
07FFF07FEFFC1FFF80
07FFF0FFC7FE1FFF80
03FFF0FFC7FE1FFF80
03FFF0FFC7FE1FFF80
03FFF0FFC7FE1FFF80
03FFF9FFC7FF3FFF00
01FFF9FF83FF3FFF00
01FFFFFF83FFFFFF00
01FFFFFF83FFFFFF00
01FFFFFF83FFFFFF00
01FFFFFF81FFFFFE00
00FFFFFF01FFFFFE00
00FFFFFF01FFFFFE00
00FFFFFF01FFFFFE00
00FFFFFF01FFFFFE00
00FFFFFF00FFFFFC00
007FFFFE00FFFFFC00
007FFFFE00FFFFFC00
007FFFFE00FFFFFC00
007FFFFE00FFFFFC00
003FFFFC007FFFF800
003FFFFC007FFFF800
003FFFFC007FFFF800
003FFFFC007FFFF800
003FFFFC007FFFF800
001FFFF8003FFFF000
001FFFF8003FFFF000
001FFFF8003FFFF000
001FFFF8003FFFF000
ENDCHAR
STARTCHAR 0058
ENCODING 88
SWIDTH 607 0
DWIDTH 54 0
BBX 47 62 4 0
BITMAP
FFF800007FFE
FFFC00007FFE
FFFC00007FFE
FFFC0000FFFE
FFFE0000FFFE
FFFE0001FFFE
FFFF0001FFFE
FFFF0003FFFE
FFFF0003FFFC
7FFF8003FFFC
7FFF8007FFF8
3FFFC007FFF8
3FFFC00FFFF0
1FFFE00FFFF0
1FFFE01FFFE0
0FFFE01FFFE0
0FFFF01FFFC0
07FFF03FFFC0
07FFF83FFF80
03FFF87FFF80
03FFF87FFF00
01FFFCFFFF00
01FFFCFFFE00
00FFFEFFFE00
00FFFFFFFC00
007FFFFFFC00
007FFFFFF800
003FFFFFF800
003FFFFFF000
003FFFFFF000
003FFFFFF800
003FFFFFF800
007FFFFFFC00
007FFFFFFC00
00FFFFFFFC00
00FFFFFFFE00
01FFFFFFFE00
01FFFFFFFF00
01FFFEFFFF00
03FFFCFFFF80
03FFFC7FFF80
07FFF87FFF80
07FFF87FFFC0
0FFFF03FFFC0
0FFFF03FFFE0
0FFFF01FFFE0
1FFFE01FFFE0
1FFFE00FFFF0
3FFFC00FFFF0
3FFFC00FFFF8
7FFFC007FFF8
7FFF8007FFFC
7FFF8003FFFC
FFFF0003FFFC
FFFF0001FFFE
FFFF0001FFFE
FFFE0001FFFE
FFFE0000FFFE
FFFC0000FFFE
FFFC00007FFE
FFFC00007FFE
FFF800003FFE
ENDCHAR
STARTCHAR 0059
ENCODING 89
SWIDTH 461 0
DWIDTH 41 0
BBX 41 62 0 0
BITMAP
FFF80007FF80
FFF8000FFF80
FFFC000FFF80
FFFC000FFF80
FFFE001FFF80
FFFE001FFF80
FFFE001FFF80
7FFF003FFF80
7FFF003FFF80
3FFF003FFF00
3FFF807FFF00
1FFF807FFE00
1FFF807FFE00
1FFFC0FFFC00
0FFFC0FFFC00
0FFFC0FFFC00
07FFE1FFF800
07FFE1FFF800
03FFE1FFF000
03FFF3FFF000
01FFF3FFE000
01FFF3FFE000
01FFFFFFC000
00FFFFFFC000
00FFFFFFC000
007FFFFF8000
007FFFFF8000
003FFFFF0000
003FFFFF0000
001FFFFE0000
001FFFFE0000
001FFFFE0000
000FFFFC0000
000FFFFC0000
0007FFF80000
0007FFF80000
0003FFF00000
0003FFF00000
0003FFF00000
0003FFF00000
0003FFF00000
0003FFF00000
0003FFF00000
0003FFF00000
0003FFF00000
0003FFF00000
0003FFF00000
0003FFF00000
0003FFF00000
0003FFF00000
0003FFF00000
0003FFF00000
0003FFF00000
0003FFF00000
0003FFF00000
0003FFF00000
0003FFF00000
0003FFF00000
0003FFF00000
0003FFF00000
0003FFF00000
0003FFF00000
ENDCHAR
STARTCHAR 005A
ENCODING 90
SWIDTH 562 0
DWIDTH 50 0
BBX 43 62 4 0
BITMAP
FFFFFFFFF000
FFFFFFFFF800
FFFFFFFFFC00
FFFFFFFFFC00
FFFFFFFFFE00
FFFFFFFFFF00
FFFFFFFFFF80
FFFFFFFFFF80
FFFFFFFFFFC0
FFFFFFFFFFE0
FFFFFFFFFFC0
FFFFFFFFFFC0
7FFFFFFFFF80
3FFFFFFFFF80
000001FFFF00
000003FFFE00
000007FFFE00
000007FFFC00
00000FFFFC00
00001FFFF800
00001FFFF000
00003FFFF000
00003FFFE000
00007FFFE000
0000FFFFC000
0000FFFF8000
0001FFFF8000
0001FFFF0000
0003FFFE0000
0007FFFE0000
0007FFFC0000
000FFFFC0000
000FFFF80000
001FFFF00000
003FFFF00000
003FFFE00000
007FFFE00000
00FFFFC00000
00FFFF800000
01FFFF800000
01FFFF000000
03FFFE000000
07FFFE000000
07FFFC000000
0FFFFC000000
0FFFF8000000
1FFFF0000000
3FFFF0000000
3FFFFFFFFF80
7FFFFFFFFFC0
7FFFFFFFFFC0
FFFFFFFFFFE0
FFFFFFFFFFE0
7FFFFFFFFFE0
7FFFFFFFFFE0
3FFFFFFFFFE0
1FFFFFFFFFE0
1FFFFFFFFFE0
0FFFFFFFFFE0
07FFFFFFFFE0
03FFFFFFFFE0
03FFFFFFFFE0
ENDCHAR
STARTCHAR 005B
ENCODING 91
SWIDTH 236 0
DWIDTH 21 0
BBX 18 70 2 -4
BITMAP
FFFFC0
FFFFC0
FFFFC0
FFFFC0
FFFFC0
FFFFC0
FFFFC0
FFFF80
FFFF00
FF8000
FF8000
FF8000
FF8000
FF8000
FF8000
FF8000
FF8000
FF8000
FF8000
FF8000
FF8000
FF8000
FF8000
FF8000
FF8000
FF8000
FF8000
FF8000
FF8000
FF8000
FF8000
FF8000
FF8000
FF8000
FF8000
FF8000
FF8000
FF8000
FF8000
FF8000
FF8000
FF8000
FF8000
FF8000
FF8000
FF8000
FF8000
FF8000
FF8000
FF8000
FF8000
FF8000
FF8000
FF8000
FF8000
FF8000
FF8000
FF8000
FF8000
FF8000
FF8000
FF8000
FFFF80
FFFF80
FFFFC0
FFFFC0
FFFFC0
FFFFC0
FFFFC0
FFFFC0
ENDCHAR
STARTCHAR 005C
ENCODING 92
SWIDTH 258 0
DWIDTH 23 0
BBX 27 71 -2 -4
BITMAP
FF800000
FF800000
FF800000
FF800000
7FC00000
7FC00000
7FC00000
7FE00000
3FE00000
3FE00000
3FE00000
3FF00000
1FF00000
1FF00000
1FF00000
0FF80000
0FF80000
0FF80000
0FF80000
07FC0000
07FC0000
07FC0000
07FE0000
03FE0000
03FE0000
03FE0000
03FF0000
01FF0000
01FF0000
01FF0000
01FF8000
00FF8000
00FF8000
00FF8000
00FFC000
007FC000
007FC000
007FE000
003FE000
003FE000
003FE000
003FF000
001FF000
001FF000
001FF000
001FF800
000FF800
000FF800
000FF800
000FFC00
0007FC00
0007FC00
0007FE00
0007FE00
0003FE00
0003FE00
0003FF00
0001FF00
0001FF00
0001FF00
0001FF80
0000FF80
0000FF80
0000FF80
0000FFC0
00007FC0
00007FC0
00007FE0
00007FE0
00003FE0
00003FE0
ENDCHAR
STARTCHAR 005D
ENCODING 93
SWIDTH 236 0
DWIDTH 21 0
BBX 18 70 2 -4
BITMAP
FFFFC0
FFFFC0
FFFFC0
FFFFC0
FFFFC0
FFFFC0
FFFFC0
7FFFC0
7FFFC0
007FC0
007FC0
007FC0
007FC0
007FC0
007FC0
007FC0
007FC0
007FC0
007FC0
007FC0
007FC0
007FC0
007FC0
007FC0
007FC0
007FC0
007FC0
007FC0
007FC0
007FC0
007FC0
007FC0
007FC0
007FC0
007FC0
007FC0
007FC0
007FC0
007FC0
007FC0
007FC0
007FC0
007FC0
007FC0
007FC0
007FC0
007FC0
007FC0
007FC0
007FC0
007FC0
007FC0
007FC0
007FC0
007FC0
007FC0
007FC0
007FC0
007FC0
007FC0
007FC0
007FC0
7FFFC0
7FFFC0
FFFFC0
FFFFC0
FFFFC0
FFFFC0
FFFFC0
FFFFC0
ENDCHAR
STARTCHAR 005E
ENCODING 94
SWIDTH 585 0
DWIDTH 52 0
BBX 48 31 2 31
BITMAP
0000FFFF0000
0000FFFF8000
0001FFFF8000
0001FFFFC000
0003FFFFC000
0003FFFFE000
0007FFFFE000
0007FFFFF000
000FFFFFF000
001FFC3FF800
001FFC3FF800
003FF81FFC00
003FF81FFC00
007FF00FFE00
007FF00FFE00
00FFE007FF00
00FFE007FF80
01FFC003FF80
01FFC003FFC0
03FFC001FFC0
03FF8001FFE0
07FF8000FFE0
07FF0000FFF0
0FFF00007FF0
1FFE00007FF8
1FFC00003FF8
3FFC00003FFC
3FF800001FFC
7FF800001FFE
7FF000000FFF
FFF000000FFF
ENDCHAR
STARTCHAR 005F
ENCODING 95
SWIDTH 427 0
DWIDTH 38 0
BBX 34 9 2 0
BITMAP
FFFFFFFFC0
FFFFFFFFC0
FFFFFFFFC0
FFFFFFFFC0
FFFFFFFFC0
FFFFFFFFC0
FFFFFFFFC0
FFFFFFFFC0
FFFFFFFFC0
ENDCHAR
STARTCHAR 0060
ENCODING 96
SWIDTH 393 0
DWIDTH 35 0
BBX 32 9 2 66
BITMAP
FF000000
FFF80000
FFFF8000
FFFFFC00
FFFFFFE0
FFFFFFFF
3FFFFFFF
03FFFFFF
00001FFF
ENDCHAR
STARTCHAR 0061
ENCODING 97
SWIDTH 585 0
DWIDTH 52 0
BBX 50 62 1 0
BITMAP
0007FFFFF80000
0007FFFFF80000
000FFFFFFC0000
000FFFFFFE0000
001FFFFFFE0000
001FFFFFFE0000
001FFFFFFE0000
001FFFFFFE0000
001FFFFFFF0000
003FFFFFFF0000
003FFFFFFF0000
003FFFFFFF0000
003FFFFFFF0000
003FFFFFFF8000
007FF807FF8000
007FF807FF8000
007FF807FF8000
007FF807FF8000
007FF003FFC000
00FFF003FFC000
00FFF003FFC000
00FFF003FFC000
00FFF003FFC000
00FFF003FFE000
01FFE001FFE000
01FFE001FFE000
01FFE001FFE000
01FFE001FFE000
01FFE001FFF000
03FFE001FFF000
03FFE001FFF000
03FFC000FFF000
03FFC000FFF000
03FFC000FFF800
07FFC000FFF800
07FFC000FFF800
07FFC000FFF800
07FFC000FFF800
07FFE001FFFC00
0FFFF003FFFC00
0FFFFFFFFFFC00
0FFFFFFFFFFC00
0FFFFFFFFFFC00
0FFFFFFFFFFE00
1FFFFFFFFFFE00
1FFFFFFFFFFE00
1FFFFFFFFFFE00
1FFF7FFFBFFE00
1FFF3FFF3FFF00
3FFF00003FFF00
3FFF00003FFF00
3FFE00001FFF00
3FFE00001FFF00
3FFE00001FFF80
7FFE00001FFF80
7FFE00001FFF80
7FFE00001FFF80
7FFC00000FFF80
7FFC00000FFFC0
FFFC00000FFFC0
FFFC00000FFFC0
FFFC00000FFFC0
ENDCHAR
STARTCHAR 0062
ENCODING 98
SWIDTH 573 0
DWIDTH 51 0
BBX 44 62 4 0
BITMAP
FFFFFFFFF800
FFFFFFFFFC00
FFFFFFFFFE00
FFFFFFFFFF00
FFFFFFFFFF00
FFFFFFFFFF80
FFFFFFFFFFC0
FFFFFFFFFFC0
FFFFFFFFFFE0
FFFFFFFFFFF0
FFFFFFFFFFF0
FFFFFFFFFFF0
FFF80007FFF0
FFF80007FFF0
FFF80003FFF0
FFF80003FFF0
FFF80003FFF0
FFF80003FFF0
FFF80003FFF0
FFF80003FFF0
FFF80003FFF0
FFF80003FFF0
FFF80003FFF0
FFF80007FFF0
FFF8000FFFF0
FFFFFFFFFFF0
FFFFFFFFFFE0
FFFFFFFFFFC0
FFFFFFFFFF80
FFFFFFFFFF00
FFFFFFFFFE00
FFFFFFFFFF80
FFFFFFFFFFC0
FFFFFFFFFFE0
FFFFFFFFFFF0
FFFFFFFFFFF0
FFFFFFFFFFF0
FFF8000FFFF0
FFF80007FFF0
FFF80003FFF0
FFF80003FFF0
FFF80003FFF0
FFF80003FFF0
FFF80003FFF0
FFF80003FFF0
FFF80003FFF0
FFF80003FFF0
FFF80003FFF0
FFF80007FFF0
FFF8000FFFF0
FFFFFFFFFFF0
FFFFFFFFFFF0
FFFFFFFFFFF0
FFFFFFFFFFE0
FFFFFFFFFFC0
FFFFFFFFFFC0
FFFFFFFFFF80
FFFFFFFFFF00
FFFFFFFFFE00
FFFFFFFFFE00
FFFFFFFFFC00
FFFFFFFFF800
ENDCHAR
STARTCHAR 0063
ENCODING 99
SWIDTH 540 0
DWIDTH 48 0
BBX 41 62 4 0
BITMAP
FFFFFFFFC000
FFFFFFFFE000
FFFFFFFFF000
FFFFFFFFF800
FFFFFFFFF800
FFFFFFFFFC00
FFFFFFFFFE00
FFFFFFFFFE00
FFFFFFFFFF00
FFFFFFFFFF80
FFFFFFFFFF80
FFFFFFFFFF80
FFFFFFFFFF80
FFFFFFFFFF80
FFF8003FFF80
FFF8001FFF80
FFF8000FFF80
FFF800000000
FFF800000000
FFF800000000
FFF800000000
FFF800000000
FFF800000000
FFF800000000
FFF800000000
FFF800000000
FFF800000000
FFF800000000
FFF800000000
FFF800000000
FFF800000000
FFF800000000
FFF800000000
FFF800000000
FFF800000000
FFF800000000
FFF800000000
FFF800000000
FFF800000000
FFF800000000
FFF800000000
FFF800000000
FFF800000000
FFF800000000
FFF800000000
FFF8000FFF80
FFF8001FFF80
FFF8003FFF80
FFFFFFFFFF80
FFFFFFFFFF80
FFFFFFFFFF80
FFFFFFFFFF80
FFFFFFFFFF80
FFFFFFFFFF00
FFFFFFFFFE00
FFFFFFFFFE00
FFFFFFFFFC00
FFFFFFFFF800
FFFFFFFFF000
FFFFFFFFF000
FFFFFFFFE000
FFFFFFFFC000
ENDCHAR
STARTCHAR 0064
ENCODING 100
SWIDTH 573 0
DWIDTH 51 0
BBX 44 62 4 0
BITMAP
FFFFFFFFF800
FFFFFFFFFC00
FFFFFFFFFE00
FFFFFFFFFF00
FFFFFFFFFF00
FFFFFFFFFF80
FFFFFFFFFFC0
FFFFFFFFFFC0
FFFFFFFFFFE0
FFFFFFFFFFF0
FFFFFFFFFFF0
FFFFFFFFFFF0
FFFFFFFFFFF0
FFFFFFFFFFF0
FFF80007FFF0
FFF80007FFF0
FFF80003FFF0
FFF80003FFF0
FFF80003FFF0
FFF80003FFF0
FFF80003FFF0
FFF80003FFF0
FFF80003FFF0
FFF80003FFF0
FFF80003FFF0
FFF80003FFF0
FFF80003FFF0
FFF80003FFF0
FFF80003FFF0
FFF80003FFF0
FFF80003FFF0
FFF80003FFF0
FFF80003FFF0
FFF80003FFF0
FFF80003FFF0
FFF80003FFF0
FFF80003FFF0
FFF80003FFF0
FFF80003FFF0
FFF80003FFF0
FFF80003FFF0
FFF80003FFF0
FFF80003FFF0
FFF80003FFF0
FFF80003FFF0
FFF80003FFF0
FFF80007FFF0
FFF8000FFFF0
FFFFFFFFFFF0
FFFFFFFFFFF0
FFFFFFFFFFF0
FFFFFFFFFFF0
FFFFFFFFFFF0
FFFFFFFFFFE0
FFFFFFFFFFC0
FFFFFFFFFFC0
FFFFFFFFFF80
FFFFFFFFFF00
FFFFFFFFFE00
FFFFFFFFFE00
FFFFFFFFFC00
FFFFFFFFF800
ENDCHAR
STARTCHAR 0065
ENCODING 101
SWIDTH 540 0
DWIDTH 48 0
BBX 41 62 4 0
BITMAP
FFFFFFFFC000
FFFFFFFFE000
FFFFFFFFF000
FFFFFFFFF000
FFFFFFFFF800
FFFFFFFFFC00
FFFFFFFFFC00
FFFFFFFFFE00
FFFFFFFFFF00
FFFFFFFFFF80
FFFFFFFFFF80
FFFFFFFFFF80
FFFFFFFFFF80
FFFFFFFFFF80
FFF8000FFF80
FFF80007FF80
FFF80003FF80
FFF800000000
FFF800000000
FFF800000000
FFF800000000
FFF800000000
FFF800000000
FFF800000000
FFF800000000
FFF800000000
FFFFFFFC0000
FFFFFFFC0000
FFFFFFFC0000
FFFFFFFC0000
FFFFFFFC0000
FFFFFFFC0000
FFFFFFFC0000
FFFFFFFC0000
FFFFFFFC0000
FFFFFFFC0000
FFF800000000
FFF800000000
FFF800000000
FFF800000000
FFF800000000
FFF800000000
FFF800000000
FFF800000000
FFF800000000
FFF80003FF80
FFF80007FF80
FFF8000FFF80
FFFFFFFFFF80
FFFFFFFFFF80
FFFFFFFFFF80
FFFFFFFFFF80
FFFFFFFFFF00
FFFFFFFFFF00
FFFFFFFFFE00
FFFFFFFFFC00
FFFFFFFFFC00
FFFFFFFFF800
FFFFFFFFF000
FFFFFFFFE000
FFFFFFFFE000
FFFFFFFFC000
ENDCHAR
STARTCHAR 0066
ENCODING 102
SWIDTH 506 0
DWIDTH 45 0
BBX 38 62 4 0
BITMAP
FFFFFFFF80
FFFFFFFFC0
FFFFFFFFC0
FFFFFFFFE0
FFFFFFFFE0
FFFFFFFFF0
FFFFFFFFF0
FFFFFFFFF8
FFFFFFFFF8
FFFFFFFFFC
FFFFFFFFFC
FFFFFFFFFC
FFFFFFFFFC
FFFFFFFFFC
FFF8003FFC
FFF8001FFC
FFF8000FFC
FFF8000000
FFF8000000
FFF8000000
FFF8000000
FFF8000000
FFF8000000
FFF8000000
FFF8000000
FFF8000000
FFF8000000
FFF8000000
FFFFFFFF80
FFFFFFFF80
FFFFFFFF80
FFFFFFFF80
FFFFFFFF80
FFFFFFFF80
FFFFFFFF80
FFFFFFFF80
FFFFFFFF80
FFFFFFFF80
FFFFFFFF80
FFFFFFFF80
FFF8000000
FFF8000000
FFF8000000
FFF8000000
FFF8000000
FFF8000000
FFF8000000
FFF8000000
FFF8000000
FFF8000000
FFF8000000
FFF8000000
FFF8000000
FFF8000000
FFF8000000
FFF8000000
FFF8000000
FFF8000000
FFF8000000
FFF8000000
FFF8000000
FFF8000000
ENDCHAR
STARTCHAR 0067
ENCODING 103
SWIDTH 551 0
DWIDTH 49 0
BBX 42 62 4 0
BITMAP
FFFFFFFFE000
FFFFFFFFF000
FFFFFFFFF800
FFFFFFFFF800
FFFFFFFFFC00
FFFFFFFFFE00
FFFFFFFFFE00
FFFFFFFFFF00
FFFFFFFFFF80
FFFFFFFFFFC0
FFFFFFFFFFC0
FFFFFFFFFFC0
FFFFFFFFFFC0
FFFFFFFFFFC0
FFF80007FFC0
FFF80007FFC0
FFF80003FFC0
FFF800000000
FFF800000000
FFF800000000
FFF800000000
FFF800000000
FFF800000000
FFF800000000
FFF800000000
FFF800000000
FFF80FFFFFC0
FFF80FFFFFC0
FFF80FFFFFC0
FFF80FFFFFC0
FFF80FFFFFC0
FFF80FFFFFC0
FFF80FFFFFC0
FFF80FFFFFC0
FFF80FFFFFC0
FFF80FFFFFC0
FFF80FFFFFC0
FFF80FFFFFC0
FFF80FFFFFC0
FFF80FFFFFC0
FFF8000FFFC0
FFF8000FFFC0
FFF8000FFFC0
FFF8000FFFC0
FFF8000FFFC0
FFF8000FFFC0
FFF8000FFFC0
FFF8000FFFC0
FFFFFFFFFFC0
FFFFFFFFFFC0
FFFFFFFFFFC0
FFFFFFFFFFC0
FFFFFFFFFFC0
FFFFFFFFFFC0
FFFFFFFFFFC0
FFFFFFFFFFC0
FFFFFFFFFFC0
FFFFFFFFFFC0
FFFFFFFFFFC0
FFFFFFFF7FC0
FFFFFFFF3FC0
FFFFFFFE1FC0
ENDCHAR
STARTCHAR 0068
ENCODING 104
SWIDTH 573 0
DWIDTH 51 0
BBX 44 62 4 0
BITMAP
FFF80003FFF0
FFF80003FFF0
FFF80003FFF0
FFF80003FFF0
FFF80003FFF0
FFF80003FFF0
FFF80003FFF0
FFF80003FFF0
FFF80003FFF0
FFF80003FFF0
FFF80003FFF0
FFF80003FFF0
FFF80003FFF0
FFF80003FFF0
FFF80003FFF0
FFF80003FFF0
FFF80003FFF0
FFF80003FFF0
FFF80003FFF0
FFF80003FFF0
FFFC0003FFF0
FFFE0007FFF0
FFFE000FFFF0
FFFFFFFFFFF0
FFFFFFFFFFF0
FFFFFFFFFFF0
FFFFFFFFFFF0
FFFFFFFFFFF0
FFFFFFFFFFF0
FFFFFFFFFFF0
FFFFFFFFFFF0
FFFFFFFFFFF0
FFFFFFFFFFF0
FFFFFFFFFFF0
FFFFFFFFFFF0
FFFFFFFFFFF0
FFFFFFFFFFF0
FFFE0007FFF0
FFFC0007FFF0
FFFC0003FFF0
FFF80003FFF0
FFF80003FFF0
FFF80003FFF0
FFF80003FFF0
FFF80003FFF0
FFF80003FFF0
FFF80003FFF0
FFF80003FFF0
FFF80003FFF0
FFF80003FFF0
FFF80003FFF0
FFF80003FFF0
FFF80003FFF0
FFF80003FFF0
FFF80003FFF0
FFF80003FFF0
FFF80003FFF0
FFF80003FFF0
FFF80003FFF0
FFF80003FFF0
FFF80003FFF0
FFF80003FFF0
ENDCHAR
STARTCHAR 0069
ENCODING 105
SWIDTH 225 0
DWIDTH 20 0
BBX 13 62 4 0
BITMAP
FFF8
FFF8
FFF8
FFF8
FFF8
FFF8
FFF8
FFF8
FFF8
FFF8
FFF8
FFF8
FFF8
FFF8
FFF8
FFF8
FFF8
FFF8
FFF8
FFF8
FFF8
FFF8
FFF8
FFF8
FFF8
FFF8
FFF8
FFF8
FFF8
FFF8
FFF8
FFF8
FFF8
FFF8
FFF8
FFF8
FFF8
FFF8
FFF8
FFF8
FFF8
FFF8
FFF8
FFF8
FFF8
FFF8
FFF8
FFF8
FFF8
FFF8
FFF8
FFF8
FFF8
FFF8
FFF8
FFF8
FFF8
FFF8
FFF8
FFF8
FFF8
FFF8
ENDCHAR
STARTCHAR 006A
ENCODING 106
SWIDTH 506 0
DWIDTH 45 0
BBX 38 62 4 0
BITMAP
03FFFFFFFC
03FFFFFFFC
03FFFFFFFC
03FFFFFFFC
03FFFFFFFC
03FFFFFFFC
03FFFFFFFC
03FFFFFFFC
03FFFFFFFC
03FFFFFFFC
03FFFFFFFC
03FFFFFFFC
03FFFFFFFC
03FFFFFFFC
000000FFFC
000000FFFC
000000FFFC
000000FFFC
000000FFFC
000000FFFC
000000FFFC
000000FFFC
000000FFFC
000000FFFC
000000FFFC
000000FFFC
000000FFFC
000000FFFC
000000FFFC
000000FFFC
000000FFFC
000000FFFC
000000FFFC
000000FFFC
000000FFFC
000000FFFC
000000FFFC
000000FFFC
000000FFFC
000000FFFC
000000FFFC
000000FFFC
000000FFFC
000000FFFC
000000FFFC
FFFC00FFFC
FFFC00FFFC
FFFE00FFFC
FFFFFFFFFC
FFFFFFFFFC
FFFFFFFFFC
FFFFFFFFFC
FFFFFFFFFC
7FFFFFFFFC
7FFFFFFFFC
3FFFFFFFFC
1FFFFFFFFC
1FFFFFFFFC
0FFFFFFFFC
07FFFFFFFC
03FFFFFFFC
03FFFFFFFC
ENDCHAR
STARTCHAR 006B
ENCODING 107
SWIDTH 573 0
DWIDTH 51 0
BBX 44 62 4 0
BITMAP
FFF80007FFF0
FFF80007FFF0
FFF8000FFFF0
FFF8001FFFF0
FFF8001FFFF0
FFF8003FFFF0
FFF8007FFFF0
FFF8007FFFE0
FFF800FFFFC0
FFF801FFFFC0
FFF801FFFF80
FFF803FFFF00
FFF807FFFE00
FFF807FFFE00
FFF80FFFFC00
FFF81FFFF800
FFF81FFFF000
FFF83FFFF000
FFF87FFFE000
FFF8FFFFC000
FFF8FFFFC000
FFF9FFFF8000
FFFBFFFF0000
FFFBFFFE0000
FFFFFFFE0000
FFFFFFFC0000
FFFFFFF80000
FFFFFFF00000
FFFFFFF00000
FFFFFFE00000
FFFFFFC00000
FFFFFFC00000
FFFFFFE00000
FFFFFFF00000
FFFFFFF00000
FFFFFFF80000
FFFFFFFC0000
FFFFFFFE0000
FFFBFFFE0000
FFF9FFFF0000
FFF9FFFF8000
FFF8FFFF8000
FFF87FFFC000
FFF87FFFE000
FFF83FFFF000
FFF81FFFF000
FFF80FFFF800
FFF80FFFFC00
FFF807FFFE00
FFF803FFFE00
FFF803FFFF00
FFF801FFFF80
FFF800FFFFC0
FFF800FFFFC0
FFF8007FFFE0
FFF8003FFFF0
FFF8001FFFF0
FFF8001FFFF0
FFF8000FFFF0
FFF80007FFF0
FFF80007FFF0
FFF80003FFF0
ENDCHAR
STARTCHAR 006C
ENCODING 108
SWIDTH 405 0
DWIDTH 36 0
BBX 33 62 4 0
BITMAP
FFF8000000
FFF8000000
FFF8000000
FFF8000000
FFF8000000
FFF8000000
FFF8000000
FFF8000000
FFF8000000
FFF8000000
FFF8000000
FFF8000000
FFF8000000
FFF8000000
FFF8000000
FFF8000000
FFF8000000
FFF8000000
FFF8000000
FFF8000000
FFF8000000
FFF8000000
FFF8000000
FFF8000000
FFF8000000
FFF8000000
FFF8000000
FFF8000000
FFF8000000
FFF8000000
FFF8000000
FFF8000000
FFF8000000
FFF8000000
FFF8000000
FFF8000000
FFF8000000
FFF8000000
FFF8000000
FFF8000000
FFF8000000
FFF8000000
FFF8000000
FFF8000000
FFF8000000
FFFC000000
FFFC000000
FFFE000000
FFFFFFFF80
FFFFFFFF80
FFFFFFFF80
FFFFFFFF80
FFFFFFFF80
FFFFFFFF00
FFFFFFFE00
FFFFFFFC00
FFFFFFFC00
FFFFFFF800
FFFFFFF000
FFFFFFF000
FFFFFFE000
FFFFFFC000
ENDCHAR
STARTCHAR 006D
ENCODING 109
SWIDTH 686 0
DWIDTH 61 0
BBX 54 62 4 0
BITMAP
03FFFC00FFFF00
07FFFC00FFFF00
07FFFC00FFFF80
0FFFFC00FFFFC0
1FFFFC00FFFFC0
1FFFFC01FFFFE0
3FFFFE01FFFFF0
7FFFFE01FFFFF8
FFFFFE01FFFFF8
FFFFFE01FFFFFC
FFFFFE01FFFFFC
FFFFFE03FFFFFC
FFFFFE03FFFFFC
FFFFFF03FFFFFC
FFFFFF03FFFFFC
FFFFFF03FFFFFC
FFFFFF03FFFFFC
FFFFFF03FFFFFC
FFFFFF07FFFFFC
FFFFFF87FFFFFC
FFF8FF87FCFFFC
FFF8FF87FCFFFC
FFF8FF87FCFFFC
FFF8FF87FCFFFC
FFF8FF8FFCFFFC
FFF8FF8FF8FFFC
FFF87FCFF8FFFC
FFF87FCFF8FFFC
FFF87FCFF8FFFC
FFF87FCFF8FFFC
FFF87FCFF8FFFC
FFF87FDFF0FFFC
FFF87FFFF0FFFC
FFF83FFFF0FFFC
FFF83FFFF0FFFC
FFF83FFFF0FFFC
FFF83FFFF0FFFC
FFF83FFFF0FFFC
FFF83FFFE0FFFC
FFF81FFFE0FFFC
FFF81FFFE0FFFC
FFF81FFFE0FFFC
FFF81FFFE0FFFC
FFF81FFFE0FFFC
FFF81FFFC0FFFC
FFF80FFFC0FFFC
FFF807FF80FFFC
FFF8000000FFFC
FFF8000000FFFC
FFF8000000FFFC
FFF8000000FFFC
FFF8000000FFFC
FFF8000000FFFC
FFF8000000FFFC
FFF8000000FFFC
FFF8000000FFFC
FFF8000000FFFC
FFF8000000FFFC
FFF8000000FFFC
FFF8000000FFFC
FFF8000000FFFC
FFF8000000FFFC
ENDCHAR
STARTCHAR 006E
ENCODING 110
SWIDTH 562 0
DWIDTH 50 0
BBX 43 62 4 0
BITMAP
03FC0003FFE0
07FC0003FFE0
07FE0003FFE0
0FFE0003FFE0
1FFE0003FFE0
1FFF0003FFE0
3FFF0003FFE0
7FFF8003FFE0
FFFF8003FFE0
FFFFC003FFE0
FFFFC003FFE0
FFFFE003FFE0
FFFFE003FFE0
FFFFF003FFE0
FFFFF003FFE0
FFFFF003FFE0
FFFFF803FFE0
FFFFF803FFE0
FFFFFC03FFE0
FFFFFC03FFE0
FFFFFE03FFE0
FFFFFE03FFE0
FFFFFF03FFE0
FFFFFF03FFE0
FFFFFF03FFE0
FFFFFF83FFE0
FFFFFF83FFE0
FFFFFFC3FFE0
FFFFFFC3FFE0
FFFFFFE3FFE0
FFFFFFE3FFE0
FFF8FFFFFFE0
FFF8FFFFFFE0
FFF87FFFFFE0
FFF87FFFFFE0
FFF83FFFFFE0
FFF83FFFFFE0
FFF81FFFFFE0
FFF81FFFFFE0
FFF81FFFFFE0
FFF80FFFFFE0
FFF80FFFFFE0
FFF807FFFFE0
FFF807FFFFE0
FFF803FFFFE0
FFF803FFFFE0
FFF801FFFFE0
FFF801FFFFE0
FFF801FFFFE0
FFF800FFFFE0
FFF800FFFFE0
FFF8007FFFE0
FFF8007FFFE0
FFF8003FFFC0
FFF8003FFFC0
FFF8001FFF80
FFF8001FFF00
FFF8001FFE00
FFF8000FFE00
FFF8000FFC00
FFF80007F800
FFF80007F800
ENDCHAR
STARTCHAR 006F
ENCODING 111
SWIDTH 618 0
DWIDTH 55 0
BBX 48 62 4 0
BITMAP
03FFFFFFFF80
07FFFFFFFFC0
07FFFFFFFFC0
0FFFFFFFFFE0
1FFFFFFFFFF0
1FFFFFFFFFF8
3FFFFFFFFFF8
7FFFFFFFFFFC
FFFFFFFFFFFE
FFFFFFFFFFFE
FFFFFFFFFFFF
FFFFFFFFFFFF
FFFFFFFFFFFF
FFFFFFFFFFFF
FFFE0000FFFF
FFFC00007FFF
FFF800003FFF
FFF800003FFF
FFF800003FFF
FFF800003FFF
FFF800003FFF
FFF800003FFF
FFF800003FFF
FFF800003FFF
FFF800003FFF
FFF800003FFF
FFF800003FFF
FFF800003FFF
FFF800003FFF
FFF800003FFF
FFF800003FFF
FFF800003FFF
FFF800003FFF
FFF800003FFF
FFF800003FFF
FFF800003FFF
FFF800003FFF
FFF800003FFF
FFF800003FFF
FFF800003FFF
FFF800003FFF
FFF800003FFF
FFF800003FFF
FFF800003FFF
FFF800003FFF
FFFC00007FFF
FFFC00007FFF
FFFE0000FFFF
FFFFFFFFFFFF
FFFFFFFFFFFF
FFFFFFFFFFFF
FFFFFFFFFFFF
FFFFFFFFFFFE
7FFFFFFFFFFE
7FFFFFFFFFFC
3FFFFFFFFFF8
1FFFFFFFFFF0
1FFFFFFFFFF0
0FFFFFFFFFE0
07FFFFFFFFC0
03FFFFFFFFC0
03FFFFFFFF80
ENDCHAR
STARTCHAR 0070
ENCODING 112
SWIDTH 540 0
DWIDTH 48 0
BBX 41 62 4 0
BITMAP
FFFFFFFFC000
FFFFFFFFE000
FFFFFFFFE000
FFFFFFFFF000
FFFFFFFFF800
FFFFFFFFFC00
FFFFFFFFFC00
FFFFFFFFFE00
FFFFFFFFFF00
FFFFFFFFFF00
FFFFFFFFFF80
FFFFFFFFFF80
FFFFFFFFFF80
FFFFFFFFFF80
FFF8007FFF80
FFF8003FFF80
FFF8001FFF80
FFF8001FFF80
FFF8001FFF80
FFF8001FFF80
FFF8001FFF80
FFF8001FFF80
FFF8001FFF80
FFF8001FFF80
FFF8001FFF80
FFF8003FFF80
FFF8003FFF80
FFF8007FFF80
FFFFFFFFFF80
FFFFFFFFFF80
FFFFFFFFFF80
FFFFFFFFFF80
FFFFFFFFFF00
FFFFFFFFFE00
FFFFFFFFFE00
FFFFFFFFFC00
FFFFFFFFF800
FFFFFFFFF000
FFFFFFFFF000
FFFFFFFFE000
FFFFFFFFC000
FFFFFFFFC000
FFF800000000
FFF800000000
FFF800000000
FFF800000000
FFF800000000
FFF800000000
FFF800000000
FFF800000000
FFF800000000
FFF800000000
FFF800000000
FFF800000000
FFF800000000
FFF800000000
FFF800000000
FFF800000000
FFF800000000
FFF800000000
FFF800000000
FFF800000000
ENDCHAR
STARTCHAR 0071
ENCODING 113
SWIDTH 652 0
DWIDTH 58 0
BBX 53 63 4 -1
BITMAP
03FFFFFFFF8000
07FFFFFFFFC000
07FFFFFFFFC000
0FFFFFFFFFE000
1FFFFFFFFFF000
1FFFFFFFFFF800
3FFFFFFFFFF800
7FFFFFFFFFFC00
FFFFFFFFFFFE00
FFFFFFFFFFFE00
FFFFFFFFFFFF00
FFFFFFFFFFFF00
FFFFFFFFFFFF00
FFFFFFFFFFFF00
FFFE0000FFFF00
FFFC00007FFF00
FFF800003FFF00
FFF800003FFF00
FFF800003FFF00
FFF800003FFF00
FFF800003FFF00
FFF800003FFF00
FFF800003FFF00
FFF800003FFF00
FFF800003FFF00
FFF800003FFF00
FFF800003FFF00
FFF800003FFF00
FFF800003FFF00
FFF800003FFF00
FFF800003FFF00
FFF800003FFF00
FFF800003FFF00
FFF800003FFF00
FFF800003FFF00
FFF800003FFF00
FFF800003FFF00
FFF800003FFF00
FFF800003FFF00
FFF800003FFF00
FFF800003FFF00
FFF800003FFF00
FFF800003FFF00
FFF800003FFF00
FFF800003FFF00
FFFC00007FFF00
FFFC00007FFF00
FFFE0000FFFFC0
FFFFFFFFFFFFF0
FFFFFFFFFFFFF8
FFFFFFFFFFFFF8
FFFFFFFFFFFFF8
FFFFFFFFFFFFF8
7FFFFFFFFFFFF8
7FFFFFFFFFFFF8
3FFFFFFFFFFFF8
1FFFFFFFFFFFF8
1FFFFFFFFFFFF0
0FFFFFFFFFFFE0
07FFFFFFFFFFE0
03FFFFFFFFDFC0
03FFFFFFFF8780
00000000000300
ENDCHAR
STARTCHAR 0072
ENCODING 114
SWIDTH 540 0
DWIDTH 48 0
BBX 42 62 4 0
BITMAP
FFFFFFFFC000
FFFFFFFFE000
FFFFFFFFE000
FFFFFFFFF000
FFFFFFFFF800
FFFFFFFFFC00
FFFFFFFFFC00
FFFFFFFFFE00
FFFFFFFFFF00
FFFFFFFFFF00
FFFFFFFFFF80
FFFFFFFFFF80
FFFFFFFFFF80
FFFFFFFFFF80
FFF8007FFF80
FFF8003FFF80
FFF8001FFF80
FFF8001FFF80
FFF8001FFF80
FFF8001FFF80
FFF8001FFF80
FFF8001FFF80
FFF8003FFF80
FFF8007FFF80
FFF8007FFF80
FFFFFFFFFF00
FFFFFFFFFE00
FFFFFFFFFE00
FFFFFFFFFC00
FFFFFFFFF800
FFFFFFFFF800
FFFFFFFFF000
FFFFFFFFE000
FFFFFFFFC000
FFFFFFFFC000
FFFFFFFFC000
FFFFFFFFC000
FFFFFFFFE000
FFFFFFFFE000
FFF807FFE000
FFF807FFF000
FFF807FFF000
FFF803FFF800
FFF803FFF800
FFF803FFFC00
FFF801FFFC00
FFF801FFFE00
FFF801FFFE00
FFF800FFFE00
FFF800FFFF00
FFF800FFFF00
FFF8007FFF80
FFF8007FFF80
FFF8003FFFC0
FFF8003FFFC0
FFF8003FFFC0
FFF8001FFFC0
FFF8001FFFC0
FFF8001FFFC0
FFF8000FFFC0
FFF8000FFFC0
FFF8000FFFC0
ENDCHAR
STARTCHAR 0073
ENCODING 115
SWIDTH 540 0
DWIDTH 48 0
BBX 41 62 4 0
BITMAP
7FFFFFFFC000
7FFFFFFFE000
FFFFFFFFE000
FFFFFFFFF000
FFFFFFFFF800
FFFFFFFFFC00
FFFFFFFFFC00
FFFFFFFFFE00
FFFFFFFFFF00
FFFFFFFFFF00
FFFFFFFFFF80
FFFFFFFFFF80
FFFFFFFFFF80
FFFFFFFFFF80
FFFC000FFF80
FFFE0007FF80
FFFF0007FF80
FFFF00000000
FFFF80000000
FFFFC0000000
7FFFE0000000
3FFFF0000000
1FFFF8000000
0FFFFC000000
07FFFE000000
03FFFF000000
01FFFF800000
00FFFFC00000
007FFFE00000
003FFFF00000
003FFFF80000
001FFFFC0000
000FFFFE0000
0007FFFF0000
0003FFFF8000
0001FFFFC000
0000FFFFE000
00007FFFF000
00003FFFF800
00001FFFFC00
00000FFFFE00
000007FFFF00
000003FFFF80
000001FFFF80
000000FFFF80
FFE0007FFF80
FFF0003FFF80
FFF8001FFF80
FFFFFFFFFF80
FFFFFFFFFF80
FFFFFFFFFF80
FFFFFFFFFF80
FFFFFFFFFF80
7FFFFFFFFF80
7FFFFFFFFF80
3FFFFFFFFF80
1FFFFFFFFF80
1FFFFFFFFF80
0FFFFFFFFF80
07FFFFFFFF00
03FFFFFFFE00
03FFFFFFFE00
ENDCHAR
STARTCHAR 0074
ENCODING 116
SWIDTH 528 0
DWIDTH 47 0
BBX 47 62 0 0
BITMAP
01FFFFFFFF80
03FFFFFFFF80
07FFFFFFFFC0
0FFFFFFFFFE0
0FFFFFFFFFE0
1FFFFFFFFFF0
3FFFFFFFFFF8
3FFFFFFFFFFC
7FFFFFFFFFFC
FFFFFFFFFFFE
FFFFFFFFFFFE
FFFF7FFDFFFE
FFFE7FFC7FFE
FFF87FFC3FFE
FFF07FFC1FFE
FFE07FFC07FE
FF807FFC03FE
FF007FFC01FE
00007FFC0000
00007FFC0000
00007FFC0000
00007FFC0000
00007FFC0000
00007FFC0000
00007FFC0000
00007FFC0000
00007FFC0000
00007FFC0000
00007FFC0000
00007FFC0000
00007FFC0000
00007FFC0000
00007FFC0000
00007FFC0000
00007FFC0000
00007FFC0000
00007FFC0000
00007FFC0000
00007FFC0000
00007FFC0000
00007FFC0000
00007FFC0000
00007FFC0000
00007FFC0000
00007FFC0000
00007FFC0000
00007FFC0000
00007FFC0000
00007FFC0000
00007FFC0000
00007FFC0000
00007FFC0000
00007FFC0000
00007FFC0000
00007FFC0000
00007FFC0000
00007FFC0000
00007FFC0000
00007FFC0000
00007FFC0000
00007FFC0000
00007FFC0000
ENDCHAR
STARTCHAR 0075
ENCODING 117
SWIDTH 607 0
DWIDTH 54 0
BBX 47 62 4 0
BITMAP
FFF800007FFE
FFF800007FFE
FFF800007FFE
FFF800007FFE
FFF800007FFE
FFF800007FFE
FFF800007FFE
FFF800007FFE
FFF800007FFE
FFF800007FFE
FFF800007FFE
FFF800007FFE
FFF800007FFE
FFF800007FFE
FFF800007FFE
FFF800007FFE
FFF800007FFE
FFF800007FFE
FFF800007FFE
FFF800007FFE
FFF800007FFE
FFF800007FFE
FFF800007FFE
FFF800007FFE
FFF800007FFE
FFF800007FFE
FFF800007FFE
FFF800007FFE
FFF800007FFE
FFF800007FFE
FFF800007FFE
FFF800007FFE
FFF800007FFE
FFF800007FFE
FFF800007FFE
FFF800007FFE
FFF800007FFE
FFF800007FFE
FFF800007FFE
FFF800007FFE
FFF800007FFE
FFF800007FFE
FFF800007FFE
FFF800007FFE
FFF800007FFE
FFFC00007FFE
FFFC0000FFFE
FFFE0001FFFE
FFFFFFFFFFFE
FFFFFFFFFFFE
FFFFFFFFFFFE
FFFFFFFFFFFE
FFFFFFFFFFFE
7FFFFFFFFFFC
7FFFFFFFFFF8
3FFFFFFFFFF0
1FFFFFFFFFF0
1FFFFFFFFFE0
0FFFFFFFFFC0
07FFFFFFFFC0
03FFFFFFFF80
03FFFFFFFF00
ENDCHAR
STARTCHAR 0076
ENCODING 118
SWIDTH 573 0
DWIDTH 51 0
BBX 50 62 1 0
BITMAP
FFF800000FFFC0
FFFC00000FFF80
FFFC00000FFF80
FFFC00001FFF80
FFFC00001FFF80
7FFC00001FFF80
7FFC00001FFF00
7FFC00001FFF00
7FFE00001FFF00
7FFE00003FFF00
3FFE00003FFF00
3FFE00003FFE00
3FFE00003FFE00
3FFE00003FFE00
3FFF00003FFE00
1FFF00003FFE00
1FFF00007FFC00
1FFF00007FFC00
1FFF00007FFC00
1FFF00007FFC00
0FFF00007FFC00
0FFF80007FF800
0FFF8000FFF800
0FFF8000FFF800
0FFF8000FFF800
07FF8000FFF800
07FF8000FFF000
07FFC000FFF000
07FFC001FFF000
07FFC001FFF000
03FFC001FFF000
03FFC001FFE000
03FFC001FFE000
03FFC001FFE000
03FFE001FFE000
01FFE003FFE000
01FFE003FFC000
01FFE003FFC000
01FFE003FFC000
01FFE003FFC000
00FFF003FFC000
00FFF007FF8000
00FFF007FF8000
00FFF007FF8000
00FFF007FF8000
007FF007FF8000
007FF007FF0000
007FF807FF0000
007FFFFFFF0000
007FFFFFFF0000
003FFFFFFF0000
003FFFFFFE0000
003FFFFFFE0000
003FFFFFFE0000
003FFFFFFE0000
001FFFFFFE0000
001FFFFFFC0000
001FFFFFFC0000
001FFFFFFC0000
000FFFFFFC0000
000FFFFFF80000
0007FFFFF00000
ENDCHAR
STARTCHAR 0077
ENCODING 119
SWIDTH 877 0
DWIDTH 78 0
BBX 71 62 4 0
BITMAP
FFF800000000007FFE
FFFC00000000007FFE
FFFC00000000007FFE
FFFC0000000000FFFE
FFFC0000000000FFFE
FFFC0000000000FFFE
FFFE0000000000FFFE
FFFE0000000000FFFE
FFFE0000000000FFFC
FFFE0000000001FFFC
FFFE0000000001FFFC
7FFF0000000001FFFC
7FFF0000000001FFFC
7FFF0000000001FFF8
7FFF0000000001FFF8
7FFF0000000003FFF8
3FFF0000000003FFF8
3FFF8000000003FFF8
3FFF8007FFC003FFF0
3FFF8007FFC003FFF0
3FFF800FFFE007FFF0
1FFF800FFFE007FFF0
1FFFC01FFFF007FFF0
1FFFC01FFFF007FFE0
1FFFC01FFFF007FFE0
0FFFC01FFFF007FFE0
0FFFC03FFFF80FFFE0
0FFFC03FFFF80FFFE0
0FFFE03FFFF80FFFC0
0FFFE03FFFF80FFFC0
07FFE07FFFFC0FFFC0
07FFE07FEFFC0FFFC0
07FFE07FEFFC1FFFC0
07FFF07FEFFC1FFF80
07FFF0FFC7FE1FFF80
03FFF0FFC7FE1FFF80
03FFF0FFC7FE1FFF80
03FFF0FFC7FE1FFF80
03FFF9FFC7FF3FFF00
01FFF9FF83FF3FFF00
01FFFFFF83FFFFFF00
01FFFFFF83FFFFFF00
01FFFFFF83FFFFFF00
01FFFFFF81FFFFFE00
00FFFFFF01FFFFFE00
00FFFFFF01FFFFFE00
00FFFFFF01FFFFFE00
00FFFFFF01FFFFFE00
00FFFFFF00FFFFFC00
007FFFFE00FFFFFC00
007FFFFE00FFFFFC00
007FFFFE00FFFFFC00
007FFFFE00FFFFFC00
003FFFFC007FFFF800
003FFFFC007FFFF800
003FFFFC007FFFF800
003FFFFC007FFFF800
003FFFFC007FFFF800
001FFFF8003FFFF000
001FFFF8003FFFF000
001FFFF8003FFFF000
001FFFF8003FFFF000
ENDCHAR
STARTCHAR 0078
ENCODING 120
SWIDTH 607 0
DWIDTH 54 0
BBX 47 62 4 0
BITMAP
FFF800007FFE
FFFC00007FFE
FFFC00007FFE
FFFC0000FFFE
FFFE0000FFFE
FFFE0001FFFE
FFFF0001FFFE
FFFF0003FFFE
FFFF0003FFFC
7FFF8003FFFC
7FFF8007FFF8
3FFFC007FFF8
3FFFC00FFFF0
1FFFE00FFFF0
1FFFE01FFFE0
0FFFE01FFFE0
0FFFF01FFFC0
07FFF03FFFC0
07FFF83FFF80
03FFF87FFF80
03FFF87FFF00
01FFFCFFFF00
01FFFCFFFE00
00FFFEFFFE00
00FFFFFFFC00
007FFFFFFC00
007FFFFFF800
003FFFFFF800
003FFFFFF000
003FFFFFF000
003FFFFFF800
003FFFFFF800
007FFFFFFC00
007FFFFFFC00
00FFFFFFFC00
00FFFFFFFE00
01FFFFFFFE00
01FFFFFFFF00
01FFFEFFFF00
03FFFCFFFF80
03FFFC7FFF80
07FFF87FFF80
07FFF87FFFC0
0FFFF03FFFC0
0FFFF03FFFE0
0FFFF01FFFE0
1FFFE01FFFE0
1FFFE00FFFF0
3FFFC00FFFF0
3FFFC00FFFF8
7FFFC007FFF8
7FFF8007FFFC
7FFF8003FFFC
FFFF0003FFFC
FFFF0001FFFE
FFFF0001FFFE
FFFE0001FFFE
FFFE0000FFFE
FFFC0000FFFE
FFFC00007FFE
FFFC00007FFE
FFF800003FFE
ENDCHAR
STARTCHAR 0079
ENCODING 121
SWIDTH 461 0
DWIDTH 41 0
BBX 41 62 0 0
BITMAP
FFF80007FF80
FFF8000FFF80
FFFC000FFF80
FFFC000FFF80
FFFE001FFF80
FFFE001FFF80
FFFE001FFF80
7FFF003FFF80
7FFF003FFF80
3FFF003FFF00
3FFF807FFF00
1FFF807FFE00
1FFF807FFE00
1FFFC0FFFC00
0FFFC0FFFC00
0FFFC0FFFC00
07FFE1FFF800
07FFE1FFF800
03FFE1FFF000
03FFF3FFF000
01FFF3FFE000
01FFF3FFE000
01FFFFFFC000
00FFFFFFC000
00FFFFFFC000
007FFFFF8000
007FFFFF8000
003FFFFF0000
003FFFFF0000
001FFFFE0000
001FFFFE0000
001FFFFE0000
000FFFFC0000
000FFFFC0000
0007FFF80000
0007FFF80000
0003FFF00000
0003FFF00000
0003FFF00000
0003FFF00000
0003FFF00000
0003FFF00000
0003FFF00000
0003FFF00000
0003FFF00000
0003FFF00000
0003FFF00000
0003FFF00000
0003FFF00000
0003FFF00000
0003FFF00000
0003FFF00000
0003FFF00000
0003FFF00000
0003FFF00000
0003FFF00000
0003FFF00000
0003FFF00000
0003FFF00000
0003FFF00000
0003FFF00000
0003FFF00000
ENDCHAR
STARTCHAR 007A
ENCODING 122
SWIDTH 562 0
DWIDTH 50 0
BBX 43 62 4 0
BITMAP
FFFFFFFFF000
FFFFFFFFF800
FFFFFFFFFC00
FFFFFFFFFC00
FFFFFFFFFE00
FFFFFFFFFF00
FFFFFFFFFF80
FFFFFFFFFF80
FFFFFFFFFFC0
FFFFFFFFFFE0
FFFFFFFFFFC0
FFFFFFFFFFC0
7FFFFFFFFF80
3FFFFFFFFF80
000001FFFF00
000003FFFE00
000007FFFE00
000007FFFC00
00000FFFFC00
00001FFFF800
00001FFFF000
00003FFFF000
00003FFFE000
00007FFFE000
0000FFFFC000
0000FFFF8000
0001FFFF8000
0001FFFF0000
0003FFFE0000
0007FFFE0000
0007FFFC0000
000FFFFC0000
000FFFF80000
001FFFF00000
003FFFF00000
003FFFE00000
007FFFE00000
00FFFFC00000
00FFFF800000
01FFFF800000
01FFFF000000
03FFFE000000
07FFFE000000
07FFFC000000
0FFFFC000000
0FFFF8000000
1FFFF0000000
3FFFF0000000
3FFFFFFFFF80
7FFFFFFFFFC0
7FFFFFFFFFC0
FFFFFFFFFFE0
FFFFFFFFFFE0
7FFFFFFFFFE0
7FFFFFFFFFE0
3FFFFFFFFFE0
1FFFFFFFFFE0
1FFFFFFFFFE0
0FFFFFFFFFE0
07FFFFFFFFE0
03FFFFFFFFE0
03FFFFFFFFE0
ENDCHAR
STARTCHAR 007B
ENCODING 123
SWIDTH 281 0
DWIDTH 25 0
BBX 22 70 2 -4
BITMAP
03FFFC
03FFFC
03FFFC
03FFFC
03FFFC
03FFFC
03FFFC
03FFF8
03FFF0
03FC00
03FC00
03FC00
03FC00
03FC00
03FC00
03FC00
03FC00
03FC00
03FC00
03FC00
03FC00
03FC00
03FC00
03FC00
03FC00
03FC00
03FC00
03FC00
0FFC00
1FFC00
3FF800
7FF000
FFE000
FF8000
FF8000
FF8000
FF8000
FFC000
FFE000
7FF000
3FFC00
0FFC00
07FC00
03FC00
03FC00
03FC00
03FC00
03FC00
03FC00
03FC00
03FC00
03FC00
03FC00
03FC00
03FC00
03FC00
03FC00
03FC00
03FC00
03FC00
03FC00
03FC00
03FFF0
03FFF8
03FFFC
03FFFC
03FFFC
03FFFC
03FFFC
03FFFC
ENDCHAR
STARTCHAR 007C
ENCODING 124
SWIDTH 135 0
DWIDTH 12 0
BBX 9 70 2 -4
BITMAP
FF80
FF80
FF80
FF80
FF80
FF80
FF80
FF80
FF80
FF80
FF80
FF80
FF80
FF80
FF80
FF80
FF80
FF80
FF80
FF80
FF80
FF80
FF80
FF80
FF80
FF80
FF80
FF80
FF80
FF80
FF80
FF80
FF80
FF80
FF80
FF80
FF80
FF80
FF80
FF80
FF80
FF80
FF80
FF80
FF80
FF80
FF80
FF80
FF80
FF80
FF80
FF80
FF80
FF80
FF80
FF80
FF80
FF80
FF80
FF80
FF80
FF80
FF80
FF80
FF80
FF80
FF80
FF80
FF80
FF80
ENDCHAR
STARTCHAR 007D
ENCODING 125
SWIDTH 281 0
DWIDTH 25 0
BBX 22 70 2 -4
BITMAP
FFFF00
FFFF00
FFFF00
FFFF00
FFFF00
FFFF00
FFFF00
7FFF00
7FFF00
01FF00
01FF00
01FF00
01FF00
01FF00
01FF00
01FF00
01FF00
01FF00
01FF00
01FF00
01FF00
01FF00
01FF00
01FF00
01FF00
01FF00
01FF00
01FF00
01FF80
01FFE0
00FFF0
003FF8
001FFC
000FFC
0007FC
0007FC
0007FC
000FFC
001FFC
007FF8
00FFE0
01FFC0
01FF80
01FF00
01FF00
01FF00
01FF00
01FF00
01FF00
01FF00
01FF00
01FF00
01FF00
01FF00
01FF00
01FF00
01FF00
01FF00
01FF00
01FF00
01FF00
01FF00
7FFF00
7FFF00
FFFF00
FFFF00
FFFF00
FFFF00
FFFF00
FFFF00
ENDCHAR
STARTCHAR 007E
ENCODING 126
SWIDTH 450 0
DWIDTH 40 0
BBX 37 12 2 25
BITMAP
001C000000
007F000000
01FFE00000
07FFFC0078
1FFFFF81F8
7FFFFFF7F8
FFFFFFFFF8
FFE3FFFFF8
FFC07FFFF8
FF000FFFE0
FC0001FF80
F800003C00
ENDCHAR
STARTCHAR 00A1
ENCODING 161
SWIDTH 168 0
DWIDTH 15 0
BBX 12 62 2 0
BITMAP
FFE0
FFE0
FFE0
FFE0
FFE0
FFE0
FFE0
FFE0
FFE0
FFE0
0000
0000
0000
0000
0000
1F80
1F80
1F80
1F80
1F80
1F80
3F80
3F80
3F80
3F80
3F80
3FC0
3FC0
3FC0
3FC0
3FC0
3FC0
3FC0
3FC0
3FC0
7FC0
7FC0
7FC0
7FC0
7FC0
7FE0
7FE0
7FE0
7FE0
7FE0
7FE0
7FE0
7FE0
7FE0
FFE0
FFE0
FFE0
FFE0
FFE0
FFF0
FFF0
FFF0
FFF0
FFF0
FFE0
7FE0
3FC0
ENDCHAR
STARTCHAR 00A2
ENCODING 162
SWIDTH 540 0
DWIDTH 48 0
BBX 41 80 4 -9
BITMAP
0003FE000000
0003FE000000
0003FE000000
0003FE000000
0003FE000000
0003FE000000
0003FE000000
0003FE000000
0003FE000000
FFFFFFFFC000
FFFFFFFFE000
FFFFFFFFF000
FFFFFFFFF800
FFFFFFFFF800
FFFFFFFFFC00
FFFFFFFFFE00
FFFFFFFFFE00
FFFFFFFFFF00
FFFFFFFFFF80
FFFFFFFFFF80
FFFFFFFFFF80
FFFFFFFFFF80
FFFFFFFFFF80
FFF8003FFF80
FFF8001FFF80
FFF8000FFF80
FFF800000000
FFF800000000
FFF800000000
FFF800000000
FFF800000000
FFF800000000
FFF800000000
FFF800000000
FFF800000000
FFF800000000
FFF800000000
FFF800000000
FFF800000000
FFF800000000
FFF800000000
FFF800000000
FFF800000000
FFF800000000
FFF800000000
FFF800000000
FFF800000000
FFF800000000
FFF800000000
FFF800000000
FFF800000000
FFF800000000
FFF800000000
FFF800000000
FFF8000FFF80
FFF8001FFF80
FFF8003FFF80
FFFFFFFFFF80
FFFFFFFFFF80
FFFFFFFFFF80
FFFFFFFFFF80
FFFFFFFFFF80
FFFFFFFFFF00
FFFFFFFFFE00
FFFFFFFFFE00
FFFFFFFFFC00
FFFFFFFFF800
FFFFFFFFF000
FFFFFFFFF000
FFFFFFFFE000
FFFFFFFFC000
0003FE000000
0003FE000000
0003FE000000
0003FE000000
0003FE000000
0003FE000000
0003FE000000
0003FE000000
0003FE000000
ENDCHAR
STARTCHAR 00A3
ENCODING 163
SWIDTH 495 0
DWIDTH 44 0
BBX 37 62 4 0
BITMAP
7FFFFFFFE0
7FFFFFFFF0
FFFFFFFFF8
FFFFFFFFF8
FFFFFFFFF8
FFFFFFFFF8
FFFFFFFFF8
FFFFFFFFF8
FFFFFFFFF8
FFFFFFFFF8
FFFFFFFFF8
FFFFFFFFF8
FFFFFFFFF8
FFFFFFFFF8
FFFC01FFF8
FFFC00FFF8
7FFC007FF8
7FFC003FF8
7FFC000000
3FFC000000
3FFE000000
3FFE000000
1FFF000000
1FFF000000
FFFFFFFFF8
FFFFFFFFF8
FFFFFFFFF8
FFFFFFFFF8
FFFFFFFFF8
FFFFFFFFF8
FFFFFFFFF8
FFFFFFFFF8
FFFFFFFFF8
03FFF00000
01FFF00000
01FFF80000
01FFF80000
01FFF80000
01FFF80000
01FFF80000
03FFF00000
07FFE00000
0FFFE00000
0FFFC00000
1FFF800000
3FFF000000
7FFF000000
FFFE000000
FFFFFFFFE0
FFFFFFFFF0
FFFFFFFFF0
FFFFFFFFF8
FFFFFFFFF8
FFFFFFFFF8
FFFFFFFFF8
FFFFFFFFF8
FFFFFFFFF8
FFFFFFFFF8
FFFFFFFFF8
FFFFFFFFF8
FFFFFFFFF8
FFFFFFFFF8
ENDCHAR
STARTCHAR 00A4
ENCODING 164
SWIDTH 326 0
DWIDTH 29 0
BBX 25 25 2 19
BITMAP
70000700
F8000F80
FC001F80
7FFFFF80
3FFFFF00
1FFFFE00
1FFFFC00
1FFFFC00
1FFFFC00
1F80FC00
1F80FC00
1F80FC00
1F80FC00
1F80FC00
1F80FC00
1FFFFC00
1FFFFC00
1FFFFC00
1FFFFC00
3FFFFE00
7FFFFF00
FFFFFF80
FC000F80
78000700
30000200
ENDCHAR
STARTCHAR 00A5
ENCODING 165
SWIDTH 461 0
DWIDTH 41 0
BBX 41 62 0 0
BITMAP
FFF80007FF80
FFF8000FFF80
FFFC000FFF80
FFFC000FFF80
FFFE001FFF80
FFFE001FFF80
FFFE001FFF80
7FFF003FFF80
7FFF003FFF80
3FFF003FFF00
3FFF807FFF00
1FFF807FFE00
1FFF807FFE00
1FFFC0FFFC00
0FFFC0FFFC00
0FFFC0FFFC00
07FFE1FFF800
07FFE1FFF800
03FFE1FFF000
03FFF3FFF000
01FFF3FFE000
01FFF3FFE000
01FFFFFFE000
00FFFFFFC000
00FFFFFFC000
007FFFFF8000
007FFFFF8000
003FFFFF0000
003FFFFF0000
001FFFFE0000
001FFFFE0000
07FFFFFFF800
07FFFFFFF800
07FFFFFFF800
07FFFFFFF800
07FFFFFFF800
07FFFFFFF800
07FFFFFFF800
07FFFFFFF800
07FFFFFFF800
0003FFF00000
0003FFF00000
0003FFF00000
07FFFFFFF800
07FFFFFFF800
07FFFFFFF800
07FFFFFFF800
07FFFFFFF800
07FFFFFFF800
07FFFFFFF800
07FFFFFFF800
07FFFFFFF800
0003FFF00000
0003FFF00000
0003FFF00000
0003FFF00000
0003FFF00000
0003FFF00000
0003FFF00000
0003FFF00000
0003FFF00000
0003FFF00000
ENDCHAR
STARTCHAR 00A6
ENCODING 166
SWIDTH 135 0
DWIDTH 12 0
BBX 9 69 2 -3
BITMAP
FF80
FF80
FF80
FF80
FF80
FF80
FF80
FF80
FF80
FF80
FF80
FF80
FF80
FF80
FF80
FF80
FF80
FF80
FF80
FF80
FF80
FF80
FF80
FF80
FF80
FF80
FF80
FF80
FF80
FF80
FF80
FF80
0000
0000
0000
0000
0000
0000
FF80
FF80
FF80
FF80
FF80
FF80
FF80
FF80
FF80
FF80
FF80
FF80
FF80
FF80
FF80
FF80
FF80
FF80
FF80
FF80
FF80
FF80
FF80
FF80
FF80
FF80
FF80
FF80
FF80
FF80
FF80
ENDCHAR
STARTCHAR 00A7
ENCODING 167
SWIDTH 427 0
DWIDTH 38 0
BBX 31 62 4 0
BITMAP
1FFFFFC0
3FFFFFE0
3FFFFFF0
3FFFFFF8
3FFFFFF8
3FFFFFFC
3FFFFFFE
3FFFFFFE
3FFFFFFE
3FFFFFFE
3FF003FE
3FF801FE
3FFC0000
3FFE0000
1FFF0000
0FFF8000
07FFC000
03FFE000
7FFFF000
FFFFF800
FFFFFC00
FFFFFE00
FFFFFF00
FFFFFF80
FFFFFFC0
FFFFFFE0
FFFFFFE0
FFFFFFF0
FFC0FFF8
FFE07FFC
FFF03FFE
FFF81FFE
FFFC0FFE
7FFE07FE
3FFFFFFE
1FFFFFFE
0FFFFFFE
07FFFFFE
03FFFFFE
01FFFFFE
00FFFFFE
007FFFFE
003FFFFC
001FFFFC
000FFF80
0007FFC0
0003FFE0
0001FFF0
0000FFF8
00007FF8
FF003FF8
FF801FF8
FFFFFFF8
FFFFFFF8
FFFFFFF8
FFFFFFF8
7FFFFFF8
7FFFFFF8
3FFFFFF8
1FFFFFF8
0FFFFFF0
0FFFFFF0
ENDCHAR
STARTCHAR 00A8
ENCODING 168
SWIDTH 292 0
DWIDTH 26 0
BBX 23 8 2 66
BITMAP
FF03FE
FF03FE
FF03FE
FF03FE
FF03FE
FF03FE
FF03FE
FF03FE
ENDCHAR
STARTCHAR 00A9
ENCODING 169
SWIDTH 731 0
DWIDTH 65 0
BBX 61 70 2 -4
BITMAP
1FFFFFFFFFFFFFC0
3FFFFFFFFFFFFFE0
7FFFFFFFFFFFFFF0
FFFFFFFFFFFFFFF8
FFFFFFFFFFFFFFF8
FFFFFFFFFFFFFFF8
FFFFFFFFFFFFFFF8
FFFFFFFFFFFFFFF8
FFFFFFFFFFFFFFF8
FF80000000000FF8
FF80000000000FF8
FF80000000000FF8
FF80000000000FF8
FF80000000000FF8
FF80000000000FF8
FF80000000000FF8
FF803FFFFE000FF8
FF803FFFFF000FF8
FF803FFFFF000FF8
FF803FFFFF800FF8
FF803FFFFFC00FF8
FF803FFFFFE00FF8
FF803FFFFFE00FF8
FF803FFFFFE00FF8
FF803FC03FE00FF8
FF803FC01FE00FF8
FF803FC000000FF8
FF803FC000000FF8
FF803FC000000FF8
FF803FC000000FF8
FF803FC000000FF8
FF803FC000000FF8
FF803FC000000FF8
FF803FC000000FF8
FF803FC000000FF8
FF803FC000000FF8
FF803FC000000FF8
FF803FC000000FF8
FF803FC000000FF8
FF803FC000000FF8
FF803FC000000FF8
FF803FC000000FF8
FF803FC000000FF8
FF803FC01FE00FF8
FF803FC03FE00FF8
FF803FFFFFE00FF8
FF803FFFFFE00FF8
FF803FFFFFE00FF8
FF803FFFFFC00FF8
FF803FFFFFC00FF8
FF803FFFFF800FF8
FF803FFFFF000FF8
FF803FFFFE000FF8
FF803FFFFE000FF8
FF80000000000FF8
FF80000000000FF8
FF80000000000FF8
FF80000000000FF8
FF80000000000FF8
FF80000000000FF8
FF80000000000FF8
FFFFFFFFFFFFFFF8
FFFFFFFFFFFFFFF8
FFFFFFFFFFFFFFF8
FFFFFFFFFFFFFFF8
FFFFFFFFFFFFFFF8
FFFFFFFFFFFFFFF8
7FFFFFFFFFFFFFF0
3FFFFFFFFFFFFFE0
1FFFFFFFFFFFFFC0
ENDCHAR
STARTCHAR 00AB
ENCODING 171
SWIDTH 461 0
DWIDTH 41 0
BBX 38 37 2 10
BITMAP
0000000004
000020000C
000060001C
0001E0003C
0003E000FC
0007E001FC
000FE003FC
003FE007FC
007FE01FFC
00FFE03FF8
01FFC07FF0
07FF00FFC0
0FFE03FF80
1FFC07FF00
3FF00FFE00
FFE03FF800
FFC03FF000
FF803FE000
FF803FE000
FF803FE000
FF803FE000
FFC03FF000
FFE01FF800
3FF00FFE00
1FFC07FF00
0FFE03FF80
07FF00FFE0
01FFC07FF0
00FFE03FF8
007FE01FFC
003FE007FC
000FE003FC
0007E001FC
0003E000FC
0000E0003C
000060001C
000020000C
ENDCHAR
STARTCHAR 00AC
ENCODING 172
SWIDTH 551 0
DWIDTH 49 0
BBX 46 23 2 11
BITMAP
FFFFFFFFFFFC
FFFFFFFFFFFC
FFFFFFFFFFFC
FFFFFFFFFFFC
FFFFFFFFFFFC
FFFFFFFFFFFC
FFFFFFFFFFFC
FFFFFFFFFFFC
0000000007FC
0000000007FC
0000000007FC
0000000007FC
0000000007FC
0000000007FC
0000000007FC
0000000007FC
0000000007FC
0000000007FC
0000000007FC
0000000007FC
0000000007FC
0000000007FC
0000000007FC
ENDCHAR
STARTCHAR 00AE
ENCODING 174
SWIDTH 382 0
DWIDTH 34 0
BBX 31 34 2 28
BITMAP
7FFFFFFC
FFFFFFFE
FFFFFFFE
FFFFFFFE
F000003E
F000003E
F000003E
F000003E
F07FF03E
F07FF03E
F07FF83E
F07FF83E
F078783E
F078783E
F078783E
F07FF83E
F07FF83E
F07FF03E
F07FE03E
F079F03E
F078F03E
F078F83E
F078F83E
F0787C3E
F0787C3E
F0787C3E
F000003E
F000003E
F000003E
F000003E
FFFFFFFE
FFFFFFFE
FFFFFFFE
FFFFFFFC
ENDCHAR
STARTCHAR 00AF
ENCODING 175
SWIDTH 427 0
DWIDTH 38 0
BBX 34 8 2 66
BITMAP
FFFFFFFFC0
FFFFFFFFC0
FFFFFFFFC0
FFFFFFFFC0
FFFFFFFFC0
FFFFFFFFC0
FFFFFFFFC0
FFFFFFFFC0
ENDCHAR
STARTCHAR 00B0
ENCODING 176
SWIDTH 247 0
DWIDTH 22 0
BBX 18 18 2 44
BITMAP
3FFF80
7FFFC0
FFFFC0
FFFFC0
FFFFC0
FFFFC0
FC0FC0
FC0FC0
FC0FC0
FC0FC0
FC0FC0
FE1FC0
FFFFC0
FFFFC0
FFFFC0
FFFFC0
7FFF80
3FFF00
ENDCHAR
STARTCHAR 00B1
ENCODING 177
SWIDTH 427 0
DWIDTH 38 0
BBX 34 46 2 2
BITMAP
0007FC0000
0007FC0000
0007FC0000
0007FC0000
0007FC0000
0007FC0000
0007FC0000
0007FC0000
0007FC0000
0007FC0000
0007FC0000
0007FC0000
FFFFFFFFC0
FFFFFFFFC0
FFFFFFFFC0
FFFFFFFFC0
FFFFFFFFC0
FFFFFFFFC0
FFFFFFFFC0
FFFFFFFFC0
FFFFFFFFC0
0007FC0000
0007FC0000
0007FC0000
0007FC0000
0007FC0000
0007FC0000
0007FC0000
0007FC0000
0007FC0000
0007FC0000
0007FC0000
0007FC0000
0007FC0000
0000000000
0000000000
0000000000
FFFFFFFFC0
FFFFFFFFC0
FFFFFFFFC0
FFFFFFFFC0
FFFFFFFFC0
FFFFFFFFC0
FFFFFFFFC0
FFFFFFFFC0
FFFFFFFFC0
ENDCHAR
STARTCHAR 00B4
ENCODING 180
SWIDTH 393 0
DWIDTH 35 0
BBX 32 9 2 66
BITMAP
000000FF
001FFFFF
1FFFFFFF
FFFFFFFF
FFFFFFF8
FFFFFF00
FFFFE000
FFFE0000
FFC00000
ENDCHAR
STARTCHAR 00B6
ENCODING 182
SWIDTH 416 0
DWIDTH 37 0
BBX 30 62 4 0
BITMAP
7FFFF87C
7FFFF87C
FFFFF87C
FFFFF87C
FFFFF87C
FFFFF87C
FFFFF87C
FFFFF87C
FFFFF87C
FFFFF87C
FFFFF87C
FFFFF87C
FFFFF87C
FFFFF87C
FFFFF87C
FFFFF87C
FFFFF87C
FFFFF87C
FFFFF87C
FFFFF87C
FFFFF87C
FFFFF87C
FFFFF87C
FFFFF87C
FFFFF87C
FFFFF87C
FFFFF87C
7FFFF87C
0000787C
0000787C
0000787C
0000787C
0000787C
0000787C
0000787C
0000787C
0000787C
0000787C
0000787C
0000787C
0000787C
0000787C
0000787C
0000787C
0000787C
0000787C
0000787C
0000787C
0000787C
0000787C
0000787C
0000787C
0000787C
0000787C
0000787C
0000787C
0000787C
0000787C
0000787C
0000787C
0000787C
0000787C
ENDCHAR
STARTCHAR 00B7
ENCODING 183
SWIDTH 168 0
DWIDTH 15 0
BBX 12 12 2 28
BITMAP
FFF0
FFF0
FFF0
FFF0
FFF0
FFF0
FFF0
FFF0
FFF0
FFF0
FFF0
FFF0
ENDCHAR
STARTCHAR 00B8
ENCODING 184
SWIDTH 202 0
DWIDTH 18 0
BBX 14 13 2 -13
BITMAP
007C
00FC
00F8
0FF0
0FF0
0FF0
0FF0
01F0
01F0
7FF0
7FE0
FFE0
FFC0
ENDCHAR
STARTCHAR 00BB
ENCODING 187
SWIDTH 461 0
DWIDTH 41 0
BBX 38 37 2 10
BITMAP
0000200000
C000300000
E000380000
F0003C0000
F8003F0000
FE003F8000
FF003FC000
FF803FE000
FFC03FF800
7FF01FFC00
3FF80FFE00
1FFC03FF00
07FE01FFC0
03FF80FFE0
01FFC07FF0
007FE01FF8
003FE00FFC
003FE007FC
003FE007FC
003FE007FC
003FE007FC
003FE00FFC
007FE01FF8
01FFC07FF0
03FF80FFE0
07FE01FFC0
1FFC07FF00
3FF80FFE00
7FF01FFC00
FFC03FF800
FF803FE000
FF003FC000
FE003F8000
F8003F0000
F0003C0000
E000380000
8000300000
ENDCHAR
STARTCHAR 00BC
ENCODING 188
SWIDTH 585 0
DWIDTH 52 0
BBX 45 62 4 0
BITMAP
03F80000FF00
07FC0000FF00
0FFC0001FE00
3FFC0001FE00
7FFC0003FC00
FFFC0003FC00
FFFC0003F800
FFFC0007F800
FFFC0007F000
FDFC000FF000
F9FC000FE000
F1FC001FE000
E1FC001FC000
01FC003FC000
01FC003FC000
01FC007F8000
01FC007F8000
01FC00FF0000
01FC00FF0000
01FC01FE0000
01FC01FE0000
01FC03FC0000
01FC03FC0000
01FC03F80000
01FC07F80000
01FC07F00000
01FC0FF00000
01FC0FE00000
01FC1FE00000
01FC1FE00000
01FC3FC00000
00003FC0FF80
00007F80FFC0
00007F81FFC0
0000FF03FFC0
0000FF03FFC0
0001FE07FFC0
0001FE07FFC0
0003FC0FFFC0
0003FC1FFFC0
0007F81FFFC0
0007F83FDFC0
0007F07FDFC0
000FF07F9FC0
000FF0FF1FC0
001FE0FF1FC0
001FE1FE1FC0
003FC1FC1FC0
003FC1FC1FC0
007F81FFFFF0
007F81FFFFF8
00FF01FFFFF8
00FF01FFFFF8
01FE01FFFFF8
01FE01FFFFF8
03FC01FFFFF8
03FC00001FC0
07F800001FC0
07F800001FC0
0FF800001FC0
0FF000001FC0
0FF000001FC0
ENDCHAR
STARTCHAR 00BD
ENCODING 189
SWIDTH 630 0
DWIDTH 56 0
BBX 49 62 4 0
BITMAP
03F80000FF0000
07FC0000FF0000
0FFC0001FE0000
3FFC0001FE0000
7FFC0003FC0000
FFFC0003FC0000
FFFC0003F80000
FFFC0007F80000
FFFC0007F00000
FDFC000FF00000
F9FC000FE00000
F1FC001FE00000
E1FC001FC00000
01FC003FC00000
01FC003FC00000
01FC007F800000
01FC007F800000
01FC00FF000000
01FC00FF000000
01FC01FE000000
01FC01FE000000
01FC03FC000000
01FC03FC000000
01FC03F8000000
01FC07F8000000
01FC07F0000000
01FC0FF0000000
01FC0FE0000000
01FC1FE0000000
01FC1FE0000000
01FC3FC0000000
00003FC1FFFF00
00007F81FFFF80
00007F83FFFF80
0000FF07FFFF80
0000FF0FFFFF80
0001FE0FFFFF80
0001FE0FFFFF80
0003FC0FF03F80
0003FC0FF03F80
0007F800003F80
0007F800007F80
0007F00000FF80
000FF00001FF80
000FF00003FF00
001FE00007FE00
001FE0000FFC00
003FC0001FF800
003FC0003FF000
007F80007FE000
007F8000FFC000
00FF0000FF8000
00FF0001FF0000
01FE0003FE0000
01FE0007FC0000
03FC000FFFFF00
03FC000FFFFF80
07F8000FFFFF80
07F8000FFFFF80
0FF8000FFFFF80
0FF0000FFFFF80
0FF0000FFFFF80
ENDCHAR
STARTCHAR 00BE
ENCODING 190
SWIDTH 630 0
DWIDTH 56 0
BBX 49 62 4 0
BITMAP
FFFFE00007F000
FFFFE0000FF000
FFFFE0000FF000
7FFFE0001FE000
3FFFE0001FE000
3FFFE0003FC000
1FFFE0003FC000
000FE0003F8000
000FE0007F8000
000FE0007F0000
000FE000FF0000
000FE000FE0000
1FFFE001FE0000
1FFFE001FC0000
1FFFE003FC0000
1FFFE003FC0000
1FFFE007F80000
1FFFE007F80000
1FFFE00FF00000
000FE00FF00000
000FE01FE00000
000FE01FE00000
000FE03FC00000
000FE03FC00000
1FFFE07F800000
3FFFE07F800000
3FFFE07F000000
7FFFE0FF000000
FFFFE0FE000000
FFFFE1FE000000
FFFFE1FE000000
000003FC07F800
000003FC0FFC00
000007F81FFC00
000007F81FFC00
00000FF03FFC00
00000FF07FFC00
00001FE07FFC00
00001FE0FFFC00
00003FC0FFFC00
00003FC1FFFC00
00007F83FDFC00
00007F83FDFC00
0000FF07F9FC00
0000FF07F9FC00
0000FF0FF1FC00
0001FE1FE1FC00
0001FE1FE1FC00
0003FC1FC1FC00
0003FC1FFFFF00
0007F81FFFFF80
0007F81FFFFF80
000FF01FFFFF80
000FF01FFFFF80
001FE01FFFFF80
001FE00FFFFF80
003FC00001FC00
003FC00001FC00
007F800001FC00
007F800001FC00
00FF800001FC00
00FF000001FC00
ENDCHAR
STARTCHAR 00BF
ENCODING 191
SWIDTH 528 0
DWIDTH 47 0
BBX 40 62 4 0
BITMAP
001FFF8000
001FFF8000
001FFF8000
001FFF8000
001FFF8000
001FFF8000
001FFF8000
001FFF8000
001FFF8000
001FFF8000
0000000000
0000000000
0000000000
0000000000
0000000000
0000000000
0000000000
001FFF8000
001FFF8000
001FFF8000
001FFF8000
001FFF8000
001FFF8000
001FFF8000
001FFF8000
001FFF8000
001FFF8000
001FFF8000
003FFF0000
007FFE0000
007FFE0000
00FFFC0000
01FFF80000
01FFF80000
03FFF00000
07FFF00000
07FFE00000
0FFFC00000
1FFFC00000
1FFF800000
3FFF000000
7FFF000000
7FFE000000
FFFE0007FF
FFFE000FFF
FFFE000FFF
FFFE001FFF
FFFE001FFF
FFFFFFFFFF
FFFFFFFFFF
FFFFFFFFFF
FFFFFFFFFF
FFFFFFFFFF
FFFFFFFFFE
FFFFFFFFFE
FFFFFFFFFC
FFFFFFFFF8
FFFFFFFFF0
FFFFFFFFF0
FFFFFFFFE0
7FFFFFFFC0
7FFFFFFFC0
ENDCHAR
STARTCHAR 00C0
ENCODING 192
SWIDTH 585 0
DWIDTH 52 0
BBX 50 75 1 0
BITMAP
007F8000000000
007FF800000000
007FFFC0000000
007FFFFE000000
007FFFFFF00000
007FFFFFFF8000
001FFFFFFF8000
0001FFFFFF8000
0000000FFF8000
00000000000000
00000000000000
00000000000000
00000000000000
0007FFFFF80000
0007FFFFF80000
000FFFFFFC0000
000FFFFFFE0000
001FFFFFFE0000
001FFFFFFE0000
001FFFFFFE0000
001FFFFFFE0000
001FFFFFFF0000
003FFFFFFF0000
003FFFFFFF0000
003FFFFFFF0000
003FFFFFFF0000
003FFFFFFF8000
007FF807FF8000
007FF807FF8000
007FF807FF8000
007FF807FF8000
007FF003FFC000
00FFF003FFC000
00FFF003FFC000
00FFF003FFC000
00FFF003FFC000
00FFF003FFE000
01FFE001FFE000
01FFE001FFE000
01FFE001FFE000
01FFE001FFE000
01FFE001FFF000
03FFE001FFF000
03FFE001FFF000
03FFC000FFF000
03FFC000FFF000
03FFC000FFF800
07FFC000FFF800
07FFC000FFF800
07FFC000FFF800
07FFC000FFF800
07FFE001FFFC00
0FFFF003FFFC00
0FFFFFFFFFFC00
0FFFFFFFFFFC00
0FFFFFFFFFFC00
0FFFFFFFFFFE00
1FFFFFFFFFFE00
1FFFFFFFFFFE00
1FFFFFFFFFFE00
1FFF7FFFBFFE00
1FFF3FFF3FFF00
3FFF00003FFF00
3FFF00003FFF00
3FFE00001FFF00
3FFE00001FFF00
3FFE00001FFF80
7FFE00001FFF80
7FFE00001FFF80
7FFE00001FFF80
7FFC00000FFF80
7FFC00000FFFC0
FFFC00000FFFC0
FFFC00000FFFC0
FFFC00000FFFC0
ENDCHAR
STARTCHAR 00C1
ENCODING 193
SWIDTH 585 0
DWIDTH 52 0
BBX 50 75 1 0
BITMAP
000000007F8000
00000FFFFF8000
000FFFFFFF8000
007FFFFFFF8000
007FFFFFFC0000
007FFFFF800000
007FFFF0000000
007FFE00000000
007FC000000000
00000000000000
00000000000000
00000000000000
00000000000000
0007FFFFF80000
0007FFFFF80000
000FFFFFFC0000
000FFFFFFE0000
001FFFFFFE0000
001FFFFFFE0000
001FFFFFFE0000
001FFFFFFE0000
001FFFFFFF0000
003FFFFFFF0000
003FFFFFFF0000
003FFFFFFF0000
003FFFFFFF0000
003FFFFFFF8000
007FF807FF8000
007FF807FF8000
007FF807FF8000
007FF807FF8000
007FF003FFC000
00FFF003FFC000
00FFF003FFC000
00FFF003FFC000
00FFF003FFC000
00FFF003FFE000
01FFE001FFE000
01FFE001FFE000
01FFE001FFE000
01FFE001FFE000
01FFE001FFF000
03FFE001FFF000
03FFE001FFF000
03FFC000FFF000
03FFC000FFF000
03FFC000FFF800
07FFC000FFF800
07FFC000FFF800
07FFC000FFF800
07FFC000FFF800
07FFE001FFFC00
0FFFF003FFFC00
0FFFFFFFFFFC00
0FFFFFFFFFFC00
0FFFFFFFFFFC00
0FFFFFFFFFFE00
1FFFFFFFFFFE00
1FFFFFFFFFFE00
1FFFFFFFFFFE00
1FFF7FFFBFFE00
1FFF3FFF3FFF00
3FFF00003FFF00
3FFF00003FFF00
3FFE00001FFF00
3FFE00001FFF00
3FFE00001FFF80
7FFE00001FFF80
7FFE00001FFF80
7FFE00001FFF80
7FFC00000FFF80
7FFC00000FFFC0
FFFC00000FFFC0
FFFC00000FFFC0
FFFC00000FFFC0
ENDCHAR
STARTCHAR 00C2
ENCODING 194
SWIDTH 585 0
DWIDTH 52 0
BBX 50 77 1 0
BITMAP
0007FFFFF00000
000FFFFFF80000
001FFFFFFC0000
003FFFFFFE0000
007FFFFFFF0000
00FFFFFFFF8000
01FFFFFFFFC000
03FF8000FFE000
03FF00007FE000
03FE00003FE000
03FC00001FE000
00000000000000
00000000000000
00000000000000
00000000000000
0007FFFFF80000
0007FFFFF80000
000FFFFFFC0000
000FFFFFFE0000
001FFFFFFE0000
001FFFFFFE0000
001FFFFFFE0000
001FFFFFFE0000
001FFFFFFF0000
003FFFFFFF0000
003FFFFFFF0000
003FFFFFFF0000
003FFFFFFF0000
003FFFFFFF8000
007FF807FF8000
007FF807FF8000
007FF807FF8000
007FF807FF8000
007FF003FFC000
00FFF003FFC000
00FFF003FFC000
00FFF003FFC000
00FFF003FFC000
00FFF003FFE000
01FFE001FFE000
01FFE001FFE000
01FFE001FFE000
01FFE001FFE000
01FFE001FFF000
03FFE001FFF000
03FFE001FFF000
03FFC000FFF000
03FFC000FFF000
03FFC000FFF800
07FFC000FFF800
07FFC000FFF800
07FFC000FFF800
07FFC000FFF800
07FFE001FFFC00
0FFFF003FFFC00
0FFFFFFFFFFC00
0FFFFFFFFFFC00
0FFFFFFFFFFC00
0FFFFFFFFFFE00
1FFFFFFFFFFE00
1FFFFFFFFFFE00
1FFFFFFFFFFE00
1FFF7FFFBFFE00
1FFF3FFF3FFF00
3FFF00003FFF00
3FFF00003FFF00
3FFE00001FFF00
3FFE00001FFF00
3FFE00001FFF80
7FFE00001FFF80
7FFE00001FFF80
7FFE00001FFF80
7FFC00000FFF80
7FFC00000FFFC0
FFFC00000FFFC0
FFFC00000FFFC0
FFFC00000FFFC0
ENDCHAR
STARTCHAR 00C3
ENCODING 195
SWIDTH 585 0
DWIDTH 52 0
BBX 50 78 1 0
BITMAP
00003000000000
0000FE00000000
0003FFC0000000
000FFFF801E000
003FFFFE07E000
00FFFFFFDFE000
01FFFFFFFFE000
01FFC7FFFFE000
01FF00FFFFE000
01FC003FFFC000
01F80007FE0000
01E00000F80000
00000000000000
00000000000000
00000000000000
00000000000000
0007FFFFF80000
0007FFFFF80000
000FFFFFFC0000
000FFFFFFE0000
001FFFFFFE0000
001FFFFFFE0000
001FFFFFFE0000
001FFFFFFE0000
001FFFFFFF0000
003FFFFFFF0000
003FFFFFFF0000
003FFFFFFF0000
003FFFFFFF0000
003FFFFFFF8000
007FF807FF8000
007FF807FF8000
007FF807FF8000
007FF807FF8000
007FF003FFC000
00FFF003FFC000
00FFF003FFC000
00FFF003FFC000
00FFF003FFC000
00FFF003FFE000
01FFE001FFE000
01FFE001FFE000
01FFE001FFE000
01FFE001FFE000
01FFE001FFF000
03FFE001FFF000
03FFE001FFF000
03FFC000FFF000
03FFC000FFF000
03FFC000FFF800
07FFC000FFF800
07FFC000FFF800
07FFC000FFF800
07FFC000FFF800
07FFE001FFFC00
0FFFF003FFFC00
0FFFFFFFFFFC00
0FFFFFFFFFFC00
0FFFFFFFFFFC00
0FFFFFFFFFFE00
1FFFFFFFFFFE00
1FFFFFFFFFFE00
1FFFFFFFFFFE00
1FFF7FFFBFFE00
1FFF3FFF3FFF00
3FFF00003FFF00
3FFF00003FFF00
3FFE00001FFF00
3FFE00001FFF00
3FFE00001FFF80
7FFE00001FFF80
7FFE00001FFF80
7FFE00001FFF80
7FFC00000FFF80
7FFC00000FFFC0
FFFC00000FFFC0
FFFC00000FFFC0
FFFC00000FFFC0
ENDCHAR
STARTCHAR 00C4
ENCODING 196
SWIDTH 585 0
DWIDTH 52 0
BBX 50 74 1 0
BITMAP
0003FC0FF00000
0003FC0FF00000
0003FC0FF00000
0003FC0FF00000
0003FC0FF00000
0003FC0FF00000
0003FC0FF00000
0003FC0FF00000
00000000000000
00000000000000
00000000000000
00000000000000
0007FFFFF80000
0007FFFFF80000
000FFFFFFC0000
000FFFFFFE0000
001FFFFFFE0000
001FFFFFFE0000
001FFFFFFE0000
001FFFFFFE0000
001FFFFFFF0000
003FFFFFFF0000
003FFFFFFF0000
003FFFFFFF0000
003FFFFFFF0000
003FFFFFFF8000
007FF807FF8000
007FF807FF8000
007FF807FF8000
007FF807FF8000
007FF003FFC000
00FFF003FFC000
00FFF003FFC000
00FFF003FFC000
00FFF003FFC000
00FFF003FFE000
01FFE001FFE000
01FFE001FFE000
01FFE001FFE000
01FFE001FFE000
01FFE001FFF000
03FFE001FFF000
03FFE001FFF000
03FFC000FFF000
03FFC000FFF000
03FFC000FFF800
07FFC000FFF800
07FFC000FFF800
07FFC000FFF800
07FFC000FFF800
07FFE001FFFC00
0FFFF003FFFC00
0FFFFFFFFFFC00
0FFFFFFFFFFC00
0FFFFFFFFFFC00
0FFFFFFFFFFE00
1FFFFFFFFFFE00
1FFFFFFFFFFE00
1FFFFFFFFFFE00
1FFF7FFFBFFE00
1FFF3FFF3FFF00
3FFF00003FFF00
3FFF00003FFF00
3FFE00001FFF00
3FFE00001FFF00
3FFE00001FFF80
7FFE00001FFF80
7FFE00001FFF80
7FFE00001FFF80
7FFC00000FFF80
7FFC00000FFFC0
FFFC00000FFFC0
FFFC00000FFFC0
FFFC00000FFFC0
ENDCHAR
STARTCHAR 00C5
ENCODING 197
SWIDTH 585 0
DWIDTH 52 0
BBX 50 78 1 0
BITMAP
00000FFC000000
00001FFE000000
00001FFF000000
00001FFF000000
00001E0F000000
00001E0F000000
00001E0F000000
00001E0F000000
00001FFF000000
00001FFF000000
00001FFE000000
00000FFC000000
00000000000000
00000000000000
00000000000000
00000000000000
0007FFFFF80000
0007FFFFF80000
000FFFFFFC0000
000FFFFFFE0000
001FFFFFFE0000
001FFFFFFE0000
001FFFFFFE0000
001FFFFFFE0000
001FFFFFFF0000
003FFFFFFF0000
003FFFFFFF0000
003FFFFFFF0000
003FFFFFFF0000
003FFFFFFF8000
007FF807FF8000
007FF807FF8000
007FF807FF8000
007FF807FF8000
007FF003FFC000
00FFF003FFC000
00FFF003FFC000
00FFF003FFC000
00FFF003FFC000
00FFF003FFE000
01FFE001FFE000
01FFE001FFE000
01FFE001FFE000
01FFE001FFE000
01FFE001FFF000
03FFE001FFF000
03FFE001FFF000
03FFC000FFF000
03FFC000FFF000
03FFC000FFF800
07FFC000FFF800
07FFC000FFF800
07FFC000FFF800
07FFC000FFF800
07FFE001FFFC00
0FFFF003FFFC00
0FFFFFFFFFFC00
0FFFFFFFFFFC00
0FFFFFFFFFFC00
0FFFFFFFFFFE00
1FFFFFFFFFFE00
1FFFFFFFFFFE00
1FFFFFFFFFFE00
1FFF7FFFBFFE00
1FFF3FFF3FFF00
3FFF00003FFF00
3FFF00003FFF00
3FFE00001FFF00
3FFE00001FFF00
3FFE00001FFF80
7FFE00001FFF80
7FFE00001FFF80
7FFE00001FFF80
7FFC00000FFF80
7FFC00000FFFC0
FFFC00000FFFC0
FFFC00000FFFC0
FFFC00000FFFC0
ENDCHAR
STARTCHAR 00C6
ENCODING 198
SWIDTH 832 0
DWIDTH 74 0
BBX 70 62 1 0
BITMAP
0007FFFFFFFFFFFF00
0007FFFFFFFFFFFF00
000FFFFFFFFFFFFF80
000FFFFFFFFFFFFFC0
001FFFFFFFFFFFFFC0
001FFFFFFFFFFFFFE0
001FFFFFFFFFFFFFF0
001FFFFFFFFFFFFFF8
001FFFFFFFFFFFFFF8
003FFFFFFFFFFFFFFC
003FFFFFFFFFFFFFFC
003FFFFFFFFFFFFFFC
003FFFFFFFFFFFFFFC
003FFFFFFFFFFFFFFC
007FF807FFE0003FFC
007FF807FFE0001FFC
007FF807FFE0001FFC
007FF807FFE0000000
007FF007FFE0000000
00FFF007FFE0000000
00FFF007FFE0000000
00FFF007FFE0000000
00FFF007FFE0000000
00FFF007FFE0000000
01FFE007FFE0000000
01FFE007FFE0000000
01FFE007FFFFFFE000
01FFE007FFFFFFE000
01FFE007FFFFFFE000
03FFE007FFFFFFE000
03FFE007FFFFFFE000
03FFC007FFFFFFE000
03FFC007FFFFFFE000
03FFC007FFFFFFE000
07FFC007FFFFFFE000
07FFC007FFFFFFE000
07FFC007FFE0000000
07FFC007FFE0000000
07FFE007FFE0000000
0FFFF007FFE0000000
0FFFFFFFFFE0000000
0FFFFFFFFFE0000000
0FFFFFFFFFE0000000
0FFFFFFFFFE0000000
1FFFFFFFFFE0000000
1FFFFFFFFFE0001FFC
1FFFFFFFFFE0003FFC
1FFF7FFFFFE0003FFC
1FFF3FFFFFFFFFFFFC
3FFF0007FFFFFFFFFC
3FFF0007FFFFFFFFFC
3FFE0007FFFFFFFFFC
3FFE0007FFFFFFFFFC
3FFE0007FFFFFFFFF8
7FFE0007FFFFFFFFF0
7FFE0007FFFFFFFFF0
7FFE0007FFFFFFFFE0
7FFC0007FFFFFFFFC0
7FFC0007FFFFFFFFC0
FFFC0007FFFFFFFF80
FFFC0007FFFFFFFF00
FFFC0007FFFFFFFE00
ENDCHAR
STARTCHAR 00C7
ENCODING 199
SWIDTH 540 0
DWIDTH 48 0
BBX 41 75 4 -13
BITMAP
FFFFFFFFC000
FFFFFFFFE000
FFFFFFFFF000
FFFFFFFFF800
FFFFFFFFF800
FFFFFFFFFC00
FFFFFFFFFE00
FFFFFFFFFE00
FFFFFFFFFF00
FFFFFFFFFF80
FFFFFFFFFF80
FFFFFFFFFF80
FFFFFFFFFF80
FFFFFFFFFF80
FFF8003FFF80
FFF8001FFF80
FFF8000FFF80
FFF800000000
FFF800000000
FFF800000000
FFF800000000
FFF800000000
FFF800000000
FFF800000000
FFF800000000
FFF800000000
FFF800000000
FFF800000000
FFF800000000
FFF800000000
FFF800000000
FFF800000000
FFF800000000
FFF800000000
FFF800000000
FFF800000000
FFF800000000
FFF800000000
FFF800000000
FFF800000000
FFF800000000
FFF800000000
FFF800000000
FFF800000000
FFF800000000
FFF8000FFF80
FFF8001FFF80
FFF8003FFF80
FFFFFFFFFF80
FFFFFFFFFF80
FFFFFFFFFF80
FFFFFFFFFF80
FFFFFFFFFF80
FFFFFFFFFF00
FFFFFFFFFE00
FFFFFFFFFE00
FFFFFFFFFC00
FFFFFFFFF800
FFFFFFFFF000
FFFFFFFFF000
FFFFFFFFE000
FFFFFFFFC000
00000F800000
00001F000000
00001F000000
0001FE000000
0001FE000000
0001FE000000
0001FE000000
00003E000000
00003E000000
000FFE000000
000FFC000000
001FFC000000
001FF8000000
ENDCHAR
STARTCHAR 00C8
ENCODING 200
SWIDTH 540 0
DWIDTH 48 0
BBX 41 75 4 0
BITMAP
0FF000000000
0FFF00000000
0FFFF8000000
0FFFFFC00000
0FFFFFFE0000
0FFFFFFFE000
03FFFFFFE000
003FFFFFE000
000001FFE000
000000000000
000000000000
000000000000
000000000000
FFFFFFFFC000
FFFFFFFFE000
FFFFFFFFF000
FFFFFFFFF000
FFFFFFFFF800
FFFFFFFFFC00
FFFFFFFFFC00
FFFFFFFFFE00
FFFFFFFFFF00
FFFFFFFFFF80
FFFFFFFFFF80
FFFFFFFFFF80
FFFFFFFFFF80
FFFFFFFFFF80
FFF8000FFF80
FFF80007FF80
FFF80003FF80
FFF800000000
FFF800000000
FFF800000000
FFF800000000
FFF800000000
FFF800000000
FFF800000000
FFF800000000
FFF800000000
FFFFFFFC0000
FFFFFFFC0000
FFFFFFFC0000
FFFFFFFC0000
FFFFFFFC0000
FFFFFFFC0000
FFFFFFFC0000
FFFFFFFC0000
FFFFFFFC0000
FFFFFFFC0000
FFF800000000
FFF800000000
FFF800000000
FFF800000000
FFF800000000
FFF800000000
FFF800000000
FFF800000000
FFF800000000
FFF80003FF80
FFF80007FF80
FFF8000FFF80
FFFFFFFFFF80
FFFFFFFFFF80
FFFFFFFFFF80
FFFFFFFFFF80
FFFFFFFFFF00
FFFFFFFFFF00
FFFFFFFFFE00
FFFFFFFFFC00
FFFFFFFFFC00
FFFFFFFFF800
FFFFFFFFF000
FFFFFFFFE000
FFFFFFFFE000
FFFFFFFFC000
ENDCHAR
STARTCHAR 00C9
ENCODING 201
SWIDTH 540 0
DWIDTH 48 0
BBX 41 75 4 0
BITMAP
0000000FE000
0001FFFFE000
01FFFFFFE000
0FFFFFFFE000
0FFFFFFF8000
0FFFFFF00000
0FFFFE000000
0FFFC0000000
0FF800000000
000000000000
000000000000
000000000000
000000000000
FFFFFFFFC000
FFFFFFFFE000
FFFFFFFFF000
FFFFFFFFF000
FFFFFFFFF800
FFFFFFFFFC00
FFFFFFFFFC00
FFFFFFFFFE00
FFFFFFFFFF00
FFFFFFFFFF80
FFFFFFFFFF80
FFFFFFFFFF80
FFFFFFFFFF80
FFFFFFFFFF80
FFF8000FFF80
FFF80007FF80
FFF80003FF80
FFF800000000
FFF800000000
FFF800000000
FFF800000000
FFF800000000
FFF800000000
FFF800000000
FFF800000000
FFF800000000
FFFFFFFC0000
FFFFFFFC0000
FFFFFFFC0000
FFFFFFFC0000
FFFFFFFC0000
FFFFFFFC0000
FFFFFFFC0000
FFFFFFFC0000
FFFFFFFC0000
FFFFFFFC0000
FFF800000000
FFF800000000
FFF800000000
FFF800000000
FFF800000000
FFF800000000
FFF800000000
FFF800000000
FFF800000000
FFF80003FF80
FFF80007FF80
FFF8000FFF80
FFFFFFFFFF80
FFFFFFFFFF80
FFFFFFFFFF80
FFFFFFFFFF80
FFFFFFFFFF00
FFFFFFFFFF00
FFFFFFFFFE00
FFFFFFFFFC00
FFFFFFFFFC00
FFFFFFFFF800
FFFFFFFFF000
FFFFFFFFE000
FFFFFFFFE000
FFFFFFFFC000
ENDCHAR
STARTCHAR 00CA
ENCODING 202
SWIDTH 540 0
DWIDTH 48 0
BBX 41 77 4 0
BITMAP
03FFFFF80000
07FFFFFC0000
0FFFFFFE0000
1FFFFFFF0000
3FFFFFFF8000
7FFFFFFFC000
FFFFFFFFE000
FFE0007FF000
FF80003FF000
FF00001FF000
FE00000FF000
000000000000
000000000000
000000000000
000000000000
FFFFFFFFC000
FFFFFFFFE000
FFFFFFFFF000
FFFFFFFFF000
FFFFFFFFF800
FFFFFFFFFC00
FFFFFFFFFC00
FFFFFFFFFE00
FFFFFFFFFF00
FFFFFFFFFF80
FFFFFFFFFF80
FFFFFFFFFF80
FFFFFFFFFF80
FFFFFFFFFF80
FFF8000FFF80
FFF80007FF80
FFF80003FF80
FFF800000000
FFF800000000
FFF800000000
FFF800000000
FFF800000000
FFF800000000
FFF800000000
FFF800000000
FFF800000000
FFFFFFFC0000
FFFFFFFC0000
FFFFFFFC0000
FFFFFFFC0000
FFFFFFFC0000
FFFFFFFC0000
FFFFFFFC0000
FFFFFFFC0000
FFFFFFFC0000
FFFFFFFC0000
FFF800000000
FFF800000000
FFF800000000
FFF800000000
FFF800000000
FFF800000000
FFF800000000
FFF800000000
FFF800000000
FFF80003FF80
FFF80007FF80
FFF8000FFF80
FFFFFFFFFF80
FFFFFFFFFF80
FFFFFFFFFF80
FFFFFFFFFF80
FFFFFFFFFF00
FFFFFFFFFF00
FFFFFFFFFE00
FFFFFFFFFC00
FFFFFFFFFC00
FFFFFFFFF800
FFFFFFFFF000
FFFFFFFFE000
FFFFFFFFE000
FFFFFFFFC000
ENDCHAR
STARTCHAR 00CB
ENCODING 203
SWIDTH 540 0
DWIDTH 48 0
BBX 41 74 4 0
BITMAP
01FF03FC0000
01FF03FC0000
01FF03FC0000
01FF03FC0000
01FF03FC0000
01FF03FC0000
01FF03FC0000
01FF03FC0000
000000000000
000000000000
000000000000
000000000000
FFFFFFFFC000
FFFFFFFFE000
FFFFFFFFF000
FFFFFFFFF000
FFFFFFFFF800
FFFFFFFFFC00
FFFFFFFFFC00
FFFFFFFFFE00
FFFFFFFFFF00
FFFFFFFFFF80
FFFFFFFFFF80
FFFFFFFFFF80
FFFFFFFFFF80
FFFFFFFFFF80
FFF8000FFF80
FFF80007FF80
FFF80003FF80
FFF800000000
FFF800000000
FFF800000000
FFF800000000
FFF800000000
FFF800000000
FFF800000000
FFF800000000
FFF800000000
FFFFFFFC0000
FFFFFFFC0000
FFFFFFFC0000
FFFFFFFC0000
FFFFFFFC0000
FFFFFFFC0000
FFFFFFFC0000
FFFFFFFC0000
FFFFFFFC0000
FFFFFFFC0000
FFF800000000
FFF800000000
FFF800000000
FFF800000000
FFF800000000
FFF800000000
FFF800000000
FFF800000000
FFF800000000
FFF80003FF80
FFF80007FF80
FFF8000FFF80
FFFFFFFFFF80
FFFFFFFFFF80
FFFFFFFFFF80
FFFFFFFFFF80
FFFFFFFFFF00
FFFFFFFFFF00
FFFFFFFFFE00
FFFFFFFFFC00
FFFFFFFFFC00
FFFFFFFFF800
FFFFFFFFF000
FFFFFFFFE000
FFFFFFFFE000
FFFFFFFFC000
ENDCHAR
STARTCHAR 00CC
ENCODING 204
SWIDTH 225 0
DWIDTH 20 0
BBX 32 75 -4 0
BITMAP
FF000000
FFF80000
FFFFC000
FFFFFE00
FFFFFFF0
FFFFFFFF
1FFFFFFF
01FFFFFF
00000FFF
00000000
00000000
00000000
00000000
00FFF800
00FFF800
00FFF800
00FFF800
00FFF800
00FFF800
00FFF800
00FFF800
00FFF800
00FFF800
00FFF800
00FFF800
00FFF800
00FFF800
00FFF800
00FFF800
00FFF800
00FFF800
00FFF800
00FFF800
00FFF800
00FFF800
00FFF800
00FFF800
00FFF800
00FFF800
00FFF800
00FFF800
00FFF800
00FFF800
00FFF800
00FFF800
00FFF800
00FFF800
00FFF800
00FFF800
00FFF800
00FFF800
00FFF800
00FFF800
00FFF800
00FFF800
00FFF800
00FFF800
00FFF800
00FFF800
00FFF800
00FFF800
00FFF800
00FFF800
00FFF800
00FFF800
00FFF800
00FFF800
00FFF800
00FFF800
00FFF800
00FFF800
00FFF800
00FFF800
00FFF800
00FFF800
ENDCHAR
STARTCHAR 00CD
ENCODING 205
SWIDTH 225 0
DWIDTH 20 0
BBX 32 75 -5 0
BITMAP
000000FF
001FFFFF
1FFFFFFF
FFFFFFFF
FFFFFFF8
FFFFFF00
FFFFE000
FFFC0000
FF800000
00000000
00000000
00000000
00000000
007FFC00
007FFC00
007FFC00
007FFC00
007FFC00
007FFC00
007FFC00
007FFC00
007FFC00
007FFC00
007FFC00
007FFC00
007FFC00
007FFC00
007FFC00
007FFC00
007FFC00
007FFC00
007FFC00
007FFC00
007FFC00
007FFC00
007FFC00
007FFC00
007FFC00
007FFC00
007FFC00
007FFC00
007FFC00
007FFC00
007FFC00
007FFC00
007FFC00
007FFC00
007FFC00
007FFC00
007FFC00
007FFC00
007FFC00
007FFC00
007FFC00
007FFC00
007FFC00
007FFC00
007FFC00
007FFC00
007FFC00
007FFC00
007FFC00
007FFC00
007FFC00
007FFC00
007FFC00
007FFC00
007FFC00
007FFC00
007FFC00
007FFC00
007FFC00
007FFC00
007FFC00
007FFC00
ENDCHAR
STARTCHAR 00CE
ENCODING 206
SWIDTH 483 0
DWIDTH 43 0
BBX 36 77 4 0
BITMAP
03FFFFF800
07FFFFFC00
0FFFFFFE00
1FFFFFFF00
3FFFFFFF80
7FFFFFFFC0
FFFFFFFFE0
FFE0007FF0
FF80003FF0
FF00001FF0
FE00000FF0
0000000000
0000000000
0000000000
0000000000
001FFF8000
001FFF8000
001FFF8000
001FFF8000
001FFF8000
001FFF8000
001FFF8000
001FFF8000
001FFF8000
001FFF8000
001FFF8000
001FFF8000
001FFF8000
001FFF8000
001FFF8000
001FFF8000
001FFF8000
001FFF8000
001FFF8000
001FFF8000
001FFF8000
001FFF8000
001FFF8000
001FFF8000
001FFF8000
001FFF8000
001FFF8000
001FFF8000
001FFF8000
001FFF8000
001FFF8000
001FFF8000
001FFF8000
001FFF8000
001FFF8000
001FFF8000
001FFF8000
001FFF8000
001FFF8000
001FFF8000
001FFF8000
001FFF8000
001FFF8000
001FFF8000
001FFF8000
001FFF8000
001FFF8000
001FFF8000
001FFF8000
001FFF8000
001FFF8000
001FFF8000
001FFF8000
001FFF8000
001FFF8000
001FFF8000
001FFF8000
001FFF8000
001FFF8000
001FFF8000
001FFF8000
001FFF8000
ENDCHAR
STARTCHAR 00CF
ENCODING 207
SWIDTH 225 0
DWIDTH 20 0
BBX 23 74 -1 0
BITMAP
FF01FE
FF01FE
FF01FE
FF01FE
FF01FE
FF01FE
FF01FE
FF01FE
000000
000000
000000
000000
07FFC0
07FFC0
07FFC0
07FFC0
07FFC0
07FFC0
07FFC0
07FFC0
07FFC0
07FFC0
07FFC0
07FFC0
07FFC0
07FFC0
07FFC0
07FFC0
07FFC0
07FFC0
07FFC0
07FFC0
07FFC0
07FFC0
07FFC0
07FFC0
07FFC0
07FFC0
07FFC0
07FFC0
07FFC0
07FFC0
07FFC0
07FFC0
07FFC0
07FFC0
07FFC0
07FFC0
07FFC0
07FFC0
07FFC0
07FFC0
07FFC0
07FFC0
07FFC0
07FFC0
07FFC0
07FFC0
07FFC0
07FFC0
07FFC0
07FFC0
07FFC0
07FFC0
07FFC0
07FFC0
07FFC0
07FFC0
07FFC0
07FFC0
07FFC0
07FFC0
07FFC0
07FFC0
ENDCHAR
STARTCHAR 00D0
ENCODING 208
SWIDTH 573 0
DWIDTH 51 0
BBX 50 62 -2 0
BITMAP
03FFFFFFFFE000
03FFFFFFFFF000
03FFFFFFFFF800
03FFFFFFFFFC00
03FFFFFFFFFC00
03FFFFFFFFFE00
03FFFFFFFFFF00
03FFFFFFFFFF00
03FFFFFFFFFF80
03FFFFFFFFFFC0
03FFFFFFFFFFC0
03FFFFFFFFFFC0
03FFFFFFFFFFC0
03FFFFFFFFFFC0
03FFE0001FFFC0
03FFE0001FFFC0
03FFE0000FFFC0
03FFE0000FFFC0
03FFE0000FFFC0
03FFE0000FFFC0
03FFE0000FFFC0
03FFE0000FFFC0
03FFE0000FFFC0
03FFE0000FFFC0
03FFE0000FFFC0
03FFE0000FFFC0
03FFE0000FFFC0
FFFFFFE00FFFC0
FFFFFFE00FFFC0
FFFFFFE00FFFC0
FFFFFFE00FFFC0
FFFFFFE00FFFC0
FFFFFFE00FFFC0
FFFFFFE00FFFC0
FFFFFFE00FFFC0
FFFFFFE00FFFC0
03FFE0000FFFC0
03FFE0000FFFC0
03FFE0000FFFC0
03FFE0000FFFC0
03FFE0000FFFC0
03FFE0000FFFC0
03FFE0000FFFC0
03FFE0000FFFC0
03FFE0000FFFC0
03FFE0000FFFC0
03FFE0001FFFC0
03FFE0003FFFC0
03FFFFFFFFFFC0
03FFFFFFFFFFC0
03FFFFFFFFFFC0
03FFFFFFFFFFC0
03FFFFFFFFFFC0
03FFFFFFFFFF80
03FFFFFFFFFF00
03FFFFFFFFFF00
03FFFFFFFFFE00
03FFFFFFFFFC00
03FFFFFFFFF800
03FFFFFFFFF800
03FFFFFFFFF000
03FFFFFFFFE000
ENDCHAR
STARTCHAR 00D1
ENCODING 209
SWIDTH 562 0
DWIDTH 50 0
BBX 43 78 4 0
BITMAP
000180000000
0007F0000000
001FFE000000
007FFFC00F00
01FFFFF83F00
07FFFFFEFF00
0FFFFFFFFF00
0FFE3FFFFF00
0FF807FFFF00
0FE001FFFE00
0FC0003FF000
0F000007C000
000000000000
000000000000
000000000000
000000000000
03FC0003FFE0
07FC0003FFE0
07FE0003FFE0
0FFE0003FFE0
1FFE0003FFE0
1FFF0003FFE0
3FFF0003FFE0
7FFF8003FFE0
FFFF8003FFE0
FFFFC003FFE0
FFFFC003FFE0
FFFFE003FFE0
FFFFE003FFE0
FFFFF003FFE0
FFFFF003FFE0
FFFFF003FFE0
FFFFF803FFE0
FFFFF803FFE0
FFFFFC03FFE0
FFFFFC03FFE0
FFFFFE03FFE0
FFFFFE03FFE0
FFFFFF03FFE0
FFFFFF03FFE0
FFFFFF03FFE0
FFFFFF83FFE0
FFFFFF83FFE0
FFFFFFC3FFE0
FFFFFFC3FFE0
FFFFFFE3FFE0
FFFFFFE3FFE0
FFF8FFFFFFE0
FFF8FFFFFFE0
FFF87FFFFFE0
FFF87FFFFFE0
FFF83FFFFFE0
FFF83FFFFFE0
FFF81FFFFFE0
FFF81FFFFFE0
FFF81FFFFFE0
FFF80FFFFFE0
FFF80FFFFFE0
FFF807FFFFE0
FFF807FFFFE0
FFF803FFFFE0
FFF803FFFFE0
FFF801FFFFE0
FFF801FFFFE0
FFF801FFFFE0
FFF800FFFFE0
FFF800FFFFE0
FFF8007FFFE0
FFF8007FFFE0
FFF8003FFFC0
FFF8003FFFC0
FFF8001FFF80
FFF8001FFF00
FFF8001FFE00
FFF8000FFE00
FFF8000FFC00
FFF80007F800
FFF80007F800
ENDCHAR
STARTCHAR 00D2
ENCODING 210
SWIDTH 618 0
DWIDTH 55 0
BBX 48 75 4 0
BITMAP
007F00000000
007FF8000000
007FFFC00000
007FFFFE0000
007FFFFFF000
007FFFFFFF00
001FFFFFFF00
0001FFFFFF00
0000000FFF00
000000000000
000000000000
000000000000
000000000000
03FFFFFFFF80
07FFFFFFFFC0
07FFFFFFFFC0
0FFFFFFFFFE0
1FFFFFFFFFF0
1FFFFFFFFFF8
3FFFFFFFFFF8
7FFFFFFFFFFC
FFFFFFFFFFFE
FFFFFFFFFFFE
FFFFFFFFFFFF
FFFFFFFFFFFF
FFFFFFFFFFFF
FFFFFFFFFFFF
FFFE0000FFFF
FFFC00007FFF
FFF800003FFF
FFF800003FFF
FFF800003FFF
FFF800003FFF
FFF800003FFF
FFF800003FFF
FFF800003FFF
FFF800003FFF
FFF800003FFF
FFF800003FFF
FFF800003FFF
FFF800003FFF
FFF800003FFF
FFF800003FFF
FFF800003FFF
FFF800003FFF
FFF800003FFF
FFF800003FFF
FFF800003FFF
FFF800003FFF
FFF800003FFF
FFF800003FFF
FFF800003FFF
FFF800003FFF
FFF800003FFF
FFF800003FFF
FFF800003FFF
FFF800003FFF
FFF800003FFF
FFFC00007FFF
FFFC00007FFF
FFFE0000FFFF
FFFFFFFFFFFF
FFFFFFFFFFFF
FFFFFFFFFFFF
FFFFFFFFFFFF
FFFFFFFFFFFE
7FFFFFFFFFFE
7FFFFFFFFFFC
3FFFFFFFFFF8
1FFFFFFFFFF0
1FFFFFFFFFF0
0FFFFFFFFFE0
07FFFFFFFFC0
03FFFFFFFFC0
03FFFFFFFF80
ENDCHAR
STARTCHAR 00D3
ENCODING 211
SWIDTH 618 0
DWIDTH 55 0
BBX 48 75 4 0
BITMAP
000000007F00
00001FFFFF00
000FFFFFFF00
007FFFFFFF00
007FFFFFFC00
007FFFFF8000
007FFFF00000
007FFE000000
007FC0000000
000000000000
000000000000
000000000000
000000000000
03FFFFFFFF80
07FFFFFFFFC0
07FFFFFFFFC0
0FFFFFFFFFE0
1FFFFFFFFFF0
1FFFFFFFFFF8
3FFFFFFFFFF8
7FFFFFFFFFFC
FFFFFFFFFFFE
FFFFFFFFFFFE
FFFFFFFFFFFF
FFFFFFFFFFFF
FFFFFFFFFFFF
FFFFFFFFFFFF
FFFE0000FFFF
FFFC00007FFF
FFF800003FFF
FFF800003FFF
FFF800003FFF
FFF800003FFF
FFF800003FFF
FFF800003FFF
FFF800003FFF
FFF800003FFF
FFF800003FFF
FFF800003FFF
FFF800003FFF
FFF800003FFF
FFF800003FFF
FFF800003FFF
FFF800003FFF
FFF800003FFF
FFF800003FFF
FFF800003FFF
FFF800003FFF
FFF800003FFF
FFF800003FFF
FFF800003FFF
FFF800003FFF
FFF800003FFF
FFF800003FFF
FFF800003FFF
FFF800003FFF
FFF800003FFF
FFF800003FFF
FFFC00007FFF
FFFC00007FFF
FFFE0000FFFF
FFFFFFFFFFFF
FFFFFFFFFFFF
FFFFFFFFFFFF
FFFFFFFFFFFF
FFFFFFFFFFFE
7FFFFFFFFFFE
7FFFFFFFFFFC
3FFFFFFFFFF8
1FFFFFFFFFF0
1FFFFFFFFFF0
0FFFFFFFFFE0
07FFFFFFFFC0
03FFFFFFFFC0
03FFFFFFFF80
ENDCHAR
STARTCHAR 00D4
ENCODING 212
SWIDTH 618 0
DWIDTH 55 0
BBX 48 77 4 0
BITMAP
000FFFFFE000
001FFFFFF000
003FFFFFF800
007FFFFFFC00
00FFFFFFFE00
01FFFFFFFF00
03FFFFFFFF80
07FF0001FFC0
07FE0000FFC0
07FC00007FC0
07F800003FC0
000000000000
000000000000
000000000000
000000000000
03FFFFFFFF80
07FFFFFFFFC0
07FFFFFFFFC0
0FFFFFFFFFE0
1FFFFFFFFFF0
1FFFFFFFFFF8
3FFFFFFFFFF8
7FFFFFFFFFFC
FFFFFFFFFFFE
FFFFFFFFFFFE
FFFFFFFFFFFF
FFFFFFFFFFFF
FFFFFFFFFFFF
FFFFFFFFFFFF
FFFE0000FFFF
FFFC00007FFF
FFF800003FFF
FFF800003FFF
FFF800003FFF
FFF800003FFF
FFF800003FFF
FFF800003FFF
FFF800003FFF
FFF800003FFF
FFF800003FFF
FFF800003FFF
FFF800003FFF
FFF800003FFF
FFF800003FFF
FFF800003FFF
FFF800003FFF
FFF800003FFF
FFF800003FFF
FFF800003FFF
FFF800003FFF
FFF800003FFF
FFF800003FFF
FFF800003FFF
FFF800003FFF
FFF800003FFF
FFF800003FFF
FFF800003FFF
FFF800003FFF
FFF800003FFF
FFF800003FFF
FFFC00007FFF
FFFC00007FFF
FFFE0000FFFF
FFFFFFFFFFFF
FFFFFFFFFFFF
FFFFFFFFFFFF
FFFFFFFFFFFF
FFFFFFFFFFFE
7FFFFFFFFFFE
7FFFFFFFFFFC
3FFFFFFFFFF8
1FFFFFFFFFF0
1FFFFFFFFFF0
0FFFFFFFFFE0
07FFFFFFFFC0
03FFFFFFFFC0
03FFFFFFFF80
ENDCHAR
STARTCHAR 00D5
ENCODING 213
SWIDTH 618 0
DWIDTH 55 0
BBX 48 78 4 0
BITMAP
000060000000
0001FC000000
0007FF000000
001FFFE003C0
007FFFFC0FC0
01FFFFFFBFC0
07FFFFFFFFC0
07FF1FFFFFC0
07FE03FFFFC0
07F8007FFF00
07F0000FFC00
07C00001F000
000000000000
000000000000
000000000000
000000000000
03FFFFFFFF80
07FFFFFFFFC0
07FFFFFFFFC0
0FFFFFFFFFE0
1FFFFFFFFFF0
1FFFFFFFFFF8
3FFFFFFFFFF8
7FFFFFFFFFFC
FFFFFFFFFFFE
FFFFFFFFFFFE
FFFFFFFFFFFF
FFFFFFFFFFFF
FFFFFFFFFFFF
FFFFFFFFFFFF
FFFE0000FFFF
FFFC00007FFF
FFF800003FFF
FFF800003FFF
FFF800003FFF
FFF800003FFF
FFF800003FFF
FFF800003FFF
FFF800003FFF
FFF800003FFF
FFF800003FFF
FFF800003FFF
FFF800003FFF
FFF800003FFF
FFF800003FFF
FFF800003FFF
FFF800003FFF
FFF800003FFF
FFF800003FFF
FFF800003FFF
FFF800003FFF
FFF800003FFF
FFF800003FFF
FFF800003FFF
FFF800003FFF
FFF800003FFF
FFF800003FFF
FFF800003FFF
FFF800003FFF
FFF800003FFF
FFF800003FFF
FFFC00007FFF
FFFC00007FFF
FFFE0000FFFF
FFFFFFFFFFFF
FFFFFFFFFFFF
FFFFFFFFFFFF
FFFFFFFFFFFF
FFFFFFFFFFFE
7FFFFFFFFFFE
7FFFFFFFFFFC
3FFFFFFFFFF8
1FFFFFFFFFF0
1FFFFFFFFFF0
0FFFFFFFFFE0
07FFFFFFFFC0
03FFFFFFFFC0
03FFFFFFFF80
ENDCHAR
STARTCHAR 00D6
ENCODING 214
SWIDTH 618 0
DWIDTH 55 0
BBX 48 74 4 0
BITMAP
000FF01FE000
000FF01FE000
000FF01FE000
000FF01FE000
000FF01FE000
000FF01FE000
000FF01FE000
000FF01FE000
000000000000
000000000000
000000000000
000000000000
03FFFFFFFF80
07FFFFFFFFC0
07FFFFFFFFC0
0FFFFFFFFFE0
1FFFFFFFFFF0
1FFFFFFFFFF8
3FFFFFFFFFF8
7FFFFFFFFFFC
FFFFFFFFFFFE
FFFFFFFFFFFE
FFFFFFFFFFFF
FFFFFFFFFFFF
FFFFFFFFFFFF
FFFFFFFFFFFF
FFFE0000FFFF
FFFC00007FFF
FFF800003FFF
FFF800003FFF
FFF800003FFF
FFF800003FFF
FFF800003FFF
FFF800003FFF
FFF800003FFF
FFF800003FFF
FFF800003FFF
FFF800003FFF
FFF800003FFF
FFF800003FFF
FFF800003FFF
FFF800003FFF
FFF800003FFF
FFF800003FFF
FFF800003FFF
FFF800003FFF
FFF800003FFF
FFF800003FFF
FFF800003FFF
FFF800003FFF
FFF800003FFF
FFF800003FFF
FFF800003FFF
FFF800003FFF
FFF800003FFF
FFF800003FFF
FFF800003FFF
FFFC00007FFF
FFFC00007FFF
FFFE0000FFFF
FFFFFFFFFFFF
FFFFFFFFFFFF
FFFFFFFFFFFF
FFFFFFFFFFFF
FFFFFFFFFFFE
7FFFFFFFFFFE
7FFFFFFFFFFC
3FFFFFFFFFF8
1FFFFFFFFFF0
1FFFFFFFFFF0
0FFFFFFFFFE0
07FFFFFFFFC0
03FFFFFFFFC0
03FFFFFFFF80
ENDCHAR
STARTCHAR 00D7
ENCODING 215
SWIDTH 405 0
DWIDTH 36 0
BBX 32 29 2 15
BITMAP
06000060
0F0000F0
1F8001F8
1FE003FC
3FF007FE
7FF80FFF
FFFC3FFF
7FFE7FFE
1FFFFFFC
0FFFFFF8
07FFFFE0
03FFFFC0
01FFFF80
007FFF00
007FFF00
00FFFF80
03FFFFC0
07FFFFE0
0FFFFFF0
1FFFFFFC
3FFF7FFE
FFFC3FFF
FFF81FFF
7FF007FE
3FE003FE
1FC001FC
1F0000F8
0E000070
04000000
ENDCHAR
STARTCHAR 00D8
ENCODING 216
SWIDTH 618 0
DWIDTH 55 0
BBX 48 76 4 -7
BITMAP
000000000FFC
000000000FFC
000000001FF8
000000001FF8
000000003FF0
000000003FF0
000000007FE0
03FFFFFFFFE0
07FFFFFFFFC0
07FFFFFFFFC0
0FFFFFFFFFE0
1FFFFFFFFFF0
1FFFFFFFFFF8
3FFFFFFFFFF8
7FFFFFFFFFFC
FFFFFFFFFFFE
FFFFFFFFFFFE
FFFFFFFFFFFF
FFFFFFFFFFFF
FFFFFFFFFFFF
FFFFFFFFFFFF
FFFE003FFFFF
FFFC003FFFFF
FFF8007FFFFF
FFF8007FFFFF
FFF800FFFFFF
FFF800FFFFFF
FFF801FFBFFF
FFF801FFBFFF
FFF801FF3FFF
FFF803FF3FFF
FFF803FE3FFF
FFF807FE3FFF
FFF807FC3FFF
FFF80FFC3FFF
FFF80FFC3FFF
FFF81FF83FFF
FFF81FF83FFF
FFF83FF03FFF
FFF83FF03FFF
FFF87FE03FFF
FFF87FE03FFF
FFF8FFC03FFF
FFF8FFC03FFF
FFF9FF803FFF
FFF9FF803FFF
FFF9FF003FFF
FFFBFF003FFF
FFFBFE003FFF
FFFFFE003FFF
FFFFFC003FFF
FFFFFC003FFF
FFFFFC007FFF
FFFFF8007FFF
FFFFF800FFFF
FFFFFFFFFFFF
FFFFFFFFFFFF
FFFFFFFFFFFF
FFFFFFFFFFFF
FFFFFFFFFFFE
7FFFFFFFFFFE
7FFFFFFFFFFC
3FFFFFFFFFF8
1FFFFFFFFFF0
1FFFFFFFFFF0
0FFFFFFFFFE0
07FFFFFFFFC0
07FFFFFFFFC0
0FFFFFFFFF80
0FFC00000000
1FF800000000
1FF800000000
3FF000000000
3FF000000000
7FE000000000
7FE000000000
ENDCHAR
STARTCHAR 00D9
ENCODING 217
SWIDTH 607 0
DWIDTH 54 0
BBX 47 75 4 0
BITMAP
00FF00000000
00FFF8000000
00FFFFC00000
00FFFFFE0000
00FFFFFFE000
00FFFFFFFF00
003FFFFFFF00
0003FFFFFF00
0000000FFF00
000000000000
000000000000
000000000000
000000000000
FFF800007FFE
FFF800007FFE
FFF800007FFE
FFF800007FFE
FFF800007FFE
FFF800007FFE
FFF800007FFE
FFF800007FFE
FFF800007FFE
FFF800007FFE
FFF800007FFE
FFF800007FFE
FFF800007FFE
FFF800007FFE
FFF800007FFE
FFF800007FFE
FFF800007FFE
FFF800007FFE
FFF800007FFE
FFF800007FFE
FFF800007FFE
FFF800007FFE
FFF800007FFE
FFF800007FFE
FFF800007FFE
FFF800007FFE
FFF800007FFE
FFF800007FFE
FFF800007FFE
FFF800007FFE
FFF800007FFE
FFF800007FFE
FFF800007FFE
FFF800007FFE
FFF800007FFE
FFF800007FFE
FFF800007FFE
FFF800007FFE
FFF800007FFE
FFF800007FFE
FFF800007FFE
FFF800007FFE
FFF800007FFE
FFF800007FFE
FFF800007FFE
FFFC00007FFE
FFFC0000FFFE
FFFE0001FFFE
FFFFFFFFFFFE
FFFFFFFFFFFE
FFFFFFFFFFFE
FFFFFFFFFFFE
FFFFFFFFFFFE
7FFFFFFFFFFC
7FFFFFFFFFF8
3FFFFFFFFFF0
1FFFFFFFFFF0
1FFFFFFFFFE0
0FFFFFFFFFC0
07FFFFFFFFC0
03FFFFFFFF80
03FFFFFFFF00
ENDCHAR
STARTCHAR 00DA
ENCODING 218
SWIDTH 607 0
DWIDTH 54 0
BBX 47 75 4 0
BITMAP
000000007F00
00001FFFFF00
001FFFFFFF00
00FFFFFFFF00
00FFFFFFF800
00FFFFFF0000
00FFFFF00000
00FFFE000000
00FFC0000000
000000000000
000000000000
000000000000
000000000000
FFF800007FFE
FFF800007FFE
FFF800007FFE
FFF800007FFE
FFF800007FFE
FFF800007FFE
FFF800007FFE
FFF800007FFE
FFF800007FFE
FFF800007FFE
FFF800007FFE
FFF800007FFE
FFF800007FFE
FFF800007FFE
FFF800007FFE
FFF800007FFE
FFF800007FFE
FFF800007FFE
FFF800007FFE
FFF800007FFE
FFF800007FFE
FFF800007FFE
FFF800007FFE
FFF800007FFE
FFF800007FFE
FFF800007FFE
FFF800007FFE
FFF800007FFE
FFF800007FFE
FFF800007FFE
FFF800007FFE
FFF800007FFE
FFF800007FFE
FFF800007FFE
FFF800007FFE
FFF800007FFE
FFF800007FFE
FFF800007FFE
FFF800007FFE
FFF800007FFE
FFF800007FFE
FFF800007FFE
FFF800007FFE
FFF800007FFE
FFF800007FFE
FFFC00007FFE
FFFC0000FFFE
FFFE0001FFFE
FFFFFFFFFFFE
FFFFFFFFFFFE
FFFFFFFFFFFE
FFFFFFFFFFFE
FFFFFFFFFFFE
7FFFFFFFFFFC
7FFFFFFFFFF8
3FFFFFFFFFF0
1FFFFFFFFFF0
1FFFFFFFFFE0
0FFFFFFFFFC0
07FFFFFFFFC0
03FFFFFFFF80
03FFFFFFFF00
ENDCHAR
STARTCHAR 00DB
ENCODING 219
SWIDTH 607 0
DWIDTH 54 0
BBX 47 77 4 0
BITMAP
000FFFFFE000
001FFFFFF000
003FFFFFF800
007FFFFFFC00
00FFFFFFFE00
01FFFFFFFF00
03FFFFFFFF80
07FF0003FF80
07FE0000FF80
07FC00007F80
07F800003F80
000000000000
000000000000
000000000000
000000000000
FFF800007FFE
FFF800007FFE
FFF800007FFE
FFF800007FFE
FFF800007FFE
FFF800007FFE
FFF800007FFE
FFF800007FFE
FFF800007FFE
FFF800007FFE
FFF800007FFE
FFF800007FFE
FFF800007FFE
FFF800007FFE
FFF800007FFE
FFF800007FFE
FFF800007FFE
FFF800007FFE
FFF800007FFE
FFF800007FFE
FFF800007FFE
FFF800007FFE
FFF800007FFE
FFF800007FFE
FFF800007FFE
FFF800007FFE
FFF800007FFE
FFF800007FFE
FFF800007FFE
FFF800007FFE
FFF800007FFE
FFF800007FFE
FFF800007FFE
FFF800007FFE
FFF800007FFE
FFF800007FFE
FFF800007FFE
FFF800007FFE
FFF800007FFE
FFF800007FFE
FFF800007FFE
FFF800007FFE
FFF800007FFE
FFF800007FFE
FFF800007FFE
FFFC00007FFE
FFFC0000FFFE
FFFE0001FFFE
FFFFFFFFFFFE
FFFFFFFFFFFE
FFFFFFFFFFFE
FFFFFFFFFFFE
FFFFFFFFFFFE
7FFFFFFFFFFC
7FFFFFFFFFF8
3FFFFFFFFFF0
1FFFFFFFFFF0
1FFFFFFFFFE0
0FFFFFFFFFC0
07FFFFFFFFC0
03FFFFFFFF80
03FFFFFFFF00
ENDCHAR
STARTCHAR 00DC
ENCODING 220
SWIDTH 607 0
DWIDTH 54 0
BBX 47 74 4 0
BITMAP
000FF01FE000
000FF01FE000
000FF01FE000
000FF01FE000
000FF01FE000
000FF01FE000
000FF01FE000
000FF01FE000
000000000000
000000000000
000000000000
000000000000
FFF800007FFE
FFF800007FFE
FFF800007FFE
FFF800007FFE
FFF800007FFE
FFF800007FFE
FFF800007FFE
FFF800007FFE
FFF800007FFE
FFF800007FFE
FFF800007FFE
FFF800007FFE
FFF800007FFE
FFF800007FFE
FFF800007FFE
FFF800007FFE
FFF800007FFE
FFF800007FFE
FFF800007FFE
FFF800007FFE
FFF800007FFE
FFF800007FFE
FFF800007FFE
FFF800007FFE
FFF800007FFE
FFF800007FFE
FFF800007FFE
FFF800007FFE
FFF800007FFE
FFF800007FFE
FFF800007FFE
FFF800007FFE
FFF800007FFE
FFF800007FFE
FFF800007FFE
FFF800007FFE
FFF800007FFE
FFF800007FFE
FFF800007FFE
FFF800007FFE
FFF800007FFE
FFF800007FFE
FFF800007FFE
FFF800007FFE
FFF800007FFE
FFFC00007FFE
FFFC0000FFFE
FFFE0001FFFE
FFFFFFFFFFFE
FFFFFFFFFFFE
FFFFFFFFFFFE
FFFFFFFFFFFE
FFFFFFFFFFFE
7FFFFFFFFFFC
7FFFFFFFFFF8
3FFFFFFFFFF0
1FFFFFFFFFF0
1FFFFFFFFFE0
0FFFFFFFFFC0
07FFFFFFFFC0
03FFFFFFFF80
03FFFFFFFF00
ENDCHAR
STARTCHAR 00DD
ENCODING 221
SWIDTH 461 0
DWIDTH 41 0
BBX 41 75 0 0
BITMAP
00000007F800
0000FFFFF800
00FFFFFFF800
07FFFFFFF800
07FFFFFFC000
07FFFFF80000
07FFFF000000
07FFF0000000
07FE00000000
000000000000
000000000000
000000000000
000000000000
FFF80007FF80
FFF8000FFF80
FFFC000FFF80
FFFC000FFF80
FFFE001FFF80
FFFE001FFF80
FFFE001FFF80
7FFF003FFF80
7FFF003FFF80
3FFF003FFF00
3FFF807FFF00
1FFF807FFE00
1FFF807FFE00
1FFFC0FFFC00
0FFFC0FFFC00
0FFFC0FFFC00
07FFE1FFF800
07FFE1FFF800
03FFE1FFF000
03FFF3FFF000
01FFF3FFE000
01FFF3FFE000
01FFFFFFC000
00FFFFFFC000
00FFFFFFC000
007FFFFF8000
007FFFFF8000
003FFFFF0000
003FFFFF0000
001FFFFE0000
001FFFFE0000
001FFFFE0000
000FFFFC0000
000FFFFC0000
0007FFF80000
0007FFF80000
0003FFF00000
0003FFF00000
0003FFF00000
0003FFF00000
0003FFF00000
0003FFF00000
0003FFF00000
0003FFF00000
0003FFF00000
0003FFF00000
0003FFF00000
0003FFF00000
0003FFF00000
0003FFF00000
0003FFF00000
0003FFF00000
0003FFF00000
0003FFF00000
0003FFF00000
0003FFF00000
0003FFF00000
0003FFF00000
0003FFF00000
0003FFF00000
0003FFF00000
0003FFF00000
ENDCHAR
STARTCHAR 00DE
ENCODING 222
SWIDTH 540 0
DWIDTH 48 0
BBX 41 72 4 0
BITMAP
FFF800000000
FFF800000000
FFF800000000
FFF800000000
FFF800000000
FFF800000000
FFF800000000
FFF800000000
FFF800000000
FFF800000000
FFFFFFFFC000
FFFFFFFFE000
FFFFFFFFE000
FFFFFFFFF000
FFFFFFFFF800
FFFFFFFFFC00
FFFFFFFFFC00
FFFFFFFFFE00
FFFFFFFFFF00
FFFFFFFFFF00
FFFFFFFFFF80
FFFFFFFFFF80
FFFFFFFFFF80
FFFFFFFFFF80
FFF8007FFF80
FFF8003FFF80
FFF8001FFF80
FFF8001FFF80
FFF8001FFF80
FFF8001FFF80
FFF8001FFF80
FFF8001FFF80
FFF8001FFF80
FFF8001FFF80
FFF8001FFF80
FFF8003FFF80
FFF8003FFF80
FFF8007FFF80
FFFFFFFFFF80
FFFFFFFFFF80
FFFFFFFFFF80
FFFFFFFFFF80
FFFFFFFFFF00
FFFFFFFFFE00
FFFFFFFFFE00
FFFFFFFFFC00
FFFFFFFFF800
FFFFFFFFF000
FFFFFFFFF000
FFFFFFFFE000
FFFFFFFFC000
FFFFFFFFC000
FFF800000000
FFF800000000
FFF800000000
FFF800000000
FFF800000000
FFF800000000
FFF800000000
FFF800000000
FFF800000000
FFF800000000
FFF800000000
FFF800000000
FFF800000000
FFF800000000
FFF800000000
FFF800000000
FFF800000000
FFF800000000
FFF800000000
FFF800000000
ENDCHAR
STARTCHAR 00DF
ENCODING 223
SWIDTH 573 0
DWIDTH 51 0
BBX 44 62 4 0
BITMAP
03FFFFFFF800
07FFFFFFFC00
07FFFFFFFE00
0FFFFFFFFF00
1FFFFFFFFF00
1FFFFFFFFF80
3FFFFFFFFFC0
7FFFFFFFFFC0
FFFFFFFFFFE0
FFFFFFFFFFF0
FFFFFFFFFFF0
FFFFFFFFFFF0
FFF80007FFF0
FFF80007FFF0
FFF80003FFF0
FFF80003FFF0
FFF80003FFF0
FFF80003FFF0
FFF80003FFF0
FFF80003FFF0
FFF80003FFF0
FFF80003FFF0
FFF80003FFF0
FFF80003FFF0
FFF80FFFFFF0
FFF81FFFFFF0
FFF83FFFFFE0
FFF83FFFFFC0
FFF83FFFFF80
FFF83FFFFF00
FFF83FFFFE00
FFF83FFFFF80
FFF83FFFFFC0
FFF83FFFFFE0
FFF83FFFFFF0
FFF83FFFFFF0
FFF81FFFFFF0
FFF80FFFFFF0
FFF80003FFF0
FFF80003FFF0
FFF80003FFF0
FFF80003FFF0
FFF80003FFF0
FFF80003FFF0
FFF80003FFF0
FFF80003FFF0
FFF80003FFF0
FFF80003FFF0
FFF80007FFF0
FFF8000FFFF0
FFF83FFFFFF0
FFF83FFFFFF0
FFF83FFFFFF0
FFF83FFFFFE0
FFF83FFFFFC0
FFF83FFFFFC0
FFF83FFFFF80
FFF83FFFFF00
FFF83FFFFE00
FFF83FFFFE00
FFF83FFFFC00
FFF83FFFF800
ENDCHAR
STARTCHAR 00E0
ENCODING 224
SWIDTH 585 0
DWIDTH 52 0
BBX 50 75 1 0
BITMAP
007F8000000000
007FF800000000
007FFFC0000000
007FFFFE000000
007FFFFFF00000
007FFFFFFF8000
001FFFFFFF8000
0001FFFFFF8000
0000000FFF8000
00000000000000
00000000000000
00000000000000
00000000000000
0007FFFFF80000
0007FFFFF80000
000FFFFFFC0000
000FFFFFFE0000
001FFFFFFE0000
001FFFFFFE0000
001FFFFFFE0000
001FFFFFFE0000
001FFFFFFF0000
003FFFFFFF0000
003FFFFFFF0000
003FFFFFFF0000
003FFFFFFF0000
003FFFFFFF8000
007FF807FF8000
007FF807FF8000
007FF807FF8000
007FF807FF8000
007FF003FFC000
00FFF003FFC000
00FFF003FFC000
00FFF003FFC000
00FFF003FFC000
00FFF003FFE000
01FFE001FFE000
01FFE001FFE000
01FFE001FFE000
01FFE001FFE000
01FFE001FFF000
03FFE001FFF000
03FFE001FFF000
03FFC000FFF000
03FFC000FFF000
03FFC000FFF800
07FFC000FFF800
07FFC000FFF800
07FFC000FFF800
07FFC000FFF800
07FFE001FFFC00
0FFFF003FFFC00
0FFFFFFFFFFC00
0FFFFFFFFFFC00
0FFFFFFFFFFC00
0FFFFFFFFFFE00
1FFFFFFFFFFE00
1FFFFFFFFFFE00
1FFFFFFFFFFE00
1FFF7FFFBFFE00
1FFF3FFF3FFF00
3FFF00003FFF00
3FFF00003FFF00
3FFE00001FFF00
3FFE00001FFF00
3FFE00001FFF80
7FFE00001FFF80
7FFE00001FFF80
7FFE00001FFF80
7FFC00000FFF80
7FFC00000FFFC0
FFFC00000FFFC0
FFFC00000FFFC0
FFFC00000FFFC0
ENDCHAR
STARTCHAR 00E1
ENCODING 225
SWIDTH 585 0
DWIDTH 52 0
BBX 50 75 1 0
BITMAP
000000007F8000
00000FFFFF8000
000FFFFFFF8000
007FFFFFFF8000
007FFFFFFC0000
007FFFFF800000
007FFFF0000000
007FFE00000000
007FC000000000
00000000000000
00000000000000
00000000000000
00000000000000
0007FFFFF80000
0007FFFFF80000
000FFFFFFC0000
000FFFFFFE0000
001FFFFFFE0000
001FFFFFFE0000
001FFFFFFE0000
001FFFFFFE0000
001FFFFFFF0000
003FFFFFFF0000
003FFFFFFF0000
003FFFFFFF0000
003FFFFFFF0000
003FFFFFFF8000
007FF807FF8000
007FF807FF8000
007FF807FF8000
007FF807FF8000
007FF003FFC000
00FFF003FFC000
00FFF003FFC000
00FFF003FFC000
00FFF003FFC000
00FFF003FFE000
01FFE001FFE000
01FFE001FFE000
01FFE001FFE000
01FFE001FFE000
01FFE001FFF000
03FFE001FFF000
03FFE001FFF000
03FFC000FFF000
03FFC000FFF000
03FFC000FFF800
07FFC000FFF800
07FFC000FFF800
07FFC000FFF800
07FFC000FFF800
07FFE001FFFC00
0FFFF003FFFC00
0FFFFFFFFFFC00
0FFFFFFFFFFC00
0FFFFFFFFFFC00
0FFFFFFFFFFE00
1FFFFFFFFFFE00
1FFFFFFFFFFE00
1FFFFFFFFFFE00
1FFF7FFFBFFE00
1FFF3FFF3FFF00
3FFF00003FFF00
3FFF00003FFF00
3FFE00001FFF00
3FFE00001FFF00
3FFE00001FFF80
7FFE00001FFF80
7FFE00001FFF80
7FFE00001FFF80
7FFC00000FFF80
7FFC00000FFFC0
FFFC00000FFFC0
FFFC00000FFFC0
FFFC00000FFFC0
ENDCHAR
STARTCHAR 00E2
ENCODING 226
SWIDTH 585 0
DWIDTH 52 0
BBX 50 77 1 0
BITMAP
0007FFFFF00000
000FFFFFF80000
001FFFFFFC0000
003FFFFFFE0000
007FFFFFFF0000
00FFFFFFFF8000
01FFFFFFFFC000
03FF8000FFE000
03FF00007FE000
03FE00003FE000
03FC00001FE000
00000000000000
00000000000000
00000000000000
00000000000000
0007FFFFF80000
0007FFFFF80000
000FFFFFFC0000
000FFFFFFE0000
001FFFFFFE0000
001FFFFFFE0000
001FFFFFFE0000
001FFFFFFE0000
001FFFFFFF0000
003FFFFFFF0000
003FFFFFFF0000
003FFFFFFF0000
003FFFFFFF0000
003FFFFFFF8000
007FF807FF8000
007FF807FF8000
007FF807FF8000
007FF807FF8000
007FF003FFC000
00FFF003FFC000
00FFF003FFC000
00FFF003FFC000
00FFF003FFC000
00FFF003FFE000
01FFE001FFE000
01FFE001FFE000
01FFE001FFE000
01FFE001FFE000
01FFE001FFF000
03FFE001FFF000
03FFE001FFF000
03FFC000FFF000
03FFC000FFF000
03FFC000FFF800
07FFC000FFF800
07FFC000FFF800
07FFC000FFF800
07FFC000FFF800
07FFE001FFFC00
0FFFF003FFFC00
0FFFFFFFFFFC00
0FFFFFFFFFFC00
0FFFFFFFFFFC00
0FFFFFFFFFFE00
1FFFFFFFFFFE00
1FFFFFFFFFFE00
1FFFFFFFFFFE00
1FFF7FFFBFFE00
1FFF3FFF3FFF00
3FFF00003FFF00
3FFF00003FFF00
3FFE00001FFF00
3FFE00001FFF00
3FFE00001FFF80
7FFE00001FFF80
7FFE00001FFF80
7FFE00001FFF80
7FFC00000FFF80
7FFC00000FFFC0
FFFC00000FFFC0
FFFC00000FFFC0
FFFC00000FFFC0
ENDCHAR
STARTCHAR 00E3
ENCODING 227
SWIDTH 585 0
DWIDTH 52 0
BBX 50 78 1 0
BITMAP
00003000000000
0000FE00000000
0003FFC0000000
000FFFF801E000
003FFFFE07E000
00FFFFFFDFE000
01FFFFFFFFE000
01FFC7FFFFE000
01FF00FFFFE000
01FC003FFFC000
01F80007FE0000
01E00000F80000
00000000000000
00000000000000
00000000000000
00000000000000
0007FFFFF80000
0007FFFFF80000
000FFFFFFC0000
000FFFFFFE0000
001FFFFFFE0000
001FFFFFFE0000
001FFFFFFE0000
001FFFFFFE0000
001FFFFFFF0000
003FFFFFFF0000
003FFFFFFF0000
003FFFFFFF0000
003FFFFFFF0000
003FFFFFFF8000
007FF807FF8000
007FF807FF8000
007FF807FF8000
007FF807FF8000
007FF003FFC000
00FFF003FFC000
00FFF003FFC000
00FFF003FFC000
00FFF003FFC000
00FFF003FFE000
01FFE001FFE000
01FFE001FFE000
01FFE001FFE000
01FFE001FFE000
01FFE001FFF000
03FFE001FFF000
03FFE001FFF000
03FFC000FFF000
03FFC000FFF000
03FFC000FFF800
07FFC000FFF800
07FFC000FFF800
07FFC000FFF800
07FFC000FFF800
07FFE001FFFC00
0FFFF003FFFC00
0FFFFFFFFFFC00
0FFFFFFFFFFC00
0FFFFFFFFFFC00
0FFFFFFFFFFE00
1FFFFFFFFFFE00
1FFFFFFFFFFE00
1FFFFFFFFFFE00
1FFF7FFFBFFE00
1FFF3FFF3FFF00
3FFF00003FFF00
3FFF00003FFF00
3FFE00001FFF00
3FFE00001FFF00
3FFE00001FFF80
7FFE00001FFF80
7FFE00001FFF80
7FFE00001FFF80
7FFC00000FFF80
7FFC00000FFFC0
FFFC00000FFFC0
FFFC00000FFFC0
FFFC00000FFFC0
ENDCHAR
STARTCHAR 00E4
ENCODING 228
SWIDTH 585 0
DWIDTH 52 0
BBX 50 74 1 0
BITMAP
0003FC0FF00000
0003FC0FF00000
0003FC0FF00000
0003FC0FF00000
0003FC0FF00000
0003FC0FF00000
0003FC0FF00000
0003FC0FF00000
00000000000000
00000000000000
00000000000000
00000000000000
0007FFFFF80000
0007FFFFF80000
000FFFFFFC0000
000FFFFFFE0000
001FFFFFFE0000
001FFFFFFE0000
001FFFFFFE0000
001FFFFFFE0000
001FFFFFFF0000
003FFFFFFF0000
003FFFFFFF0000
003FFFFFFF0000
003FFFFFFF0000
003FFFFFFF8000
007FF807FF8000
007FF807FF8000
007FF807FF8000
007FF807FF8000
007FF003FFC000
00FFF003FFC000
00FFF003FFC000
00FFF003FFC000
00FFF003FFC000
00FFF003FFE000
01FFE001FFE000
01FFE001FFE000
01FFE001FFE000
01FFE001FFE000
01FFE001FFF000
03FFE001FFF000
03FFE001FFF000
03FFC000FFF000
03FFC000FFF000
03FFC000FFF800
07FFC000FFF800
07FFC000FFF800
07FFC000FFF800
07FFC000FFF800
07FFE001FFFC00
0FFFF003FFFC00
0FFFFFFFFFFC00
0FFFFFFFFFFC00
0FFFFFFFFFFC00
0FFFFFFFFFFE00
1FFFFFFFFFFE00
1FFFFFFFFFFE00
1FFFFFFFFFFE00
1FFF7FFFBFFE00
1FFF3FFF3FFF00
3FFF00003FFF00
3FFF00003FFF00
3FFE00001FFF00
3FFE00001FFF00
3FFE00001FFF80
7FFE00001FFF80
7FFE00001FFF80
7FFE00001FFF80
7FFC00000FFF80
7FFC00000FFFC0
FFFC00000FFFC0
FFFC00000FFFC0
FFFC00000FFFC0
ENDCHAR
STARTCHAR 00E5
ENCODING 229
SWIDTH 585 0
DWIDTH 52 0
BBX 50 78 1 0
BITMAP
00000FFC000000
00001FFE000000
00001FFF000000
00001FFF000000
00001E0F000000
00001E0F000000
00001E0F000000
00001E0F000000
00001FFF000000
00001FFF000000
00001FFE000000
00000FFC000000
00000000000000
00000000000000
00000000000000
00000000000000
0007FFFFF80000
0007FFFFF80000
000FFFFFFC0000
000FFFFFFE0000
001FFFFFFE0000
001FFFFFFE0000
001FFFFFFE0000
001FFFFFFE0000
001FFFFFFF0000
003FFFFFFF0000
003FFFFFFF0000
003FFFFFFF0000
003FFFFFFF0000
003FFFFFFF8000
007FF807FF8000
007FF807FF8000
007FF807FF8000
007FF807FF8000
007FF003FFC000
00FFF003FFC000
00FFF003FFC000
00FFF003FFC000
00FFF003FFC000
00FFF003FFE000
01FFE001FFE000
01FFE001FFE000
01FFE001FFE000
01FFE001FFE000
01FFE001FFF000
03FFE001FFF000
03FFE001FFF000
03FFC000FFF000
03FFC000FFF000
03FFC000FFF800
07FFC000FFF800
07FFC000FFF800
07FFC000FFF800
07FFC000FFF800
07FFE001FFFC00
0FFFF003FFFC00
0FFFFFFFFFFC00
0FFFFFFFFFFC00
0FFFFFFFFFFC00
0FFFFFFFFFFE00
1FFFFFFFFFFE00
1FFFFFFFFFFE00
1FFFFFFFFFFE00
1FFF7FFFBFFE00
1FFF3FFF3FFF00
3FFF00003FFF00
3FFF00003FFF00
3FFE00001FFF00
3FFE00001FFF00
3FFE00001FFF80
7FFE00001FFF80
7FFE00001FFF80
7FFE00001FFF80
7FFC00000FFF80
7FFC00000FFFC0
FFFC00000FFFC0
FFFC00000FFFC0
FFFC00000FFFC0
ENDCHAR
STARTCHAR 00E6
ENCODING 230
SWIDTH 832 0
DWIDTH 74 0
BBX 70 62 1 0
BITMAP
0007FFFFFFFFFFFF00
0007FFFFFFFFFFFF00
000FFFFFFFFFFFFF80
000FFFFFFFFFFFFFC0
001FFFFFFFFFFFFFC0
001FFFFFFFFFFFFFE0
001FFFFFFFFFFFFFF0
001FFFFFFFFFFFFFF8
001FFFFFFFFFFFFFF8
003FFFFFFFFFFFFFFC
003FFFFFFFFFFFFFFC
003FFFFFFFFFFFFFFC
003FFFFFFFFFFFFFFC
003FFFFFFFFFFFFFFC
007FF807FFE0003FFC
007FF807FFE0001FFC
007FF807FFE0001FFC
007FF807FFE0000000
007FF007FFE0000000
00FFF007FFE0000000
00FFF007FFE0000000
00FFF007FFE0000000
00FFF007FFE0000000
00FFF007FFE0000000
01FFE007FFE0000000
01FFE007FFE0000000
01FFE007FFFFFFE000
01FFE007FFFFFFE000
01FFE007FFFFFFE000
03FFE007FFFFFFE000
03FFE007FFFFFFE000
03FFC007FFFFFFE000
03FFC007FFFFFFE000
03FFC007FFFFFFE000
07FFC007FFFFFFE000
07FFC007FFFFFFE000
07FFC007FFE0000000
07FFC007FFE0000000
07FFE007FFE0000000
0FFFF007FFE0000000
0FFFFFFFFFE0000000
0FFFFFFFFFE0000000
0FFFFFFFFFE0000000
0FFFFFFFFFE0000000
1FFFFFFFFFE0000000
1FFFFFFFFFE0001FFC
1FFFFFFFFFE0003FFC
1FFF7FFFFFE0003FFC
1FFF3FFFFFFFFFFFFC
3FFF0007FFFFFFFFFC
3FFF0007FFFFFFFFFC
3FFE0007FFFFFFFFFC
3FFE0007FFFFFFFFFC
3FFE0007FFFFFFFFF8
7FFE0007FFFFFFFFF0
7FFE0007FFFFFFFFF0
7FFE0007FFFFFFFFE0
7FFC0007FFFFFFFFC0
7FFC0007FFFFFFFFC0
FFFC0007FFFFFFFF80
FFFC0007FFFFFFFF00
FFFC0007FFFFFFFE00
ENDCHAR
STARTCHAR 00E7
ENCODING 231
SWIDTH 540 0
DWIDTH 48 0
BBX 41 75 4 -13
BITMAP
FFFFFFFFC000
FFFFFFFFE000
FFFFFFFFF000
FFFFFFFFF800
FFFFFFFFF800
FFFFFFFFFC00
FFFFFFFFFE00
FFFFFFFFFE00
FFFFFFFFFF00
FFFFFFFFFF80
FFFFFFFFFF80
FFFFFFFFFF80
FFFFFFFFFF80
FFFFFFFFFF80
FFF8003FFF80
FFF8001FFF80
FFF8000FFF80
FFF800000000
FFF800000000
FFF800000000
FFF800000000
FFF800000000
FFF800000000
FFF800000000
FFF800000000
FFF800000000
FFF800000000
FFF800000000
FFF800000000
FFF800000000
FFF800000000
FFF800000000
FFF800000000
FFF800000000
FFF800000000
FFF800000000
FFF800000000
FFF800000000
FFF800000000
FFF800000000
FFF800000000
FFF800000000
FFF800000000
FFF800000000
FFF800000000
FFF8000FFF80
FFF8001FFF80
FFF8003FFF80
FFFFFFFFFF80
FFFFFFFFFF80
FFFFFFFFFF80
FFFFFFFFFF80
FFFFFFFFFF80
FFFFFFFFFF00
FFFFFFFFFE00
FFFFFFFFFE00
FFFFFFFFFC00
FFFFFFFFF800
FFFFFFFFF000
FFFFFFFFF000
FFFFFFFFE000
FFFFFFFFC000
00000F800000
00001F000000
00001F000000
0001FE000000
0001FE000000
0001FE000000
0001FE000000
00003E000000
00003E000000
000FFE000000
000FFC000000
001FFC000000
001FF8000000
ENDCHAR
STARTCHAR 00E8
ENCODING 232
SWIDTH 540 0
DWIDTH 48 0
BBX 41 75 4 0
BITMAP
0FF000000000
0FFF00000000
0FFFF8000000
0FFFFFC00000
0FFFFFFE0000
0FFFFFFFE000
03FFFFFFE000
003FFFFFE000
000001FFE000
000000000000
000000000000
000000000000
000000000000
FFFFFFFFC000
FFFFFFFFE000
FFFFFFFFF000
FFFFFFFFF000
FFFFFFFFF800
FFFFFFFFFC00
FFFFFFFFFC00
FFFFFFFFFE00
FFFFFFFFFF00
FFFFFFFFFF80
FFFFFFFFFF80
FFFFFFFFFF80
FFFFFFFFFF80
FFFFFFFFFF80
FFF8000FFF80
FFF80007FF80
FFF80003FF80
FFF800000000
FFF800000000
FFF800000000
FFF800000000
FFF800000000
FFF800000000
FFF800000000
FFF800000000
FFF800000000
FFFFFFFC0000
FFFFFFFC0000
FFFFFFFC0000
FFFFFFFC0000
FFFFFFFC0000
FFFFFFFC0000
FFFFFFFC0000
FFFFFFFC0000
FFFFFFFC0000
FFFFFFFC0000
FFF800000000
FFF800000000
FFF800000000
FFF800000000
FFF800000000
FFF800000000
FFF800000000
FFF800000000
FFF800000000
FFF80003FF80
FFF80007FF80
FFF8000FFF80
FFFFFFFFFF80
FFFFFFFFFF80
FFFFFFFFFF80
FFFFFFFFFF80
FFFFFFFFFF00
FFFFFFFFFF00
FFFFFFFFFE00
FFFFFFFFFC00
FFFFFFFFFC00
FFFFFFFFF800
FFFFFFFFF000
FFFFFFFFE000
FFFFFFFFE000
FFFFFFFFC000
ENDCHAR
STARTCHAR 00E9
ENCODING 233
SWIDTH 540 0
DWIDTH 48 0
BBX 41 75 4 0
BITMAP
0000000FE000
0001FFFFE000
01FFFFFFE000
0FFFFFFFE000
0FFFFFFF8000
0FFFFFF00000
0FFFFE000000
0FFFC0000000
0FF800000000
000000000000
000000000000
000000000000
000000000000
FFFFFFFFC000
FFFFFFFFE000
FFFFFFFFF000
FFFFFFFFF000
FFFFFFFFF800
FFFFFFFFFC00
FFFFFFFFFC00
FFFFFFFFFE00
FFFFFFFFFF00
FFFFFFFFFF80
FFFFFFFFFF80
FFFFFFFFFF80
FFFFFFFFFF80
FFFFFFFFFF80
FFF8000FFF80
FFF80007FF80
FFF80003FF80
FFF800000000
FFF800000000
FFF800000000
FFF800000000
FFF800000000
FFF800000000
FFF800000000
FFF800000000
FFF800000000
FFFFFFFC0000
FFFFFFFC0000
FFFFFFFC0000
FFFFFFFC0000
FFFFFFFC0000
FFFFFFFC0000
FFFFFFFC0000
FFFFFFFC0000
FFFFFFFC0000
FFFFFFFC0000
FFF800000000
FFF800000000
FFF800000000
FFF800000000
FFF800000000
FFF800000000
FFF800000000
FFF800000000
FFF800000000
FFF80003FF80
FFF80007FF80
FFF8000FFF80
FFFFFFFFFF80
FFFFFFFFFF80
FFFFFFFFFF80
FFFFFFFFFF80
FFFFFFFFFF00
FFFFFFFFFF00
FFFFFFFFFE00
FFFFFFFFFC00
FFFFFFFFFC00
FFFFFFFFF800
FFFFFFFFF000
FFFFFFFFE000
FFFFFFFFE000
FFFFFFFFC000
ENDCHAR
STARTCHAR 00EA
ENCODING 234
SWIDTH 540 0
DWIDTH 48 0
BBX 41 77 4 0
BITMAP
03FFFFF80000
07FFFFFC0000
0FFFFFFE0000
1FFFFFFF0000
3FFFFFFF8000
7FFFFFFFC000
FFFFFFFFE000
FFE0007FF000
FF80003FF000
FF00001FF000
FE00000FF000
000000000000
000000000000
000000000000
000000000000
FFFFFFFFC000
FFFFFFFFE000
FFFFFFFFF000
FFFFFFFFF000
FFFFFFFFF800
FFFFFFFFFC00
FFFFFFFFFC00
FFFFFFFFFE00
FFFFFFFFFF00
FFFFFFFFFF80
FFFFFFFFFF80
FFFFFFFFFF80
FFFFFFFFFF80
FFFFFFFFFF80
FFF8000FFF80
FFF80007FF80
FFF80003FF80
FFF800000000
FFF800000000
FFF800000000
FFF800000000
FFF800000000
FFF800000000
FFF800000000
FFF800000000
FFF800000000
FFFFFFFC0000
FFFFFFFC0000
FFFFFFFC0000
FFFFFFFC0000
FFFFFFFC0000
FFFFFFFC0000
FFFFFFFC0000
FFFFFFFC0000
FFFFFFFC0000
FFFFFFFC0000
FFF800000000
FFF800000000
FFF800000000
FFF800000000
FFF800000000
FFF800000000
FFF800000000
FFF800000000
FFF800000000
FFF80003FF80
FFF80007FF80
FFF8000FFF80
FFFFFFFFFF80
FFFFFFFFFF80
FFFFFFFFFF80
FFFFFFFFFF80
FFFFFFFFFF00
FFFFFFFFFF00
FFFFFFFFFE00
FFFFFFFFFC00
FFFFFFFFFC00
FFFFFFFFF800
FFFFFFFFF000
FFFFFFFFE000
FFFFFFFFE000
FFFFFFFFC000
ENDCHAR
STARTCHAR 00EB
ENCODING 235
SWIDTH 540 0
DWIDTH 48 0
BBX 41 74 4 0
BITMAP
01FE07FC0000
01FE07FC0000
01FE07FC0000
01FE07FC0000
01FE07FC0000
01FE07FC0000
01FE07FC0000
01FE07FC0000
000000000000
000000000000
000000000000
000000000000
FFFFFFFFC000
FFFFFFFFE000
FFFFFFFFF000
FFFFFFFFF000
FFFFFFFFF800
FFFFFFFFFC00
FFFFFFFFFC00
FFFFFFFFFE00
FFFFFFFFFF00
FFFFFFFFFF80
FFFFFFFFFF80
FFFFFFFFFF80
FFFFFFFFFF80
FFFFFFFFFF80
FFF8000FFF80
FFF80007FF80
FFF80003FF80
FFF800000000
FFF800000000
FFF800000000
FFF800000000
FFF800000000
FFF800000000
FFF800000000
FFF800000000
FFF800000000
FFFFFFFC0000
FFFFFFFC0000
FFFFFFFC0000
FFFFFFFC0000
FFFFFFFC0000
FFFFFFFC0000
FFFFFFFC0000
FFFFFFFC0000
FFFFFFFC0000
FFFFFFFC0000
FFF800000000
FFF800000000
FFF800000000
FFF800000000
FFF800000000
FFF800000000
FFF800000000
FFF800000000
FFF800000000
FFF80003FF80
FFF80007FF80
FFF8000FFF80
FFFFFFFFFF80
FFFFFFFFFF80
FFFFFFFFFF80
FFFFFFFFFF80
FFFFFFFFFF00
FFFFFFFFFF00
FFFFFFFFFE00
FFFFFFFFFC00
FFFFFFFFFC00
FFFFFFFFF800
FFFFFFFFF000
FFFFFFFFE000
FFFFFFFFE000
FFFFFFFFC000
ENDCHAR
STARTCHAR 00EC
ENCODING 236
SWIDTH 225 0
DWIDTH 20 0
BBX 32 75 -6 0
BITMAP
FF000000
FFF80000
FFFFC000
FFFFFE00
FFFFFFF0
FFFFFFFF
1FFFFFFF
01FFFFFF
00000FFF
00000000
00000000
00000000
00000000
003FFE00
003FFE00
003FFE00
003FFE00
003FFE00
003FFE00
003FFE00
003FFE00
003FFE00
003FFE00
003FFE00
003FFE00
003FFE00
003FFE00
003FFE00
003FFE00
003FFE00
003FFE00
003FFE00
003FFE00
003FFE00
003FFE00
003FFE00
003FFE00
003FFE00
003FFE00
003FFE00
003FFE00
003FFE00
003FFE00
003FFE00
003FFE00
003FFE00
003FFE00
003FFE00
003FFE00
003FFE00
003FFE00
003FFE00
003FFE00
003FFE00
003FFE00
003FFE00
003FFE00
003FFE00
003FFE00
003FFE00
003FFE00
003FFE00
003FFE00
003FFE00
003FFE00
003FFE00
003FFE00
003FFE00
003FFE00
003FFE00
003FFE00
003FFE00
003FFE00
003FFE00
003FFE00
ENDCHAR
STARTCHAR 00ED
ENCODING 237
SWIDTH 225 0
DWIDTH 20 0
BBX 32 75 -6 0
BITMAP
0000007F
001FFFFF
0FFFFFFF
7FFFFFFF
FFFFFFFC
FFFFFF80
FFFFF000
FFFE0000
FFC00000
00000000
00000000
00000000
00000000
003FFE00
003FFE00
003FFE00
003FFE00
003FFE00
003FFE00
003FFE00
003FFE00
003FFE00
003FFE00
003FFE00
003FFE00
003FFE00
003FFE00
003FFE00
003FFE00
003FFE00
003FFE00
003FFE00
003FFE00
003FFE00
003FFE00
003FFE00
003FFE00
003FFE00
003FFE00
003FFE00
003FFE00
003FFE00
003FFE00
003FFE00
003FFE00
003FFE00
003FFE00
003FFE00
003FFE00
003FFE00
003FFE00
003FFE00
003FFE00
003FFE00
003FFE00
003FFE00
003FFE00
003FFE00
003FFE00
003FFE00
003FFE00
003FFE00
003FFE00
003FFE00
003FFE00
003FFE00
003FFE00
003FFE00
003FFE00
003FFE00
003FFE00
003FFE00
003FFE00
003FFE00
003FFE00
ENDCHAR
STARTCHAR 00EE
ENCODING 238
SWIDTH 483 0
DWIDTH 43 0
BBX 36 78 4 -1
BITMAP
03FFFFF800
07FFFFFC00
0FFFFFFE00
1FFFFFFF00
3FFFFFFF80
7FFFFFFFC0
FFFFFFFFF0
FFE0007FF0
FF80003FF0
FF00001FF0
FE00000FF0
0000000000
0000000000
0000000000
0000000000
000FFF8000
000FFF8000
000FFF8000
000FFF8000
000FFF8000
000FFF8000
000FFF8000
000FFF8000
000FFF8000
000FFF8000
000FFF8000
000FFF8000
000FFF8000
000FFF8000
000FFF8000
000FFF8000
000FFF8000
000FFF8000
000FFF8000
000FFF8000
000FFF8000
000FFF8000
000FFF8000
000FFF8000
000FFF8000
000FFF8000
000FFF8000
000FFF8000
000FFF8000
000FFF8000
000FFF8000
000FFF8000
000FFF8000
000FFF8000
000FFF8000
000FFF8000
000FFF8000
000FFF8000
000FFF8000
000FFF8000
000FFF8000
000FFF8000
000FFF8000
000FFF8000
000FFF8000
000FFF8000
000FFF8000
000FFF8000
000FFF8000
000FFF8000
000FFF8000
000FFF8000
000FFF8000
000FFF8000
000FFF8000
000FFF8000
000FFF8000
000FFF8000
000FFF8000
000FFF8000
000FFF8000
000FFF8000
000FFF8000
ENDCHAR
STARTCHAR 00EF
ENCODING 239
SWIDTH 225 0
DWIDTH 20 0
BBX 23 74 -1 0
BITMAP
FF01FE
FF01FE
FF01FE
FF01FE
FF01FE
FF01FE
FF01FE
FF01FE
000000
000000
000000
000000
07FFC0
07FFC0
07FFC0
07FFC0
07FFC0
07FFC0
07FFC0
07FFC0
07FFC0
07FFC0
07FFC0
07FFC0
07FFC0
07FFC0
07FFC0
07FFC0
07FFC0
07FFC0
07FFC0
07FFC0
07FFC0
07FFC0
07FFC0
07FFC0
07FFC0
07FFC0
07FFC0
07FFC0
07FFC0
07FFC0
07FFC0
07FFC0
07FFC0
07FFC0
07FFC0
07FFC0
07FFC0
07FFC0
07FFC0
07FFC0
07FFC0
07FFC0
07FFC0
07FFC0
07FFC0
07FFC0
07FFC0
07FFC0
07FFC0
07FFC0
07FFC0
07FFC0
07FFC0
07FFC0
07FFC0
07FFC0
07FFC0
07FFC0
07FFC0
07FFC0
07FFC0
07FFC0
ENDCHAR
STARTCHAR 00F0
ENCODING 240
SWIDTH 573 0
DWIDTH 51 0
BBX 50 62 -2 0
BITMAP
03FFFFFFFFE000
03FFFFFFFFF000
03FFFFFFFFF800
03FFFFFFFFFC00
03FFFFFFFFFC00
03FFFFFFFFFE00
03FFFFFFFFFF00
03FFFFFFFFFF00
03FFFFFFFFFF80
03FFFFFFFFFFC0
03FFFFFFFFFFC0
03FFFFFFFFFFC0
03FFFFFFFFFFC0
03FFFFFFFFFFC0
03FFE0001FFFC0
03FFE0001FFFC0
03FFE0000FFFC0
03FFE0000FFFC0
03FFE0000FFFC0
03FFE0000FFFC0
03FFE0000FFFC0
03FFE0000FFFC0
03FFE0000FFFC0
03FFE0000FFFC0
03FFE0000FFFC0
03FFE0000FFFC0
03FFE0000FFFC0
FFFFFFE00FFFC0
FFFFFFE00FFFC0
FFFFFFE00FFFC0
FFFFFFE00FFFC0
FFFFFFE00FFFC0
FFFFFFE00FFFC0
FFFFFFE00FFFC0
FFFFFFE00FFFC0
FFFFFFE00FFFC0
03FFE0000FFFC0
03FFE0000FFFC0
03FFE0000FFFC0
03FFE0000FFFC0
03FFE0000FFFC0
03FFE0000FFFC0
03FFE0000FFFC0
03FFE0000FFFC0
03FFE0000FFFC0
03FFE0000FFFC0
03FFE0001FFFC0
03FFE0003FFFC0
03FFFFFFFFFFC0
03FFFFFFFFFFC0
03FFFFFFFFFFC0
03FFFFFFFFFFC0
03FFFFFFFFFFC0
03FFFFFFFFFF80
03FFFFFFFFFF00
03FFFFFFFFFF00
03FFFFFFFFFE00
03FFFFFFFFFC00
03FFFFFFFFF800
03FFFFFFFFF800
03FFFFFFFFF000
03FFFFFFFFE000
ENDCHAR
STARTCHAR 00F1
ENCODING 241
SWIDTH 562 0
DWIDTH 50 0
BBX 43 78 4 0
BITMAP
000180000000
0007F0000000
001FFE000000
007FFFC00F00
01FFFFF83F00
07FFFFFEFF00
0FFFFFFFFF00
0FFE3FFFFF00
0FF807FFFF00
0FE001FFFE00
0FC0003FF000
0F000007C000
000000000000
000000000000
000000000000
000000000000
03FC0003FFE0
07FC0003FFE0
07FE0003FFE0
0FFE0003FFE0
1FFE0003FFE0
1FFF0003FFE0
3FFF0003FFE0
7FFF8003FFE0
FFFF8003FFE0
FFFFC003FFE0
FFFFC003FFE0
FFFFE003FFE0
FFFFE003FFE0
FFFFF003FFE0
FFFFF003FFE0
FFFFF003FFE0
FFFFF803FFE0
FFFFF803FFE0
FFFFFC03FFE0
FFFFFC03FFE0
FFFFFE03FFE0
FFFFFE03FFE0
FFFFFF03FFE0
FFFFFF03FFE0
FFFFFF03FFE0
FFFFFF83FFE0
FFFFFF83FFE0
FFFFFFC3FFE0
FFFFFFC3FFE0
FFFFFFE3FFE0
FFFFFFE3FFE0
FFF8FFFFFFE0
FFF8FFFFFFE0
FFF87FFFFFE0
FFF87FFFFFE0
FFF83FFFFFE0
FFF83FFFFFE0
FFF81FFFFFE0
FFF81FFFFFE0
FFF81FFFFFE0
FFF80FFFFFE0
FFF80FFFFFE0
FFF807FFFFE0
FFF807FFFFE0
FFF803FFFFE0
FFF803FFFFE0
FFF801FFFFE0
FFF801FFFFE0
FFF801FFFFE0
FFF800FFFFE0
FFF800FFFFE0
FFF8007FFFE0
FFF8007FFFE0
FFF8003FFFC0
FFF8003FFFC0
FFF8001FFF80
FFF8001FFF00
FFF8001FFE00
FFF8000FFE00
FFF8000FFC00
FFF80007F800
FFF80007F800
ENDCHAR
STARTCHAR 00F2
ENCODING 242
SWIDTH 618 0
DWIDTH 55 0
BBX 48 75 4 0
BITMAP
01FE00000000
01FFF0000000
01FFFF000000
01FFFFF80000
01FFFFFFC000
01FFFFFFFE00
007FFFFFFE00
0007FFFFFE00
0000003FFE00
000000000000
000000000000
000000000000
000000000000
03FFFFFFFF80
07FFFFFFFFC0
07FFFFFFFFC0
0FFFFFFFFFE0
1FFFFFFFFFF0
1FFFFFFFFFF8
3FFFFFFFFFF8
7FFFFFFFFFFC
FFFFFFFFFFFE
FFFFFFFFFFFE
FFFFFFFFFFFF
FFFFFFFFFFFF
FFFFFFFFFFFF
FFFFFFFFFFFF
FFFE0000FFFF
FFFC00007FFF
FFF800003FFF
FFF800003FFF
FFF800003FFF
FFF800003FFF
FFF800003FFF
FFF800003FFF
FFF800003FFF
FFF800003FFF
FFF800003FFF
FFF800003FFF
FFF800003FFF
FFF800003FFF
FFF800003FFF
FFF800003FFF
FFF800003FFF
FFF800003FFF
FFF800003FFF
FFF800003FFF
FFF800003FFF
FFF800003FFF
FFF800003FFF
FFF800003FFF
FFF800003FFF
FFF800003FFF
FFF800003FFF
FFF800003FFF
FFF800003FFF
FFF800003FFF
FFF800003FFF
FFFC00007FFF
FFFC00007FFF
FFFE0000FFFF
FFFFFFFFFFFF
FFFFFFFFFFFF
FFFFFFFFFFFF
FFFFFFFFFFFF
FFFFFFFFFFFE
7FFFFFFFFFFE
7FFFFFFFFFFC
3FFFFFFFFFF8
1FFFFFFFFFF0
1FFFFFFFFFF0
0FFFFFFFFFE0
07FFFFFFFFC0
03FFFFFFFFC0
03FFFFFFFF80
ENDCHAR
STARTCHAR 00F3
ENCODING 243
SWIDTH 618 0
DWIDTH 55 0
BBX 48 75 4 0
BITMAP
00000001FE00
00003FFFFE00
003FFFFFFE00
01FFFFFFFE00
01FFFFFFF000
01FFFFFE0000
01FFFFC00000
01FFFC000000
01FF80000000
000000000000
000000000000
000000000000
000000000000
03FFFFFFFF80
07FFFFFFFFC0
07FFFFFFFFC0
0FFFFFFFFFE0
1FFFFFFFFFF0
1FFFFFFFFFF8
3FFFFFFFFFF8
7FFFFFFFFFFC
FFFFFFFFFFFE
FFFFFFFFFFFE
FFFFFFFFFFFF
FFFFFFFFFFFF
FFFFFFFFFFFF
FFFFFFFFFFFF
FFFE0000FFFF
FFFC00007FFF
FFF800003FFF
FFF800003FFF
FFF800003FFF
FFF800003FFF
FFF800003FFF
FFF800003FFF
FFF800003FFF
FFF800003FFF
FFF800003FFF
FFF800003FFF
FFF800003FFF
FFF800003FFF
FFF800003FFF
FFF800003FFF
FFF800003FFF
FFF800003FFF
FFF800003FFF
FFF800003FFF
FFF800003FFF
FFF800003FFF
FFF800003FFF
FFF800003FFF
FFF800003FFF
FFF800003FFF
FFF800003FFF
FFF800003FFF
FFF800003FFF
FFF800003FFF
FFF800003FFF
FFFC00007FFF
FFFC00007FFF
FFFE0000FFFF
FFFFFFFFFFFF
FFFFFFFFFFFF
FFFFFFFFFFFF
FFFFFFFFFFFF
FFFFFFFFFFFE
7FFFFFFFFFFE
7FFFFFFFFFFC
3FFFFFFFFFF8
1FFFFFFFFFF0
1FFFFFFFFFF0
0FFFFFFFFFE0
07FFFFFFFFC0
03FFFFFFFFC0
03FFFFFFFF80
ENDCHAR
STARTCHAR 00F4
ENCODING 244
SWIDTH 618 0
DWIDTH 55 0
BBX 48 77 4 0
BITMAP
000FFFFFE000
001FFFFFF000
003FFFFFF800
007FFFFFFC00
00FFFFFFFE00
01FFFFFFFF00
03FFFFFFFF80
07FF0001FFC0
07FE0000FFC0
07FC00007FC0
07F800003FC0
000000000000
000000000000
000000000000
000000000000
03FFFFFFFF80
07FFFFFFFFC0
07FFFFFFFFC0
0FFFFFFFFFE0
1FFFFFFFFFF0
1FFFFFFFFFF8
3FFFFFFFFFF8
7FFFFFFFFFFC
FFFFFFFFFFFE
FFFFFFFFFFFE
FFFFFFFFFFFF
FFFFFFFFFFFF
FFFFFFFFFFFF
FFFFFFFFFFFF
FFFE0000FFFF
FFFC00007FFF
FFF800003FFF
FFF800003FFF
FFF800003FFF
FFF800003FFF
FFF800003FFF
FFF800003FFF
FFF800003FFF
FFF800003FFF
FFF800003FFF
FFF800003FFF
FFF800003FFF
FFF800003FFF
FFF800003FFF
FFF800003FFF
FFF800003FFF
FFF800003FFF
FFF800003FFF
FFF800003FFF
FFF800003FFF
FFF800003FFF
FFF800003FFF
FFF800003FFF
FFF800003FFF
FFF800003FFF
FFF800003FFF
FFF800003FFF
FFF800003FFF
FFF800003FFF
FFF800003FFF
FFFC00007FFF
FFFC00007FFF
FFFE0000FFFF
FFFFFFFFFFFF
FFFFFFFFFFFF
FFFFFFFFFFFF
FFFFFFFFFFFF
FFFFFFFFFFFE
7FFFFFFFFFFE
7FFFFFFFFFFC
3FFFFFFFFFF8
1FFFFFFFFFF0
1FFFFFFFFFF0
0FFFFFFFFFE0
07FFFFFFFFC0
03FFFFFFFFC0
03FFFFFFFF80
ENDCHAR
STARTCHAR 00F5
ENCODING 245
SWIDTH 618 0
DWIDTH 55 0
BBX 48 78 4 0
BITMAP
000060000000
0001FC000000
0007FF000000
001FFFE003C0
007FFFFC0FC0
01FFFFFFBFC0
07FFFFFFFFC0
07FF1FFFFFC0
07FE03FFFFC0
07F8007FFF00
07F0000FFC00
07C00001F000
000000000000
000000000000
000000000000
000000000000
03FFFFFFFF80
07FFFFFFFFC0
07FFFFFFFFC0
0FFFFFFFFFE0
1FFFFFFFFFF0
1FFFFFFFFFF8
3FFFFFFFFFF8
7FFFFFFFFFFC
FFFFFFFFFFFE
FFFFFFFFFFFE
FFFFFFFFFFFF
FFFFFFFFFFFF
FFFFFFFFFFFF
FFFFFFFFFFFF
FFFE0000FFFF
FFFC00007FFF
FFF800003FFF
FFF800003FFF
FFF800003FFF
FFF800003FFF
FFF800003FFF
FFF800003FFF
FFF800003FFF
FFF800003FFF
FFF800003FFF
FFF800003FFF
FFF800003FFF
FFF800003FFF
FFF800003FFF
FFF800003FFF
FFF800003FFF
FFF800003FFF
FFF800003FFF
FFF800003FFF
FFF800003FFF
FFF800003FFF
FFF800003FFF
FFF800003FFF
FFF800003FFF
FFF800003FFF
FFF800003FFF
FFF800003FFF
FFF800003FFF
FFF800003FFF
FFF800003FFF
FFFC00007FFF
FFFC00007FFF
FFFE0000FFFF
FFFFFFFFFFFF
FFFFFFFFFFFF
FFFFFFFFFFFF
FFFFFFFFFFFF
FFFFFFFFFFFE
7FFFFFFFFFFE
7FFFFFFFFFFC
3FFFFFFFFFF8
1FFFFFFFFFF0
1FFFFFFFFFF0
0FFFFFFFFFE0
07FFFFFFFFC0
03FFFFFFFFC0
03FFFFFFFF80
ENDCHAR
STARTCHAR 00F6
ENCODING 246
SWIDTH 618 0
DWIDTH 55 0
BBX 48 74 4 0
BITMAP
000FF01FE000
000FF01FE000
000FF01FE000
000FF01FE000
000FF01FE000
000FF01FE000
000FF01FE000
000FF01FE000
000000000000
000000000000
000000000000
000000000000
03FFFFFFFF80
07FFFFFFFFC0
07FFFFFFFFC0
0FFFFFFFFFE0
1FFFFFFFFFF0
1FFFFFFFFFF8
3FFFFFFFFFF8
7FFFFFFFFFFC
FFFFFFFFFFFE
FFFFFFFFFFFE
FFFFFFFFFFFF
FFFFFFFFFFFF
FFFFFFFFFFFF
FFFFFFFFFFFF
FFFE0000FFFF
FFFC00007FFF
FFF800003FFF
FFF800003FFF
FFF800003FFF
FFF800003FFF
FFF800003FFF
FFF800003FFF
FFF800003FFF
FFF800003FFF
FFF800003FFF
FFF800003FFF
FFF800003FFF
FFF800003FFF
FFF800003FFF
FFF800003FFF
FFF800003FFF
FFF800003FFF
FFF800003FFF
FFF800003FFF
FFF800003FFF
FFF800003FFF
FFF800003FFF
FFF800003FFF
FFF800003FFF
FFF800003FFF
FFF800003FFF
FFF800003FFF
FFF800003FFF
FFF800003FFF
FFF800003FFF
FFFC00007FFF
FFFC00007FFF
FFFE0000FFFF
FFFFFFFFFFFF
FFFFFFFFFFFF
FFFFFFFFFFFF
FFFFFFFFFFFF
FFFFFFFFFFFE
7FFFFFFFFFFE
7FFFFFFFFFFC
3FFFFFFFFFF8
1FFFFFFFFFF0
1FFFFFFFFFF0
0FFFFFFFFFE0
07FFFFFFFFC0
03FFFFFFFFC0
03FFFFFFFF80
ENDCHAR
STARTCHAR 00F7
ENCODING 247
SWIDTH 427 0
DWIDTH 38 0
BBX 34 33 2 15
BITMAP
0007FC0000
0007FC0000
0007FC0000
0007FC0000
0007FC0000
0007FC0000
0007FC0000
0007FC0000
0007FC0000
0000000000
0000000000
0000000000
FFFFFFFFC0
FFFFFFFFC0
FFFFFFFFC0
FFFFFFFFC0
FFFFFFFFC0
FFFFFFFFC0
FFFFFFFFC0
FFFFFFFFC0
FFFFFFFFC0
0000000000
0000000000
0000000000
0007FC0000
0007FC0000
0007FC0000
0007FC0000
0007FC0000
0007FC0000
0007FC0000
0007FC0000
0007FC0000
ENDCHAR
STARTCHAR 00F8
ENCODING 248
SWIDTH 618 0
DWIDTH 55 0
BBX 48 76 4 -7
BITMAP
000000000FFC
000000000FFC
000000001FF8
000000001FF8
000000003FF0
000000003FF0
000000007FE0
03FFFFFFFFE0
07FFFFFFFFC0
07FFFFFFFFC0
0FFFFFFFFFE0
1FFFFFFFFFF0
1FFFFFFFFFF8
3FFFFFFFFFF8
7FFFFFFFFFFC
FFFFFFFFFFFE
FFFFFFFFFFFE
FFFFFFFFFFFF
FFFFFFFFFFFF
FFFFFFFFFFFF
FFFFFFFFFFFF
FFFE003FFFFF
FFFC003FFFFF
FFF8007FFFFF
FFF8007FFFFF
FFF800FFFFFF
FFF800FFFFFF
FFF801FFBFFF
FFF801FFBFFF
FFF801FF3FFF
FFF803FF3FFF
FFF803FE3FFF
FFF807FE3FFF
FFF807FC3FFF
FFF80FFC3FFF
FFF80FFC3FFF
FFF81FF83FFF
FFF81FF83FFF
FFF83FF03FFF
FFF83FF03FFF
FFF87FE03FFF
FFF87FE03FFF
FFF8FFC03FFF
FFF8FFC03FFF
FFF9FF803FFF
FFF9FF803FFF
FFF9FF003FFF
FFFBFF003FFF
FFFBFE003FFF
FFFFFE003FFF
FFFFFC003FFF
FFFFFC003FFF
FFFFFC007FFF
FFFFF8007FFF
FFFFF800FFFF
FFFFFFFFFFFF
FFFFFFFFFFFF
FFFFFFFFFFFF
FFFFFFFFFFFF
FFFFFFFFFFFE
7FFFFFFFFFFE
7FFFFFFFFFFC
3FFFFFFFFFF8
1FFFFFFFFFF0
1FFFFFFFFFF0
0FFFFFFFFFE0
07FFFFFFFFC0
07FFFFFFFFC0
0FFFFFFFFF80
0FFC00000000
1FF800000000
1FF800000000
3FF000000000
3FF000000000
7FE000000000
7FE000000000
ENDCHAR
STARTCHAR 00F9
ENCODING 249
SWIDTH 607 0
DWIDTH 54 0
BBX 47 75 4 0
BITMAP
00FF00000000
00FFF8000000
00FFFFC00000
00FFFFFE0000
00FFFFFFE000
00FFFFFFFF00
003FFFFFFF00
0003FFFFFF00
0000000FFF00
000000000000
000000000000
000000000000
000000000000
FFF800007FFE
FFF800007FFE
FFF800007FFE
FFF800007FFE
FFF800007FFE
FFF800007FFE
FFF800007FFE
FFF800007FFE
FFF800007FFE
FFF800007FFE
FFF800007FFE
FFF800007FFE
FFF800007FFE
FFF800007FFE
FFF800007FFE
FFF800007FFE
FFF800007FFE
FFF800007FFE
FFF800007FFE
FFF800007FFE
FFF800007FFE
FFF800007FFE
FFF800007FFE
FFF800007FFE
FFF800007FFE
FFF800007FFE
FFF800007FFE
FFF800007FFE
FFF800007FFE
FFF800007FFE
FFF800007FFE
FFF800007FFE
FFF800007FFE
FFF800007FFE
FFF800007FFE
FFF800007FFE
FFF800007FFE
FFF800007FFE
FFF800007FFE
FFF800007FFE
FFF800007FFE
FFF800007FFE
FFF800007FFE
FFF800007FFE
FFF800007FFE
FFFC00007FFE
FFFC0000FFFE
FFFE0001FFFE
FFFFFFFFFFFE
FFFFFFFFFFFE
FFFFFFFFFFFE
FFFFFFFFFFFE
FFFFFFFFFFFE
7FFFFFFFFFFC
7FFFFFFFFFF8
3FFFFFFFFFF0
1FFFFFFFFFF0
1FFFFFFFFFE0
0FFFFFFFFFC0
07FFFFFFFFC0
03FFFFFFFF80
03FFFFFFFF00
ENDCHAR
STARTCHAR 00FA
ENCODING 250
SWIDTH 607 0
DWIDTH 54 0
BBX 47 75 4 0
BITMAP
000000007F00
00001FFFFF00
001FFFFFFF00
00FFFFFFFF00
00FFFFFFF800
00FFFFFF0000
00FFFFF00000
00FFFE000000
00FFC0000000
000000000000
000000000000
000000000000
000000000000
FFF800007FFE
FFF800007FFE
FFF800007FFE
FFF800007FFE
FFF800007FFE
FFF800007FFE
FFF800007FFE
FFF800007FFE
FFF800007FFE
FFF800007FFE
FFF800007FFE
FFF800007FFE
FFF800007FFE
FFF800007FFE
FFF800007FFE
FFF800007FFE
FFF800007FFE
FFF800007FFE
FFF800007FFE
FFF800007FFE
FFF800007FFE
FFF800007FFE
FFF800007FFE
FFF800007FFE
FFF800007FFE
FFF800007FFE
FFF800007FFE
FFF800007FFE
FFF800007FFE
FFF800007FFE
FFF800007FFE
FFF800007FFE
FFF800007FFE
FFF800007FFE
FFF800007FFE
FFF800007FFE
FFF800007FFE
FFF800007FFE
FFF800007FFE
FFF800007FFE
FFF800007FFE
FFF800007FFE
FFF800007FFE
FFF800007FFE
FFF800007FFE
FFFC00007FFE
FFFC0000FFFE
FFFE0001FFFE
FFFFFFFFFFFE
FFFFFFFFFFFE
FFFFFFFFFFFE
FFFFFFFFFFFE
FFFFFFFFFFFE
7FFFFFFFFFFC
7FFFFFFFFFF8
3FFFFFFFFFF0
1FFFFFFFFFF0
1FFFFFFFFFE0
0FFFFFFFFFC0
07FFFFFFFFC0
03FFFFFFFF80
03FFFFFFFF00
ENDCHAR
STARTCHAR 00FB
ENCODING 251
SWIDTH 607 0
DWIDTH 54 0
BBX 47 77 4 0
BITMAP
000FFFFFE000
001FFFFFF000
003FFFFFF800
007FFFFFFC00
00FFFFFFFE00
01FFFFFFFF00
03FFFFFFFF80
07FF0003FF80
07FE0000FF80
07FC00007F80
07F800003F80
000000000000
000000000000
000000000000
000000000000
FFF800007FFE
FFF800007FFE
FFF800007FFE
FFF800007FFE
FFF800007FFE
FFF800007FFE
FFF800007FFE
FFF800007FFE
FFF800007FFE
FFF800007FFE
FFF800007FFE
FFF800007FFE
FFF800007FFE
FFF800007FFE
FFF800007FFE
FFF800007FFE
FFF800007FFE
FFF800007FFE
FFF800007FFE
FFF800007FFE
FFF800007FFE
FFF800007FFE
FFF800007FFE
FFF800007FFE
FFF800007FFE
FFF800007FFE
FFF800007FFE
FFF800007FFE
FFF800007FFE
FFF800007FFE
FFF800007FFE
FFF800007FFE
FFF800007FFE
FFF800007FFE
FFF800007FFE
FFF800007FFE
FFF800007FFE
FFF800007FFE
FFF800007FFE
FFF800007FFE
FFF800007FFE
FFF800007FFE
FFF800007FFE
FFF800007FFE
FFF800007FFE
FFFC00007FFE
FFFC0000FFFE
FFFE0001FFFE
FFFFFFFFFFFE
FFFFFFFFFFFE
FFFFFFFFFFFE
FFFFFFFFFFFE
FFFFFFFFFFFE
7FFFFFFFFFFC
7FFFFFFFFFF8
3FFFFFFFFFF0
1FFFFFFFFFF0
1FFFFFFFFFE0
0FFFFFFFFFC0
07FFFFFFFFC0
03FFFFFFFF80
03FFFFFFFF00
ENDCHAR
STARTCHAR 00FC
ENCODING 252
SWIDTH 607 0
DWIDTH 54 0
BBX 47 74 4 0
BITMAP
000FF01FE000
000FF01FE000
000FF01FE000
000FF01FE000
000FF01FE000
000FF01FE000
000FF01FE000
000FF01FE000
000000000000
000000000000
000000000000
000000000000
FFF800007FFE
FFF800007FFE
FFF800007FFE
FFF800007FFE
FFF800007FFE
FFF800007FFE
FFF800007FFE
FFF800007FFE
FFF800007FFE
FFF800007FFE
FFF800007FFE
FFF800007FFE
FFF800007FFE
FFF800007FFE
FFF800007FFE
FFF800007FFE
FFF800007FFE
FFF800007FFE
FFF800007FFE
FFF800007FFE
FFF800007FFE
FFF800007FFE
FFF800007FFE
FFF800007FFE
FFF800007FFE
FFF800007FFE
FFF800007FFE
FFF800007FFE
FFF800007FFE
FFF800007FFE
FFF800007FFE
FFF800007FFE
FFF800007FFE
FFF800007FFE
FFF800007FFE
FFF800007FFE
FFF800007FFE
FFF800007FFE
FFF800007FFE
FFF800007FFE
FFF800007FFE
FFF800007FFE
FFF800007FFE
FFF800007FFE
FFF800007FFE
FFFC00007FFE
FFFC0000FFFE
FFFE0001FFFE
FFFFFFFFFFFE
FFFFFFFFFFFE
FFFFFFFFFFFE
FFFFFFFFFFFE
FFFFFFFFFFFE
7FFFFFFFFFFC
7FFFFFFFFFF8
3FFFFFFFFFF0
1FFFFFFFFFF0
1FFFFFFFFFE0
0FFFFFFFFFC0
07FFFFFFFFC0
03FFFFFFFF80
03FFFFFFFF00
ENDCHAR
STARTCHAR 00FD
ENCODING 253
SWIDTH 461 0
DWIDTH 41 0
BBX 41 75 0 0
BITMAP
00000007F800
0000FFFFF800
00FFFFFFF800
07FFFFFFF800
07FFFFFFC000
07FFFFF80000
07FFFF000000
07FFF0000000
07FE00000000
000000000000
000000000000
000000000000
000000000000
FFF80007FF80
FFF8000FFF80
FFFC000FFF80
FFFC000FFF80
FFFE001FFF80
FFFE001FFF80
FFFE001FFF80
7FFF003FFF80
7FFF003FFF80
3FFF003FFF00
3FFF807FFF00
1FFF807FFE00
1FFF807FFE00
1FFFC0FFFC00
0FFFC0FFFC00
0FFFC0FFFC00
07FFE1FFF800
07FFE1FFF800
03FFE1FFF000
03FFF3FFF000
01FFF3FFE000
01FFF3FFE000
01FFFFFFC000
00FFFFFFC000
00FFFFFFC000
007FFFFF8000
007FFFFF8000
003FFFFF0000
003FFFFF0000
001FFFFE0000
001FFFFE0000
001FFFFE0000
000FFFFC0000
000FFFFC0000
0007FFF80000
0007FFF80000
0003FFF00000
0003FFF00000
0003FFF00000
0003FFF00000
0003FFF00000
0003FFF00000
0003FFF00000
0003FFF00000
0003FFF00000
0003FFF00000
0003FFF00000
0003FFF00000
0003FFF00000
0003FFF00000
0003FFF00000
0003FFF00000
0003FFF00000
0003FFF00000
0003FFF00000
0003FFF00000
0003FFF00000
0003FFF00000
0003FFF00000
0003FFF00000
0003FFF00000
0003FFF00000
ENDCHAR
STARTCHAR 00FE
ENCODING 254
SWIDTH 540 0
DWIDTH 48 0
BBX 41 72 4 0
BITMAP
FFF800000000
FFF800000000
FFF800000000
FFF800000000
FFF800000000
FFF800000000
FFF800000000
FFF800000000
FFF800000000
FFF800000000
FFFFFFFFC000
FFFFFFFFE000
FFFFFFFFE000
FFFFFFFFF000
FFFFFFFFF800
FFFFFFFFFC00
FFFFFFFFFC00
FFFFFFFFFE00
FFFFFFFFFF00
FFFFFFFFFF00
FFFFFFFFFF80
FFFFFFFFFF80
FFFFFFFFFF80
FFFFFFFFFF80
FFF8007FFF80
FFF8003FFF80
FFF8001FFF80
FFF8001FFF80
FFF8001FFF80
FFF8001FFF80
FFF8001FFF80
FFF8001FFF80
FFF8001FFF80
FFF8001FFF80
FFF8001FFF80
FFF8003FFF80
FFF8003FFF80
FFF8007FFF80
FFFFFFFFFF80
FFFFFFFFFF80
FFFFFFFFFF80
FFFFFFFFFF80
FFFFFFFFFF00
FFFFFFFFFE00
FFFFFFFFFE00
FFFFFFFFFC00
FFFFFFFFF800
FFFFFFFFF000
FFFFFFFFF000
FFFFFFFFE000
FFFFFFFFC000
FFFFFFFFC000
FFF800000000
FFF800000000
FFF800000000
FFF800000000
FFF800000000
FFF800000000
FFF800000000
FFF800000000
FFF800000000
FFF800000000
FFF800000000
FFF800000000
FFF800000000
FFF800000000
FFF800000000
FFF800000000
FFF800000000
FFF800000000
FFF800000000
FFF800000000
ENDCHAR
STARTCHAR 00FF
ENCODING 255
SWIDTH 461 0
DWIDTH 41 0
BBX 41 74 0 0
BITMAP
003FC0FF0000
003FC0FF0000
003FC0FF0000
003FC0FF0000
003FC0FF0000
003FC0FF0000
003FC0FF0000
003FC0FF0000
000000000000
000000000000
000000000000
000000000000
FFF80007FF80
FFF8000FFF80
FFFC000FFF80
FFFC000FFF80
FFFE001FFF80
FFFE001FFF80
FFFE001FFF80
7FFF003FFF80
7FFF003FFF80
3FFF003FFF00
3FFF807FFF00
1FFF807FFE00
1FFF807FFE00
1FFFC0FFFC00
0FFFC0FFFC00
0FFFC0FFFC00
07FFE1FFF800
07FFE1FFF800
03FFE1FFF000
03FFF3FFF000
01FFF3FFE000
01FFF3FFE000
01FFFFFFC000
00FFFFFFC000
00FFFFFFC000
007FFFFF8000
007FFFFF8000
003FFFFF0000
003FFFFF0000
001FFFFE0000
001FFFFE0000
001FFFFE0000
000FFFFC0000
000FFFFC0000
0007FFF80000
0007FFF80000
0003FFF00000
0003FFF00000
0003FFF00000
0003FFF00000
0003FFF00000
0003FFF00000
0003FFF00000
0003FFF00000
0003FFF00000
0003FFF00000
0003FFF00000
0003FFF00000
0003FFF00000
0003FFF00000
0003FFF00000
0003FFF00000
0003FFF00000
0003FFF00000
0003FFF00000
0003FFF00000
0003FFF00000
0003FFF00000
0003FFF00000
0003FFF00000
0003FFF00000
0003FFF00000
ENDCHAR
STARTCHAR 0100
ENCODING 256
SWIDTH 585 0
DWIDTH 52 0
BBX 50 74 1 0
BITMAP
01FFFFFFFFC000
01FFFFFFFFC000
01FFFFFFFFC000
01FFFFFFFFC000
01FFFFFFFFC000
01FFFFFFFFC000
01FFFFFFFFC000
01FFFFFFFFC000
00000000000000
00000000000000
00000000000000
00000000000000
0007FFFFF80000
0007FFFFF80000
000FFFFFFC0000
000FFFFFFE0000
001FFFFFFE0000
001FFFFFFE0000
001FFFFFFE0000
001FFFFFFE0000
001FFFFFFF0000
003FFFFFFF0000
003FFFFFFF0000
003FFFFFFF0000
003FFFFFFF0000
003FFFFFFF8000
007FF807FF8000
007FF807FF8000
007FF807FF8000
007FF807FF8000
007FF003FFC000
00FFF003FFC000
00FFF003FFC000
00FFF003FFC000
00FFF003FFC000
00FFF003FFE000
01FFE001FFE000
01FFE001FFE000
01FFE001FFE000
01FFE001FFE000
01FFE001FFF000
03FFE001FFF000
03FFE001FFF000
03FFC000FFF000
03FFC000FFF000
03FFC000FFF800
07FFC000FFF800
07FFC000FFF800
07FFC000FFF800
07FFC000FFF800
07FFE001FFFC00
0FFFF003FFFC00
0FFFFFFFFFFC00
0FFFFFFFFFFC00
0FFFFFFFFFFC00
0FFFFFFFFFFE00
1FFFFFFFFFFE00
1FFFFFFFFFFE00
1FFFFFFFFFFE00
1FFF7FFFBFFE00
1FFF3FFF3FFF00
3FFF00003FFF00
3FFF00003FFF00
3FFE00001FFF00
3FFE00001FFF00
3FFE00001FFF80
7FFE00001FFF80
7FFE00001FFF80
7FFE00001FFF80
7FFC00000FFF80
7FFC00000FFFC0
FFFC00000FFFC0
FFFC00000FFFC0
FFFC00000FFFC0
ENDCHAR
STARTCHAR 0101
ENCODING 257
SWIDTH 585 0
DWIDTH 52 0
BBX 50 74 1 0
BITMAP
01FFFFFFFFC000
01FFFFFFFFC000
01FFFFFFFFC000
01FFFFFFFFC000
01FFFFFFFFC000
01FFFFFFFFC000
01FFFFFFFFC000
01FFFFFFFFC000
00000000000000
00000000000000
00000000000000
00000000000000
0007FFFFF80000
0007FFFFF80000
000FFFFFFC0000
000FFFFFFE0000
001FFFFFFE0000
001FFFFFFE0000
001FFFFFFE0000
001FFFFFFE0000
001FFFFFFF0000
003FFFFFFF0000
003FFFFFFF0000
003FFFFFFF0000
003FFFFFFF0000
003FFFFFFF8000
007FF807FF8000
007FF807FF8000
007FF807FF8000
007FF807FF8000
007FF003FFC000
00FFF003FFC000
00FFF003FFC000
00FFF003FFC000
00FFF003FFC000
00FFF003FFE000
01FFE001FFE000
01FFE001FFE000
01FFE001FFE000
01FFE001FFE000
01FFE001FFF000
03FFE001FFF000
03FFE001FFF000
03FFC000FFF000
03FFC000FFF000
03FFC000FFF800
07FFC000FFF800
07FFC000FFF800
07FFC000FFF800
07FFC000FFF800
07FFE001FFFC00
0FFFF003FFFC00
0FFFFFFFFFFC00
0FFFFFFFFFFC00
0FFFFFFFFFFC00
0FFFFFFFFFFE00
1FFFFFFFFFFE00
1FFFFFFFFFFE00
1FFFFFFFFFFE00
1FFF7FFFBFFE00
1FFF3FFF3FFF00
3FFF00003FFF00
3FFF00003FFF00
3FFE00001FFF00
3FFE00001FFF00
3FFE00001FFF80
7FFE00001FFF80
7FFE00001FFF80
7FFE00001FFF80
7FFC00000FFF80
7FFC00000FFFC0
FFFC00000FFFC0
FFFC00000FFFC0
FFFC00000FFFC0
ENDCHAR
STARTCHAR 0102
ENCODING 258
SWIDTH 585 0
DWIDTH 52 0
BBX 50 77 1 0
BITMAP
03F800000FE000
03FC00001FE000
03FE00003FE000
03FF80007FE000
03FFC001FFE000
01FFFFFFFFC000
00FFFFFFFF8000
007FFFFFFF0000
003FFFFFFE0000
001FFFFFFC0000
000FFFFFF80000
00000000000000
00000000000000
00000000000000
00000000000000
0007FFFFF80000
0007FFFFF80000
000FFFFFFC0000
000FFFFFFE0000
001FFFFFFE0000
001FFFFFFE0000
001FFFFFFE0000
001FFFFFFE0000
001FFFFFFF0000
003FFFFFFF0000
003FFFFFFF0000
003FFFFFFF0000
003FFFFFFF0000
003FFFFFFF8000
007FF807FF8000
007FF807FF8000
007FF807FF8000
007FF807FF8000
007FF003FFC000
00FFF003FFC000
00FFF003FFC000
00FFF003FFC000
00FFF003FFC000
00FFF003FFE000
01FFE001FFE000
01FFE001FFE000
01FFE001FFE000
01FFE001FFE000
01FFE001FFF000
03FFE001FFF000
03FFE001FFF000
03FFC000FFF000
03FFC000FFF000
03FFC000FFF800
07FFC000FFF800
07FFC000FFF800
07FFC000FFF800
07FFC000FFF800
07FFE001FFFC00
0FFFF003FFFC00
0FFFFFFFFFFC00
0FFFFFFFFFFC00
0FFFFFFFFFFC00
0FFFFFFFFFFE00
1FFFFFFFFFFE00
1FFFFFFFFFFE00
1FFFFFFFFFFE00
1FFF7FFFBFFE00
1FFF3FFF3FFF00
3FFF00003FFF00
3FFF00003FFF00
3FFE00001FFF00
3FFE00001FFF00
3FFE00001FFF80
7FFE00001FFF80
7FFE00001FFF80
7FFE00001FFF80
7FFC00000FFF80
7FFC00000FFFC0
FFFC00000FFFC0
FFFC00000FFFC0
FFFC00000FFFC0
ENDCHAR
STARTCHAR 0103
ENCODING 259
SWIDTH 585 0
DWIDTH 52 0
BBX 50 77 1 0
BITMAP
03F800000FE000
03FC00001FE000
03FE00003FE000
03FF80007FE000
03FFC001FFE000
01FFFFFFFFC000
00FFFFFFFF8000
007FFFFFFF0000
003FFFFFFE0000
001FFFFFFC0000
000FFFFFF80000
00000000000000
00000000000000
00000000000000
00000000000000
0007FFFFF80000
0007FFFFF80000
000FFFFFFC0000
000FFFFFFE0000
001FFFFFFE0000
001FFFFFFE0000
001FFFFFFE0000
001FFFFFFE0000
001FFFFFFF0000
003FFFFFFF0000
003FFFFFFF0000
003FFFFFFF0000
003FFFFFFF0000
003FFFFFFF8000
007FF807FF8000
007FF807FF8000
007FF807FF8000
007FF807FF8000
007FF003FFC000
00FFF003FFC000
00FFF003FFC000
00FFF003FFC000
00FFF003FFC000
00FFF003FFE000
01FFE001FFE000
01FFE001FFE000
01FFE001FFE000
01FFE001FFE000
01FFE001FFF000
03FFE001FFF000
03FFE001FFF000
03FFC000FFF000
03FFC000FFF000
03FFC000FFF800
07FFC000FFF800
07FFC000FFF800
07FFC000FFF800
07FFC000FFF800
07FFE001FFFC00
0FFFF003FFFC00
0FFFFFFFFFFC00
0FFFFFFFFFFC00
0FFFFFFFFFFC00
0FFFFFFFFFFE00
1FFFFFFFFFFE00
1FFFFFFFFFFE00
1FFFFFFFFFFE00
1FFF7FFFBFFE00
1FFF3FFF3FFF00
3FFF00003FFF00
3FFF00003FFF00
3FFE00001FFF00
3FFE00001FFF00
3FFE00001FFF80
7FFE00001FFF80
7FFE00001FFF80
7FFE00001FFF80
7FFC00000FFF80
7FFC00000FFFC0
FFFC00000FFFC0
FFFC00000FFFC0
FFFC00000FFFC0
ENDCHAR
STARTCHAR 0104
ENCODING 260
SWIDTH 585 0
DWIDTH 52 0
BBX 55 76 1 -14
BITMAP
0007FFFFF80000
0007FFFFF80000
000FFFFFFC0000
000FFFFFFE0000
001FFFFFFE0000
001FFFFFFE0000
001FFFFFFE0000
001FFFFFFE0000
001FFFFFFF0000
003FFFFFFF0000
003FFFFFFF0000
003FFFFFFF0000
003FFFFFFF0000
003FFFFFFF8000
007FF807FF8000
007FF807FF8000
007FF807FF8000
007FF807FF8000
007FF003FFC000
00FFF003FFC000
00FFF003FFC000
00FFF003FFC000
00FFF003FFC000
00FFF003FFE000
01FFE001FFE000
01FFE001FFE000
01FFE001FFE000
01FFE001FFE000
01FFE001FFF000
03FFE001FFF000
03FFE001FFF000
03FFC000FFF000
03FFC000FFF000
03FFC000FFF800
07FFC000FFF800
07FFC000FFF800
07FFC000FFF800
07FFC000FFF800
07FFE001FFFC00
0FFFF003FFFC00
0FFFFFFFFFFC00
0FFFFFFFFFFC00
0FFFFFFFFFFC00
0FFFFFFFFFFE00
1FFFFFFFFFFE00
1FFFFFFFFFFE00
1FFFFFFFFFFE00
1FFF7FFFBFFE00
1FFF3FFF3FFF00
3FFF00003FFF00
3FFF00003FFF00
3FFE00001FFF00
3FFE00001FFF00
3FFE00001FFF80
7FFE00001FFF80
7FFE00001FFF80
7FFE00001FFF80
7FFC00000FFF80
7FFC00000FFFC0
FFFC00000FFFC0
FFFC00000FFFC0
FFFC00000FFFC0
00000000000FC0
00000000001F80
00000000001F80
00000000003F00
00000000007E00
00000000007E00
0000000000FC3E
0000000000FC3E
0000000000FFFE
0000000000FFFE
0000000000FFFE
0000000000FFFC
0000000000FFFC
00000000007FF8
ENDCHAR
STARTCHAR 0105
ENCODING 261
SWIDTH 585 0
DWIDTH 52 0
BBX 55 76 1 -14
BITMAP
0007FFFFF80000
0007FFFFF80000
000FFFFFFC0000
000FFFFFFE0000
001FFFFFFE0000
001FFFFFFE0000
001FFFFFFE0000
001FFFFFFE0000
001FFFFFFF0000
003FFFFFFF0000
003FFFFFFF0000
003FFFFFFF0000
003FFFFFFF0000
003FFFFFFF8000
007FF807FF8000
007FF807FF8000
007FF807FF8000
007FF807FF8000
007FF003FFC000
00FFF003FFC000
00FFF003FFC000
00FFF003FFC000
00FFF003FFC000
00FFF003FFE000
01FFE001FFE000
01FFE001FFE000
01FFE001FFE000
01FFE001FFE000
01FFE001FFF000
03FFE001FFF000
03FFE001FFF000
03FFC000FFF000
03FFC000FFF000
03FFC000FFF800
07FFC000FFF800
07FFC000FFF800
07FFC000FFF800
07FFC000FFF800
07FFE001FFFC00
0FFFF003FFFC00
0FFFFFFFFFFC00
0FFFFFFFFFFC00
0FFFFFFFFFFC00
0FFFFFFFFFFE00
1FFFFFFFFFFE00
1FFFFFFFFFFE00
1FFFFFFFFFFE00
1FFF7FFFBFFE00
1FFF3FFF3FFF00
3FFF00003FFF00
3FFF00003FFF00
3FFE00001FFF00
3FFE00001FFF00
3FFE00001FFF80
7FFE00001FFF80
7FFE00001FFF80
7FFE00001FFF80
7FFC00000FFF80
7FFC00000FFFC0
FFFC00000FFFC0
FFFC00000FFFC0
FFFC00000FFFC0
00000000000FC0
00000000001F80
00000000001F80
00000000003F00
00000000007E00
00000000007E00
0000000000FC3E
0000000000FC3E
0000000000FFFE
0000000000FFFE
0000000000FFFE
0000000000FFFC
0000000000FFFC
00000000007FF8
ENDCHAR
STARTCHAR 0106
ENCODING 262
SWIDTH 540 0
DWIDTH 48 0
BBX 41 75 4 0
BITMAP
00000007F000
0001FFFFF000
00FFFFFFF000
07FFFFFFF000
0FFFFFFFC000
0FFFFFF80000
0FFFFF000000
0FFFE0000000
0FFC00000000
000000000000
000000000000
000000000000
000000000000
FFFFFFFFC000
FFFFFFFFE000
FFFFFFFFF000
FFFFFFFFF800
FFFFFFFFF800
FFFFFFFFFC00
FFFFFFFFFE00
FFFFFFFFFE00
FFFFFFFFFF00
FFFFFFFFFF80
FFFFFFFFFF80
FFFFFFFFFF80
FFFFFFFFFF80
FFFFFFFFFF80
FFF8003FFF80
FFF8001FFF80
FFF8000FFF80
FFF800000000
FFF800000000
FFF800000000
FFF800000000
FFF800000000
FFF800000000
FFF800000000
FFF800000000
FFF800000000
FFF800000000
FFF800000000
FFF800000000
FFF800000000
FFF800000000
FFF800000000
FFF800000000
FFF800000000
FFF800000000
FFF800000000
FFF800000000
FFF800000000
FFF800000000
FFF800000000
FFF800000000
FFF800000000
FFF800000000
FFF800000000
FFF800000000
FFF8000FFF80
FFF8001FFF80
FFF8003FFF80
FFFFFFFFFF80
FFFFFFFFFF80
FFFFFFFFFF80
FFFFFFFFFF80
FFFFFFFFFF80
FFFFFFFFFF00
FFFFFFFFFE00
FFFFFFFFFE00
FFFFFFFFFC00
FFFFFFFFF800
FFFFFFFFF000
FFFFFFFFF000
FFFFFFFFE000
FFFFFFFFC000
ENDCHAR
STARTCHAR 0107
ENCODING 263
SWIDTH 540 0
DWIDTH 48 0
BBX 41 75 4 0
BITMAP
00000007F000
0001FFFFF000
00FFFFFFF000
07FFFFFFF000
0FFFFFFFC000
0FFFFFF80000
0FFFFF000000
0FFFE0000000
0FFC00000000
000000000000
000000000000
000000000000
000000000000
FFFFFFFFC000
FFFFFFFFE000
FFFFFFFFF000
FFFFFFFFF800
FFFFFFFFF800
FFFFFFFFFC00
FFFFFFFFFE00
FFFFFFFFFE00
FFFFFFFFFF00
FFFFFFFFFF80
FFFFFFFFFF80
FFFFFFFFFF80
FFFFFFFFFF80
FFFFFFFFFF80
FFF8003FFF80
FFF8001FFF80
FFF8000FFF80
FFF800000000
FFF800000000
FFF800000000
FFF800000000
FFF800000000
FFF800000000
FFF800000000
FFF800000000
FFF800000000
FFF800000000
FFF800000000
FFF800000000
FFF800000000
FFF800000000
FFF800000000
FFF800000000
FFF800000000
FFF800000000
FFF800000000
FFF800000000
FFF800000000
FFF800000000
FFF800000000
FFF800000000
FFF800000000
FFF800000000
FFF800000000
FFF800000000
FFF8000FFF80
FFF8001FFF80
FFF8003FFF80
FFFFFFFFFF80
FFFFFFFFFF80
FFFFFFFFFF80
FFFFFFFFFF80
FFFFFFFFFF80
FFFFFFFFFF00
FFFFFFFFFE00
FFFFFFFFFE00
FFFFFFFFFC00
FFFFFFFFF800
FFFFFFFFF000
FFFFFFFFF000
FFFFFFFFE000
FFFFFFFFC000
ENDCHAR
STARTCHAR 0108
ENCODING 264
SWIDTH 540 0
DWIDTH 48 0
BBX 41 77 4 0
BITMAP
03FFFFF80000
07FFFFFC0000
0FFFFFFE0000
1FFFFFFF0000
3FFFFFFF8000
7FFFFFFFC000
FFFFFFFFE000
FFE0007FF000
FF80003FF000
FF00001FF000
FE00000FF000
000000000000
000000000000
000000000000
000000000000
FFFFFFFFC000
FFFFFFFFE000
FFFFFFFFF000
FFFFFFFFF800
FFFFFFFFF800
FFFFFFFFFC00
FFFFFFFFFE00
FFFFFFFFFE00
FFFFFFFFFF00
FFFFFFFFFF80
FFFFFFFFFF80
FFFFFFFFFF80
FFFFFFFFFF80
FFFFFFFFFF80
FFF8003FFF80
FFF8001FFF80
FFF8000FFF80
FFF800000000
FFF800000000
FFF800000000
FFF800000000
FFF800000000
FFF800000000
FFF800000000
FFF800000000
FFF800000000
FFF800000000
FFF800000000
FFF800000000
FFF800000000
FFF800000000
FFF800000000
FFF800000000
FFF800000000
FFF800000000
FFF800000000
FFF800000000
FFF800000000
FFF800000000
FFF800000000
FFF800000000
FFF800000000
FFF800000000
FFF800000000
FFF800000000
FFF8000FFF80
FFF8001FFF80
FFF8003FFF80
FFFFFFFFFF80
FFFFFFFFFF80
FFFFFFFFFF80
FFFFFFFFFF80
FFFFFFFFFF80
FFFFFFFFFF00
FFFFFFFFFE00
FFFFFFFFFE00
FFFFFFFFFC00
FFFFFFFFF800
FFFFFFFFF000
FFFFFFFFF000
FFFFFFFFE000
FFFFFFFFC000
ENDCHAR
STARTCHAR 0109
ENCODING 265
SWIDTH 540 0
DWIDTH 48 0
BBX 41 77 4 0
BITMAP
03FFFFF80000
07FFFFFC0000
0FFFFFFE0000
1FFFFFFF0000
3FFFFFFF8000
7FFFFFFFC000
FFFFFFFFE000
FFE0007FF000
FF80003FF000
FF00001FF000
FE00000FF000
000000000000
000000000000
000000000000
000000000000
FFFFFFFFC000
FFFFFFFFE000
FFFFFFFFF000
FFFFFFFFF800
FFFFFFFFF800
FFFFFFFFFC00
FFFFFFFFFE00
FFFFFFFFFE00
FFFFFFFFFF00
FFFFFFFFFF80
FFFFFFFFFF80
FFFFFFFFFF80
FFFFFFFFFF80
FFFFFFFFFF80
FFF8003FFF80
FFF8001FFF80
FFF8000FFF80
FFF800000000
FFF800000000
FFF800000000
FFF800000000
FFF800000000
FFF800000000
FFF800000000
FFF800000000
FFF800000000
FFF800000000
FFF800000000
FFF800000000
FFF800000000
FFF800000000
FFF800000000
FFF800000000
FFF800000000
FFF800000000
FFF800000000
FFF800000000
FFF800000000
FFF800000000
FFF800000000
FFF800000000
FFF800000000
FFF800000000
FFF800000000
FFF800000000
FFF8000FFF80
FFF8001FFF80
FFF8003FFF80
FFFFFFFFFF80
FFFFFFFFFF80
FFFFFFFFFF80
FFFFFFFFFF80
FFFFFFFFFF80
FFFFFFFFFF00
FFFFFFFFFE00
FFFFFFFFFE00
FFFFFFFFFC00
FFFFFFFFF800
FFFFFFFFF000
FFFFFFFFF000
FFFFFFFFE000
FFFFFFFFC000
ENDCHAR
STARTCHAR 010A
ENCODING 266
SWIDTH 540 0
DWIDTH 48 0
BBX 41 76 4 0
BITMAP
0000FF000000
0001FF800000
0001FFC00000
0001FFC00000
0001FFC00000
0001FFC00000
0001FFC00000
0001FFC00000
0001FF800000
0000FF000000
000000000000
000000000000
000000000000
000000000000
FFFFFFFFC000
FFFFFFFFE000
FFFFFFFFF000
FFFFFFFFF800
FFFFFFFFF800
FFFFFFFFFC00
FFFFFFFFFE00
FFFFFFFFFE00
FFFFFFFFFF00
FFFFFFFFFF80
FFFFFFFFFF80
FFFFFFFFFF80
FFFFFFFFFF80
FFFFFFFFFF80
FFF8003FFF80
FFF8001FFF80
FFF8000FFF80
FFF800000000
FFF800000000
FFF800000000
FFF800000000
FFF800000000
FFF800000000
FFF800000000
FFF800000000
FFF800000000
FFF800000000
FFF800000000
FFF800000000
FFF800000000
FFF800000000
FFF800000000
FFF800000000
FFF800000000
FFF800000000
FFF800000000
FFF800000000
FFF800000000
FFF800000000
FFF800000000
FFF800000000
FFF800000000
FFF800000000
FFF800000000
FFF800000000
FFF8000FFF80
FFF8001FFF80
FFF8003FFF80
FFFFFFFFFF80
FFFFFFFFFF80
FFFFFFFFFF80
FFFFFFFFFF80
FFFFFFFFFF80
FFFFFFFFFF00
FFFFFFFFFE00
FFFFFFFFFE00
FFFFFFFFFC00
FFFFFFFFF800
FFFFFFFFF000
FFFFFFFFF000
FFFFFFFFE000
FFFFFFFFC000
ENDCHAR
STARTCHAR 010B
ENCODING 267
SWIDTH 540 0
DWIDTH 48 0
BBX 41 76 4 0
BITMAP
0000FF000000
0001FF800000
0001FFC00000
0001FFC00000
0001FFC00000
0001FFC00000
0001FFC00000
0001FFC00000
0001FF800000
0000FF000000
000000000000
000000000000
000000000000
000000000000
FFFFFFFFC000
FFFFFFFFE000
FFFFFFFFF000
FFFFFFFFF800
FFFFFFFFF800
FFFFFFFFFC00
FFFFFFFFFE00
FFFFFFFFFE00
FFFFFFFFFF00
FFFFFFFFFF80
FFFFFFFFFF80
FFFFFFFFFF80
FFFFFFFFFF80
FFFFFFFFFF80
FFF8003FFF80
FFF8001FFF80
FFF8000FFF80
FFF800000000
FFF800000000
FFF800000000
FFF800000000
FFF800000000
FFF800000000
FFF800000000
FFF800000000
FFF800000000
FFF800000000
FFF800000000
FFF800000000
FFF800000000
FFF800000000
FFF800000000
FFF800000000
FFF800000000
FFF800000000
FFF800000000
FFF800000000
FFF800000000
FFF800000000
FFF800000000
FFF800000000
FFF800000000
FFF800000000
FFF800000000
FFF800000000
FFF8000FFF80
FFF8001FFF80
FFF8003FFF80
FFFFFFFFFF80
FFFFFFFFFF80
FFFFFFFFFF80
FFFFFFFFFF80
FFFFFFFFFF80
FFFFFFFFFF00
FFFFFFFFFE00
FFFFFFFFFE00
FFFFFFFFFC00
FFFFFFFFF800
FFFFFFFFF000
FFFFFFFFF000
FFFFFFFFE000
FFFFFFFFC000
ENDCHAR
STARTCHAR 010C
ENCODING 268
SWIDTH 540 0
DWIDTH 48 0
BBX 41 77 4 0
BITMAP
01E0003C0000
01F0007C0000
01F800FC0000
01FC01FC0000
01FE03FC0000
01FF07FC0000
00FFFFF80000
007FFFF00000
003FFFE00000
001FFFC00000
000FFF800000
000000000000
000000000000
000000000000
000000000000
FFFFFFFFC000
FFFFFFFFE000
FFFFFFFFF000
FFFFFFFFF800
FFFFFFFFF800
FFFFFFFFFC00
FFFFFFFFFE00
FFFFFFFFFE00
FFFFFFFFFF00
FFFFFFFFFF80
FFFFFFFFFF80
FFFFFFFFFF80
FFFFFFFFFF80
FFFFFFFFFF80
FFF8003FFF80
FFF8001FFF80
FFF8000FFF80
FFF800000000
FFF800000000
FFF800000000
FFF800000000
FFF800000000
FFF800000000
FFF800000000
FFF800000000
FFF800000000
FFF800000000
FFF800000000
FFF800000000
FFF800000000
FFF800000000
FFF800000000
FFF800000000
FFF800000000
FFF800000000
FFF800000000
FFF800000000
FFF800000000
FFF800000000
FFF800000000
FFF800000000
FFF800000000
FFF800000000
FFF800000000
FFF800000000
FFF8000FFF80
FFF8001FFF80
FFF8003FFF80
FFFFFFFFFF80
FFFFFFFFFF80
FFFFFFFFFF80
FFFFFFFFFF80
FFFFFFFFFF80
FFFFFFFFFF00
FFFFFFFFFE00
FFFFFFFFFE00
FFFFFFFFFC00
FFFFFFFFF800
FFFFFFFFF000
FFFFFFFFF000
FFFFFFFFE000
FFFFFFFFC000
ENDCHAR
STARTCHAR 010D
ENCODING 269
SWIDTH 540 0
DWIDTH 48 0
BBX 41 77 4 0
BITMAP
01E0003C0000
01F0007C0000
01F800FC0000
01FC01FC0000
01FE03FC0000
01FF07FC0000
00FFFFF80000
007FFFF00000
003FFFE00000
001FFFC00000
000FFF800000
000000000000
000000000000
000000000000
000000000000
FFFFFFFFC000
FFFFFFFFE000
FFFFFFFFF000
FFFFFFFFF800
FFFFFFFFF800
FFFFFFFFFC00
FFFFFFFFFE00
FFFFFFFFFE00
FFFFFFFFFF00
FFFFFFFFFF80
FFFFFFFFFF80
FFFFFFFFFF80
FFFFFFFFFF80
FFFFFFFFFF80
FFF8003FFF80
FFF8001FFF80
FFF8000FFF80
FFF800000000
FFF800000000
FFF800000000
FFF800000000
FFF800000000
FFF800000000
FFF800000000
FFF800000000
FFF800000000
FFF800000000
FFF800000000
FFF800000000
FFF800000000
FFF800000000
FFF800000000
FFF800000000
FFF800000000
FFF800000000
FFF800000000
FFF800000000
FFF800000000
FFF800000000
FFF800000000
FFF800000000
FFF800000000
FFF800000000
FFF800000000
FFF800000000
FFF8000FFF80
FFF8001FFF80
FFF8003FFF80
FFFFFFFFFF80
FFFFFFFFFF80
FFFFFFFFFF80
FFFFFFFFFF80
FFFFFFFFFF80
FFFFFFFFFF00
FFFFFFFFFE00
FFFFFFFFFE00
FFFFFFFFFC00
FFFFFFFFF800
FFFFFFFFF000
FFFFFFFFF000
FFFFFFFFE000
FFFFFFFFC000
ENDCHAR
STARTCHAR 010E
ENCODING 270
SWIDTH 573 0
DWIDTH 51 0
BBX 44 77 4 0
BITMAP
003C0003C000
003E0007C000
003F000FC000
003F801FC000
003FC03FC000
003FE0FF8000
001FFFFF0000
000FFFFE0000
0007FFFC0000
0001FFF80000
0000FFF00000
000000000000
000000000000
000000000000
000000000000
FFFFFFFFF800
FFFFFFFFFC00
FFFFFFFFFE00
FFFFFFFFFF00
FFFFFFFFFF00
FFFFFFFFFF80
FFFFFFFFFFC0
FFFFFFFFFFC0
FFFFFFFFFFE0
FFFFFFFFFFF0
FFFFFFFFFFF0
FFFFFFFFFFF0
FFFFFFFFFFF0
FFFFFFFFFFF0
FFF80007FFF0
FFF80007FFF0
FFF80003FFF0
FFF80003FFF0
FFF80003FFF0
FFF80003FFF0
FFF80003FFF0
FFF80003FFF0
FFF80003FFF0
FFF80003FFF0
FFF80003FFF0
FFF80003FFF0
FFF80003FFF0
FFF80003FFF0
FFF80003FFF0
FFF80003FFF0
FFF80003FFF0
FFF80003FFF0
FFF80003FFF0
FFF80003FFF0
FFF80003FFF0
FFF80003FFF0
FFF80003FFF0
FFF80003FFF0
FFF80003FFF0
FFF80003FFF0
FFF80003FFF0
FFF80003FFF0
FFF80003FFF0
FFF80003FFF0
FFF80003FFF0
FFF80003FFF0
FFF80007FFF0
FFF8000FFFF0
FFFFFFFFFFF0
FFFFFFFFFFF0
FFFFFFFFFFF0
FFFFFFFFFFF0
FFFFFFFFFFF0
FFFFFFFFFFE0
FFFFFFFFFFC0
FFFFFFFFFFC0
FFFFFFFFFF80
FFFFFFFFFF00
FFFFFFFFFE00
FFFFFFFFFE00
FFFFFFFFFC00
FFFFFFFFF800
ENDCHAR
STARTCHAR 010F
ENCODING 271
SWIDTH 753 0
DWIDTH 67 0
BBX 63 62 4 0
BITMAP
FFFFFFFFF80007F8
FFFFFFFFFC0007FC
FFFFFFFFFE0007FC
FFFFFFFFFF0007FE
FFFFFFFFFF0007FE
FFFFFFFFFF8007FE
FFFFFFFFFFC007FE
FFFFFFFFFFC007FE
FFFFFFFFFFE007FE
FFFFFFFFFFF007FE
FFFFFFFFFFF007FE
FFFFFFFFFFF007FC
FFFFFFFFFFF00FF8
FFFFFFFFFFF01FF8
FFF80007FFF01FF0
FFF80007FFF03FE0
FFF80003FFF07FE0
FFF80003FFF0FFC0
FFF80003FFF0FF80
FFF80003FFF1FF80
FFF80003FFF1FF00
FFF80003FFF00000
FFF80003FFF00000
FFF80003FFF00000
FFF80003FFF00000
FFF80003FFF00000
FFF80003FFF00000
FFF80003FFF00000
FFF80003FFF00000
FFF80003FFF00000
FFF80003FFF00000
FFF80003FFF00000
FFF80003FFF00000
FFF80003FFF00000
FFF80003FFF00000
FFF80003FFF00000
FFF80003FFF00000
FFF80003FFF00000
FFF80003FFF00000
FFF80003FFF00000
FFF80003FFF00000
FFF80003FFF00000
FFF80003FFF00000
FFF80003FFF00000
FFF80003FFF00000
FFF80003FFF00000
FFF80007FFF00000
FFF8000FFFF00000
FFFFFFFFFFF00000
FFFFFFFFFFF00000
FFFFFFFFFFF00000
FFFFFFFFFFF00000
FFFFFFFFFFF00000
FFFFFFFFFFE00000
FFFFFFFFFFC00000
FFFFFFFFFFC00000
FFFFFFFFFF800000
FFFFFFFFFF000000
FFFFFFFFFE000000
FFFFFFFFFE000000
FFFFFFFFFC000000
FFFFFFFFF8000000
ENDCHAR
STARTCHAR 0110
ENCODING 272
SWIDTH 573 0
DWIDTH 51 0
BBX 50 62 -2 0
BITMAP
03FFFFFFFFE000
03FFFFFFFFF000
03FFFFFFFFF800
03FFFFFFFFFC00
03FFFFFFFFFC00
03FFFFFFFFFE00
03FFFFFFFFFF00
03FFFFFFFFFF00
03FFFFFFFFFF80
03FFFFFFFFFFC0
03FFFFFFFFFFC0
03FFFFFFFFFFC0
03FFFFFFFFFFC0
03FFFFFFFFFFC0
03FFE0001FFFC0
03FFE0001FFFC0
03FFE0000FFFC0
03FFE0000FFFC0
03FFE0000FFFC0
03FFE0000FFFC0
03FFE0000FFFC0
03FFE0000FFFC0
03FFE0000FFFC0
03FFE0000FFFC0
03FFE0000FFFC0
03FFE0000FFFC0
03FFE0000FFFC0
FFFFFFE00FFFC0
FFFFFFE00FFFC0
FFFFFFE00FFFC0
FFFFFFE00FFFC0
FFFFFFE00FFFC0
FFFFFFE00FFFC0
FFFFFFE00FFFC0
FFFFFFE00FFFC0
FFFFFFE00FFFC0
03FFE0000FFFC0
03FFE0000FFFC0
03FFE0000FFFC0
03FFE0000FFFC0
03FFE0000FFFC0
03FFE0000FFFC0
03FFE0000FFFC0
03FFE0000FFFC0
03FFE0000FFFC0
03FFE0000FFFC0
03FFE0001FFFC0
03FFE0003FFFC0
03FFFFFFFFFFC0
03FFFFFFFFFFC0
03FFFFFFFFFFC0
03FFFFFFFFFFC0
03FFFFFFFFFFC0
03FFFFFFFFFF80
03FFFFFFFFFF00
03FFFFFFFFFF00
03FFFFFFFFFE00
03FFFFFFFFFC00
03FFFFFFFFF800
03FFFFFFFFF800
03FFFFFFFFF000
03FFFFFFFFE000
ENDCHAR
STARTCHAR 0111
ENCODING 273
SWIDTH 573 0
DWIDTH 51 0
BBX 50 62 -2 0
BITMAP
03FFFFFFFFE000
03FFFFFFFFF000
03FFFFFFFFF800
03FFFFFFFFFC00
03FFFFFFFFFC00
03FFFFFFFFFE00
03FFFFFFFFFF00
03FFFFFFFFFF00
03FFFFFFFFFF80
03FFFFFFFFFFC0
03FFFFFFFFFFC0
03FFFFFFFFFFC0
03FFFFFFFFFFC0
03FFFFFFFFFFC0
03FFE0001FFFC0
03FFE0001FFFC0
03FFE0000FFFC0
03FFE0000FFFC0
03FFE0000FFFC0
03FFE0000FFFC0
03FFE0000FFFC0
03FFE0000FFFC0
03FFE0000FFFC0
03FFE0000FFFC0
03FFE0000FFFC0
03FFE0000FFFC0
03FFE0000FFFC0
FFFFFFE00FFFC0
FFFFFFE00FFFC0
FFFFFFE00FFFC0
FFFFFFE00FFFC0
FFFFFFE00FFFC0
FFFFFFE00FFFC0
FFFFFFE00FFFC0
FFFFFFE00FFFC0
FFFFFFE00FFFC0
03FFE0000FFFC0
03FFE0000FFFC0
03FFE0000FFFC0
03FFE0000FFFC0
03FFE0000FFFC0
03FFE0000FFFC0
03FFE0000FFFC0
03FFE0000FFFC0
03FFE0000FFFC0
03FFE0000FFFC0
03FFE0001FFFC0
03FFE0003FFFC0
03FFFFFFFFFFC0
03FFFFFFFFFFC0
03FFFFFFFFFFC0
03FFFFFFFFFFC0
03FFFFFFFFFFC0
03FFFFFFFFFF80
03FFFFFFFFFF00
03FFFFFFFFFF00
03FFFFFFFFFE00
03FFFFFFFFFC00
03FFFFFFFFF800
03FFFFFFFFF800
03FFFFFFFFF000
03FFFFFFFFE000
ENDCHAR
STARTCHAR 0112
ENCODING 274
SWIDTH 540 0
DWIDTH 48 0
BBX 41 74 4 0
BITMAP
FFFFFFFFE000
FFFFFFFFE000
FFFFFFFFE000
FFFFFFFFE000
FFFFFFFFE000
FFFFFFFFE000
FFFFFFFFE000
FFFFFFFFE000
000000000000
000000000000
000000000000
000000000000
FFFFFFFFC000
FFFFFFFFE000
FFFFFFFFF000
FFFFFFFFF000
FFFFFFFFF800
FFFFFFFFFC00
FFFFFFFFFC00
FFFFFFFFFE00
FFFFFFFFFF00
FFFFFFFFFF80
FFFFFFFFFF80
FFFFFFFFFF80
FFFFFFFFFF80
FFFFFFFFFF80
FFF8000FFF80
FFF80007FF80
FFF80003FF80
FFF800000000
FFF800000000
FFF800000000
FFF800000000
FFF800000000
FFF800000000
FFF800000000
FFF800000000
FFF800000000
FFFFFFFC0000
FFFFFFFC0000
FFFFFFFC0000
FFFFFFFC0000
FFFFFFFC0000
FFFFFFFC0000
FFFFFFFC0000
FFFFFFFC0000
FFFFFFFC0000
FFFFFFFC0000
FFF800000000
FFF800000000
FFF800000000
FFF800000000
FFF800000000
FFF800000000
FFF800000000
FFF800000000
FFF800000000
FFF80003FF80
FFF80007FF80
FFF8000FFF80
FFFFFFFFFF80
FFFFFFFFFF80
FFFFFFFFFF80
FFFFFFFFFF80
FFFFFFFFFF00
FFFFFFFFFF00
FFFFFFFFFE00
FFFFFFFFFC00
FFFFFFFFFC00
FFFFFFFFF800
FFFFFFFFF000
FFFFFFFFE000
FFFFFFFFE000
FFFFFFFFC000
ENDCHAR
STARTCHAR 0113
ENCODING 275
SWIDTH 540 0
DWIDTH 48 0
BBX 41 74 4 0
BITMAP
FFFFFFFFE000
FFFFFFFFE000
FFFFFFFFE000
FFFFFFFFE000
FFFFFFFFE000
FFFFFFFFE000
FFFFFFFFE000
FFFFFFFFE000
000000000000
000000000000
000000000000
000000000000
FFFFFFFFC000
FFFFFFFFE000
FFFFFFFFF000
FFFFFFFFF000
FFFFFFFFF800
FFFFFFFFFC00
FFFFFFFFFC00
FFFFFFFFFE00
FFFFFFFFFF00
FFFFFFFFFF80
FFFFFFFFFF80
FFFFFFFFFF80
FFFFFFFFFF80
FFFFFFFFFF80
FFF8000FFF80
FFF80007FF80
FFF80003FF80
FFF800000000
FFF800000000
FFF800000000
FFF800000000
FFF800000000
FFF800000000
FFF800000000
FFF800000000
FFF800000000
FFFFFFFC0000
FFFFFFFC0000
FFFFFFFC0000
FFFFFFFC0000
FFFFFFFC0000
FFFFFFFC0000
FFFFFFFC0000
FFFFFFFC0000
FFFFFFFC0000
FFFFFFFC0000
FFF800000000
FFF800000000
FFF800000000
FFF800000000
FFF800000000
FFF800000000
FFF800000000
FFF800000000
FFF800000000
FFF80003FF80
FFF80007FF80
FFF8000FFF80
FFFFFFFFFF80
FFFFFFFFFF80
FFFFFFFFFF80
FFFFFFFFFF80
FFFFFFFFFF00
FFFFFFFFFF00
FFFFFFFFFE00
FFFFFFFFFC00
FFFFFFFFFC00
FFFFFFFFF800
FFFFFFFFF000
FFFFFFFFE000
FFFFFFFFE000
FFFFFFFFC000
ENDCHAR
STARTCHAR 0116
ENCODING 278
SWIDTH 540 0
DWIDTH 48 0
BBX 41 76 4 0
BITMAP
0001FE000000
0003FF000000
0003FF000000
0003FF000000
0003FF000000
0003FF000000
0003FF000000
0003FF000000
0003FF000000
0001FE000000
000000000000
000000000000
000000000000
000000000000
FFFFFFFFC000
FFFFFFFFE000
FFFFFFFFF000
FFFFFFFFF000
FFFFFFFFF800
FFFFFFFFFC00
FFFFFFFFFC00
FFFFFFFFFE00
FFFFFFFFFF00
FFFFFFFFFF80
FFFFFFFFFF80
FFFFFFFFFF80
FFFFFFFFFF80
FFFFFFFFFF80
FFF8000FFF80
FFF80007FF80
FFF80003FF80
FFF800000000
FFF800000000
FFF800000000
FFF800000000
FFF800000000
FFF800000000
FFF800000000
FFF800000000
FFF800000000
FFFFFFFC0000
FFFFFFFC0000
FFFFFFFC0000
FFFFFFFC0000
FFFFFFFC0000
FFFFFFFC0000
FFFFFFFC0000
FFFFFFFC0000
FFFFFFFC0000
FFFFFFFC0000
FFF800000000
FFF800000000
FFF800000000
FFF800000000
FFF800000000
FFF800000000
FFF800000000
FFF800000000
FFF800000000
FFF80003FF80
FFF80007FF80
FFF8000FFF80
FFFFFFFFFF80
FFFFFFFFFF80
FFFFFFFFFF80
FFFFFFFFFF80
FFFFFFFFFF00
FFFFFFFFFF00
FFFFFFFFFE00
FFFFFFFFFC00
FFFFFFFFFC00
FFFFFFFFF800
FFFFFFFFF000
FFFFFFFFE000
FFFFFFFFE000
FFFFFFFFC000
ENDCHAR
STARTCHAR 0117
ENCODING 279
SWIDTH 540 0
DWIDTH 48 0
BBX 41 76 4 0
BITMAP
0001FE000000
0003FF000000
0003FF000000
0003FF000000
0003FF000000
0003FF000000
0003FF000000
0003FF000000
0003FF000000
0001FE000000
000000000000
000000000000
000000000000
000000000000
FFFFFFFFC000
FFFFFFFFE000
FFFFFFFFF000
FFFFFFFFF000
FFFFFFFFF800
FFFFFFFFFC00
FFFFFFFFFC00
FFFFFFFFFE00
FFFFFFFFFF00
FFFFFFFFFF80
FFFFFFFFFF80
FFFFFFFFFF80
FFFFFFFFFF80
FFFFFFFFFF80
FFF8000FFF80
FFF80007FF80
FFF80003FF80
FFF800000000
FFF800000000
FFF800000000
FFF800000000
FFF800000000
FFF800000000
FFF800000000
FFF800000000
FFF800000000
FFFFFFFC0000
FFFFFFFC0000
FFFFFFFC0000
FFFFFFFC0000
FFFFFFFC0000
FFFFFFFC0000
FFFFFFFC0000
FFFFFFFC0000
FFFFFFFC0000
FFFFFFFC0000
FFF800000000
FFF800000000
FFF800000000
FFF800000000
FFF800000000
FFF800000000
FFF800000000
FFF800000000
FFF800000000
FFF80003FF80
FFF80007FF80
FFF8000FFF80
FFFFFFFFFF80
FFFFFFFFFF80
FFFFFFFFFF80
FFFFFFFFFF80
FFFFFFFFFF00
FFFFFFFFFF00
FFFFFFFFFE00
FFFFFFFFFC00
FFFFFFFFFC00
FFFFFFFFF800
FFFFFFFFF000
FFFFFFFFE000
FFFFFFFFE000
FFFFFFFFC000
ENDCHAR
STARTCHAR 0118
ENCODING 280
SWIDTH 540 0
DWIDTH 48 0
BBX 41 76 4 -14
BITMAP
FFFFFFFFC000
FFFFFFFFE000
FFFFFFFFF000
FFFFFFFFF000
FFFFFFFFF800
FFFFFFFFFC00
FFFFFFFFFC00
FFFFFFFFFE00
FFFFFFFFFF00
FFFFFFFFFF80
FFFFFFFFFF80
FFFFFFFFFF80
FFFFFFFFFF80
FFFFFFFFFF80
FFF8000FFF80
FFF80007FF80
FFF80003FF80
FFF800000000
FFF800000000
FFF800000000
FFF800000000
FFF800000000
FFF800000000
FFF800000000
FFF800000000
FFF800000000
FFFFFFFC0000
FFFFFFFC0000
FFFFFFFC0000
FFFFFFFC0000
FFFFFFFC0000
FFFFFFFC0000
FFFFFFFC0000
FFFFFFFC0000
FFFFFFFC0000
FFFFFFFC0000
FFF800000000
FFF800000000
FFF800000000
FFF800000000
FFF800000000
FFF800000000
FFF800000000
FFF800000000
FFF800000000
FFF80003FF80
FFF80007FF80
FFF8000FFF80
FFFFFFFFFF80
FFFFFFFFFF80
FFFFFFFFFF80
FFFFFFFFFF80
FFFFFFFFFF00
FFFFFFFFFF00
FFFFFFFFFE00
FFFFFFFFFC00
FFFFFFFFFC00
FFFFFFFFF800
FFFFFFFFF000
FFFFFFFFE000
FFFFFFFFE000
FFFFFFFFC000
0001F8000000
0001F8000000
0003F0000000
0003F0000000
0007E0000000
000FC0000000
000FC3E00000
000FC3E00000
000FFFE00000
000FFFE00000
000FFFC00000
000FFFC00000
000FFF800000
000FFF800000
ENDCHAR
STARTCHAR 0119
ENCODING 281
SWIDTH 540 0
DWIDTH 48 0
BBX 41 76 4 -14
BITMAP
FFFFFFFFC000
FFFFFFFFE000
FFFFFFFFF000
FFFFFFFFF000
FFFFFFFFF800
FFFFFFFFFC00
FFFFFFFFFC00
FFFFFFFFFE00
FFFFFFFFFF00
FFFFFFFFFF80
FFFFFFFFFF80
FFFFFFFFFF80
FFFFFFFFFF80
FFFFFFFFFF80
FFF8000FFF80
FFF80007FF80
FFF80003FF80
FFF800000000
FFF800000000
FFF800000000
FFF800000000
FFF800000000
FFF800000000
FFF800000000
FFF800000000
FFF800000000
FFFFFFFC0000
FFFFFFFC0000
FFFFFFFC0000
FFFFFFFC0000
FFFFFFFC0000
FFFFFFFC0000
FFFFFFFC0000
FFFFFFFC0000
FFFFFFFC0000
FFFFFFFC0000
FFF800000000
FFF800000000
FFF800000000
FFF800000000
FFF800000000
FFF800000000
FFF800000000
FFF800000000
FFF800000000
FFF80003FF80
FFF80007FF80
FFF8000FFF80
FFFFFFFFFF80
FFFFFFFFFF80
FFFFFFFFFF80
FFFFFFFFFF80
FFFFFFFFFF00
FFFFFFFFFF00
FFFFFFFFFE00
FFFFFFFFFC00
FFFFFFFFFC00
FFFFFFFFF800
FFFFFFFFF000
FFFFFFFFE000
FFFFFFFFE000
FFFFFFFFC000
0001F8000000
0001F8000000
0003F0000000
0003F0000000
0007E0000000
000FC0000000
000FC3E00000
000FC3E00000
000FFFE00000
000FFFE00000
000FFFC00000
000FFFC00000
000FFF800000
000FFF800000
ENDCHAR
STARTCHAR 011C
ENCODING 284
SWIDTH 551 0
DWIDTH 49 0
BBX 42 77 4 0
BITMAP
007FFFFE0000
00FFFFFF0000
01FFFFFF8000
03FFFFFFE000
0FFFFFFFF000
1FFFFFFFF800
3FFFFFFFFC00
3FF8001FFC00
3FF0000FFC00
3FE00007FC00
3F800001FC00
000000000000
000000000000
000000000000
000000000000
FFFFFFFFE000
FFFFFFFFF000
FFFFFFFFF800
FFFFFFFFF800
FFFFFFFFFC00
FFFFFFFFFE00
FFFFFFFFFE00
FFFFFFFFFF00
FFFFFFFFFF80
FFFFFFFFFFC0
FFFFFFFFFFC0
FFFFFFFFFFC0
FFFFFFFFFFC0
FFFFFFFFFFC0
FFF80007FFC0
FFF80007FFC0
FFF80003FFC0
FFF800000000
FFF800000000
FFF800000000
FFF800000000
FFF800000000
FFF800000000
FFF800000000
FFF800000000
FFF800000000
FFF80FFFFFC0
FFF80FFFFFC0
FFF80FFFFFC0
FFF80FFFFFC0
FFF80FFFFFC0
FFF80FFFFFC0
FFF80FFFFFC0
FFF80FFFFFC0
FFF80FFFFFC0
FFF80FFFFFC0
FFF80FFFFFC0
FFF80FFFFFC0
FFF80FFFFFC0
FFF80FFFFFC0
FFF8000FFFC0
FFF8000FFFC0
FFF8000FFFC0
FFF8000FFFC0
FFF8000FFFC0
FFF8000FFFC0
FFF8000FFFC0
FFF8000FFFC0
FFFFFFFFFFC0
FFFFFFFFFFC0
FFFFFFFFFFC0
FFFFFFFFFFC0
FFFFFFFFFFC0
FFFFFFFFFFC0
FFFFFFFFFFC0
FFFFFFFFFFC0
FFFFFFFFFFC0
FFFFFFFFFFC0
FFFFFFFFFFC0
FFFFFFFF7FC0
FFFFFFFF3FC0
FFFFFFFE1FC0
ENDCHAR
STARTCHAR 011D
ENCODING 285
SWIDTH 551 0
DWIDTH 49 0
BBX 42 77 4 0
BITMAP
007FFFFE0000
00FFFFFF0000
01FFFFFF8000
03FFFFFFE000
0FFFFFFFF000
1FFFFFFFF800
3FFFFFFFFC00
3FF8001FFC00
3FF0000FFC00
3FE00007FC00
3F800001FC00
000000000000
000000000000
000000000000
000000000000
FFFFFFFFE000
FFFFFFFFF000
FFFFFFFFF800
FFFFFFFFF800
FFFFFFFFFC00
FFFFFFFFFE00
FFFFFFFFFE00
FFFFFFFFFF00
FFFFFFFFFF80
FFFFFFFFFFC0
FFFFFFFFFFC0
FFFFFFFFFFC0
FFFFFFFFFFC0
FFFFFFFFFFC0
FFF80007FFC0
FFF80007FFC0
FFF80003FFC0
FFF800000000
FFF800000000
FFF800000000
FFF800000000
FFF800000000
FFF800000000
FFF800000000
FFF800000000
FFF800000000
FFF80FFFFFC0
FFF80FFFFFC0
FFF80FFFFFC0
FFF80FFFFFC0
FFF80FFFFFC0
FFF80FFFFFC0
FFF80FFFFFC0
FFF80FFFFFC0
FFF80FFFFFC0
FFF80FFFFFC0
FFF80FFFFFC0
FFF80FFFFFC0
FFF80FFFFFC0
FFF80FFFFFC0
FFF8000FFFC0
FFF8000FFFC0
FFF8000FFFC0
FFF8000FFFC0
FFF8000FFFC0
FFF8000FFFC0
FFF8000FFFC0
FFF8000FFFC0
FFFFFFFFFFC0
FFFFFFFFFFC0
FFFFFFFFFFC0
FFFFFFFFFFC0
FFFFFFFFFFC0
FFFFFFFFFFC0
FFFFFFFFFFC0
FFFFFFFFFFC0
FFFFFFFFFFC0
FFFFFFFFFFC0
FFFFFFFFFFC0
FFFFFFFF7FC0
FFFFFFFF3FC0
FFFFFFFE1FC0
ENDCHAR
STARTCHAR 011E
ENCODING 286
SWIDTH 551 0
DWIDTH 49 0
BBX 42 77 4 0
BITMAP
3F800000FC00
3FC00003FC00
3FE00007FC00
3FF0000FFC00
3FF8001FFC00
1FFFFFFFFC00
0FFFFFFFF000
07FFFFFFE000
03FFFFFFC000
01FFFFFF8000
00FFFFFF0000
000000000000
000000000000
000000000000
000000000000
FFFFFFFFE000
FFFFFFFFF000
FFFFFFFFF800
FFFFFFFFF800
FFFFFFFFFC00
FFFFFFFFFE00
FFFFFFFFFE00
FFFFFFFFFF00
FFFFFFFFFF80
FFFFFFFFFFC0
FFFFFFFFFFC0
FFFFFFFFFFC0
FFFFFFFFFFC0
FFFFFFFFFFC0
FFF80007FFC0
FFF80007FFC0
FFF80003FFC0
FFF800000000
FFF800000000
FFF800000000
FFF800000000
FFF800000000
FFF800000000
FFF800000000
FFF800000000
FFF800000000
FFF80FFFFFC0
FFF80FFFFFC0
FFF80FFFFFC0
FFF80FFFFFC0
FFF80FFFFFC0
FFF80FFFFFC0
FFF80FFFFFC0
FFF80FFFFFC0
FFF80FFFFFC0
FFF80FFFFFC0
FFF80FFFFFC0
FFF80FFFFFC0
FFF80FFFFFC0
FFF80FFFFFC0
FFF8000FFFC0
FFF8000FFFC0
FFF8000FFFC0
FFF8000FFFC0
FFF8000FFFC0
FFF8000FFFC0
FFF8000FFFC0
FFF8000FFFC0
FFFFFFFFFFC0
FFFFFFFFFFC0
FFFFFFFFFFC0
FFFFFFFFFFC0
FFFFFFFFFFC0
FFFFFFFFFFC0
FFFFFFFFFFC0
FFFFFFFFFFC0
FFFFFFFFFFC0
FFFFFFFFFFC0
FFFFFFFFFFC0
FFFFFFFF7FC0
FFFFFFFF3FC0
FFFFFFFE1FC0
ENDCHAR
STARTCHAR 011F
ENCODING 287
SWIDTH 551 0
DWIDTH 49 0
BBX 42 77 4 0
BITMAP
3F800000FC00
3FC00003FC00
3FE00007FC00
3FF0000FFC00
3FF8001FFC00
1FFFFFFFFC00
0FFFFFFFF000
07FFFFFFE000
03FFFFFFC000
01FFFFFF8000
00FFFFFF0000
000000000000
000000000000
000000000000
000000000000
FFFFFFFFE000
FFFFFFFFF000
FFFFFFFFF800
FFFFFFFFF800
FFFFFFFFFC00
FFFFFFFFFE00
FFFFFFFFFE00
FFFFFFFFFF00
FFFFFFFFFF80
FFFFFFFFFFC0
FFFFFFFFFFC0
FFFFFFFFFFC0
FFFFFFFFFFC0
FFFFFFFFFFC0
FFF80007FFC0
FFF80007FFC0
FFF80003FFC0
FFF800000000
FFF800000000
FFF800000000
FFF800000000
FFF800000000
FFF800000000
FFF800000000
FFF800000000
FFF800000000
FFF80FFFFFC0
FFF80FFFFFC0
FFF80FFFFFC0
FFF80FFFFFC0
FFF80FFFFFC0
FFF80FFFFFC0
FFF80FFFFFC0
FFF80FFFFFC0
FFF80FFFFFC0
FFF80FFFFFC0
FFF80FFFFFC0
FFF80FFFFFC0
FFF80FFFFFC0
FFF80FFFFFC0
FFF8000FFFC0
FFF8000FFFC0
FFF8000FFFC0
FFF8000FFFC0
FFF8000FFFC0
FFF8000FFFC0
FFF8000FFFC0
FFF8000FFFC0
FFFFFFFFFFC0
FFFFFFFFFFC0
FFFFFFFFFFC0
FFFFFFFFFFC0
FFFFFFFFFFC0
FFFFFFFFFFC0
FFFFFFFFFFC0
FFFFFFFFFFC0
FFFFFFFFFFC0
FFFFFFFFFFC0
FFFFFFFFFFC0
FFFFFFFF7FC0
FFFFFFFF3FC0
FFFFFFFE1FC0
ENDCHAR
STARTCHAR 0120
ENCODING 288
SWIDTH 551 0
DWIDTH 49 0
BBX 42 76 4 0
BITMAP
00007F800000
0000FFC00000
0001FFC00000
0001FFC00000
0001FFC00000
0001FFC00000
0001FFC00000
0001FFC00000
0000FFC00000
00007F800000
000000000000
000000000000
000000000000
000000000000
FFFFFFFFE000
FFFFFFFFF000
FFFFFFFFF800
FFFFFFFFF800
FFFFFFFFFC00
FFFFFFFFFE00
FFFFFFFFFE00
FFFFFFFFFF00
FFFFFFFFFF80
FFFFFFFFFFC0
FFFFFFFFFFC0
FFFFFFFFFFC0
FFFFFFFFFFC0
FFFFFFFFFFC0
FFF80007FFC0
FFF80007FFC0
FFF80003FFC0
FFF800000000
FFF800000000
FFF800000000
FFF800000000
FFF800000000
FFF800000000
FFF800000000
FFF800000000
FFF800000000
FFF80FFFFFC0
FFF80FFFFFC0
FFF80FFFFFC0
FFF80FFFFFC0
FFF80FFFFFC0
FFF80FFFFFC0
FFF80FFFFFC0
FFF80FFFFFC0
FFF80FFFFFC0
FFF80FFFFFC0
FFF80FFFFFC0
FFF80FFFFFC0
FFF80FFFFFC0
FFF80FFFFFC0
FFF8000FFFC0
FFF8000FFFC0
FFF8000FFFC0
FFF8000FFFC0
FFF8000FFFC0
FFF8000FFFC0
FFF8000FFFC0
FFF8000FFFC0
FFFFFFFFFFC0
FFFFFFFFFFC0
FFFFFFFFFFC0
FFFFFFFFFFC0
FFFFFFFFFFC0
FFFFFFFFFFC0
FFFFFFFFFFC0
FFFFFFFFFFC0
FFFFFFFFFFC0
FFFFFFFFFFC0
FFFFFFFFFFC0
FFFFFFFF7FC0
FFFFFFFF3FC0
FFFFFFFE1FC0
ENDCHAR
STARTCHAR 0121
ENCODING 289
SWIDTH 551 0
DWIDTH 49 0
BBX 42 76 4 0
BITMAP
00007F800000
0000FFC00000
0001FFC00000
0001FFC00000
0001FFC00000
0001FFC00000
0001FFC00000
0001FFC00000
0000FFC00000
00007F800000
000000000000
000000000000
000000000000
000000000000
FFFFFFFFE000
FFFFFFFFF000
FFFFFFFFF800
FFFFFFFFF800
FFFFFFFFFC00
FFFFFFFFFE00
FFFFFFFFFE00
FFFFFFFFFF00
FFFFFFFFFF80
FFFFFFFFFFC0
FFFFFFFFFFC0
FFFFFFFFFFC0
FFFFFFFFFFC0
FFFFFFFFFFC0
FFF80007FFC0
FFF80007FFC0
FFF80003FFC0
FFF800000000
FFF800000000
FFF800000000
FFF800000000
FFF800000000
FFF800000000
FFF800000000
FFF800000000
FFF800000000
FFF80FFFFFC0
FFF80FFFFFC0
FFF80FFFFFC0
FFF80FFFFFC0
FFF80FFFFFC0
FFF80FFFFFC0
FFF80FFFFFC0
FFF80FFFFFC0
FFF80FFFFFC0
FFF80FFFFFC0
FFF80FFFFFC0
FFF80FFFFFC0
FFF80FFFFFC0
FFF80FFFFFC0
FFF8000FFFC0
FFF8000FFFC0
FFF8000FFFC0
FFF8000FFFC0
FFF8000FFFC0
FFF8000FFFC0
FFF8000FFFC0
FFF8000FFFC0
FFFFFFFFFFC0
FFFFFFFFFFC0
FFFFFFFFFFC0
FFFFFFFFFFC0
FFFFFFFFFFC0
FFFFFFFFFFC0
FFFFFFFFFFC0
FFFFFFFFFFC0
FFFFFFFFFFC0
FFFFFFFFFFC0
FFFFFFFFFFC0
FFFFFFFF7FC0
FFFFFFFF3FC0
FFFFFFFE1FC0
ENDCHAR
STARTCHAR 0122
ENCODING 290
SWIDTH 551 0
DWIDTH 49 0
BBX 42 77 4 -15
BITMAP
FFFFFFFFE000
FFFFFFFFF000
FFFFFFFFF800
FFFFFFFFF800
FFFFFFFFFC00
FFFFFFFFFE00
FFFFFFFFFE00
FFFFFFFFFF00
FFFFFFFFFF80
FFFFFFFFFFC0
FFFFFFFFFFC0
FFFFFFFFFFC0
FFFFFFFFFFC0
FFFFFFFFFFC0
FFF80007FFC0
FFF80007FFC0
FFF80003FFC0
FFF800000000
FFF800000000
FFF800000000
FFF800000000
FFF800000000
FFF800000000
FFF800000000
FFF800000000
FFF800000000
FFF80FFFFFC0
FFF80FFFFFC0
FFF80FFFFFC0
FFF80FFFFFC0
FFF80FFFFFC0
FFF80FFFFFC0
FFF80FFFFFC0
FFF80FFFFFC0
FFF80FFFFFC0
FFF80FFFFFC0
FFF80FFFFFC0
FFF80FFFFFC0
FFF80FFFFFC0
FFF80FFFFFC0
FFF8000FFFC0
FFF8000FFFC0
FFF8000FFFC0
FFF8000FFFC0
FFF8000FFFC0
FFF8000FFFC0
FFF8000FFFC0
FFF8000FFFC0
FFFFFFFFFFC0
FFFFFFFFFFC0
FFFFFFFFFFC0
FFFFFFFFFFC0
FFFFFFFFFFC0
FFFFFFFFFFC0
FFFFFFFFFFC0
FFFFFFFFFFC0
FFFFFFFFFFC0
FFFFFFFFFFC0
FFFFFFFFFFC0
FFFFFFFF7FC0
FFFFFFFF3FC0
FFFFFFFE1FC0
000000000000
000000000000
00003E000000
00003E000000
00003F000000
00003F000000
00003F000000
00003F000000
00003F000000
00007E000000
0000FC000000
0000FC000000
0001F8000000
0003F0000000
0003F0000000
ENDCHAR
STARTCHAR 0123
ENCODING 291
SWIDTH 551 0
DWIDTH 49 0
BBX 42 77 4 -15
BITMAP
FFFFFFFFE000
FFFFFFFFF000
FFFFFFFFF800
FFFFFFFFF800
FFFFFFFFFC00
FFFFFFFFFE00
FFFFFFFFFE00
FFFFFFFFFF00
FFFFFFFFFF80
FFFFFFFFFFC0
FFFFFFFFFFC0
FFFFFFFFFFC0
FFFFFFFFFFC0
FFFFFFFFFFC0
FFF80007FFC0
FFF80007FFC0
FFF80003FFC0
FFF800000000
FFF800000000
FFF800000000
FFF800000000
FFF800000000
FFF800000000
FFF800000000
FFF800000000
FFF800000000
FFF80FFFFFC0
FFF80FFFFFC0
FFF80FFFFFC0
FFF80FFFFFC0
FFF80FFFFFC0
FFF80FFFFFC0
FFF80FFFFFC0
FFF80FFFFFC0
FFF80FFFFFC0
FFF80FFFFFC0
FFF80FFFFFC0
FFF80FFFFFC0
FFF80FFFFFC0
FFF80FFFFFC0
FFF8000FFFC0
FFF8000FFFC0
FFF8000FFFC0
FFF8000FFFC0
FFF8000FFFC0
FFF8000FFFC0
FFF8000FFFC0
FFF8000FFFC0
FFFFFFFFFFC0
FFFFFFFFFFC0
FFFFFFFFFFC0
FFFFFFFFFFC0
FFFFFFFFFFC0
FFFFFFFFFFC0
FFFFFFFFFFC0
FFFFFFFFFFC0
FFFFFFFFFFC0
FFFFFFFFFFC0
FFFFFFFFFFC0
FFFFFFFF7FC0
FFFFFFFF3FC0
FFFFFFFE1FC0
000000000000
000000000000
00003E000000
00003E000000
00003F000000
00003F000000
00003F000000
00003F000000
00003F000000
00007E000000
0000FC000000
0000FC000000
0001F8000000
0003F0000000
0003F0000000
ENDCHAR
STARTCHAR 0124
ENCODING 292
SWIDTH 573 0
DWIDTH 51 0
BBX 44 77 4 0
BITMAP
001FFFFF8000
007FFFFFC000
00FFFFFFE000
01FFFFFFF000
03FFFFFFF800
07FFFFFFFC00
0FFFFFFFFF00
0FFE0007FF00
0FFC0003FF00
0FF00001FF00
0FE00000FF00
000000000000
000000000000
000000000000
000000000000
FFF80003FFF0
FFF80003FFF0
FFF80003FFF0
FFF80003FFF0
FFF80003FFF0
FFF80003FFF0
FFF80003FFF0
FFF80003FFF0
FFF80003FFF0
FFF80003FFF0
FFF80003FFF0
FFF80003FFF0
FFF80003FFF0
FFF80003FFF0
FFF80003FFF0
FFF80003FFF0
FFF80003FFF0
FFF80003FFF0
FFF80003FFF0
FFF80003FFF0
FFFC0003FFF0
FFFE0007FFF0
FFFE000FFFF0
FFFFFFFFFFF0
FFFFFFFFFFF0
FFFFFFFFFFF0
FFFFFFFFFFF0
FFFFFFFFFFF0
FFFFFFFFFFF0
FFFFFFFFFFF0
FFFFFFFFFFF0
FFFFFFFFFFF0
FFFFFFFFFFF0
FFFFFFFFFFF0
FFFFFFFFFFF0
FFFFFFFFFFF0
FFFFFFFFFFF0
FFFE0007FFF0
FFFC0007FFF0
FFFC0003FFF0
FFF80003FFF0
FFF80003FFF0
FFF80003FFF0
FFF80003FFF0
FFF80003FFF0
FFF80003FFF0
FFF80003FFF0
FFF80003FFF0
FFF80003FFF0
FFF80003FFF0
FFF80003FFF0
FFF80003FFF0
FFF80003FFF0
FFF80003FFF0
FFF80003FFF0
FFF80003FFF0
FFF80003FFF0
FFF80003FFF0
FFF80003FFF0
FFF80003FFF0
FFF80003FFF0
FFF80003FFF0
ENDCHAR
STARTCHAR 0125
ENCODING 293
SWIDTH 573 0
DWIDTH 51 0
BBX 44 77 4 0
BITMAP
001FFFFF8000
007FFFFFC000
00FFFFFFE000
01FFFFFFF000
03FFFFFFF800
07FFFFFFFC00
0FFFFFFFFF00
0FFE0007FF00
0FFC0003FF00
0FF00001FF00
0FE00000FF00
000000000000
000000000000
000000000000
000000000000
FFF80003FFF0
FFF80003FFF0
FFF80003FFF0
FFF80003FFF0
FFF80003FFF0
FFF80003FFF0
FFF80003FFF0
FFF80003FFF0
FFF80003FFF0
FFF80003FFF0
FFF80003FFF0
FFF80003FFF0
FFF80003FFF0
FFF80003FFF0
FFF80003FFF0
FFF80003FFF0
FFF80003FFF0
FFF80003FFF0
FFF80003FFF0
FFF80003FFF0
FFFC0003FFF0
FFFE0007FFF0
FFFE000FFFF0
FFFFFFFFFFF0
FFFFFFFFFFF0
FFFFFFFFFFF0
FFFFFFFFFFF0
FFFFFFFFFFF0
FFFFFFFFFFF0
FFFFFFFFFFF0
FFFFFFFFFFF0
FFFFFFFFFFF0
FFFFFFFFFFF0
FFFFFFFFFFF0
FFFFFFFFFFF0
FFFFFFFFFFF0
FFFFFFFFFFF0
FFFE0007FFF0
FFFC0007FFF0
FFFC0003FFF0
FFF80003FFF0
FFF80003FFF0
FFF80003FFF0
FFF80003FFF0
FFF80003FFF0
FFF80003FFF0
FFF80003FFF0
FFF80003FFF0
FFF80003FFF0
FFF80003FFF0
FFF80003FFF0
FFF80003FFF0
FFF80003FFF0
FFF80003FFF0
FFF80003FFF0
FFF80003FFF0
FFF80003FFF0
FFF80003FFF0
FFF80003FFF0
FFF80003FFF0
FFF80003FFF0
FFF80003FFF0
ENDCHAR
STARTCHAR 0126
ENCODING 294
SWIDTH 573 0
DWIDTH 51 0
BBX 59 62 -4 0
BITMAP
00FFF80003FFF000
00FFF80003FFF000
00FFF80003FFF000
00FFF80003FFF000
00FFF80003FFF000
00FFF80003FFF000
FFFFFFFFFFFFFFE0
FFFFFFFFFFFFFFE0
FFFFFFFFFFFFFFE0
FFFFFFFFFFFFFFE0
FFFFFFFFFFFFFFE0
FFFFFFFFFFFFFFE0
FFFFFFFFFFFFFFE0
FFFFFFFFFFFFFFE0
FFFFFFFFFFFFFFE0
00FFF80003FFF000
00FFF80003FFF000
00FFF80003FFF000
00FFF80003FFF000
00FFF80003FFF000
00FFFC0003FFF000
00FFFE0007FFF000
00FFFE000FFFF000
00FFFFFFFFFFF000
00FFFFFFFFFFF000
00FFFFFFFFFFF000
00FFFFFFFFFFF000
00FFFFFFFFFFF000
00FFFFFFFFFFF000
00FFFFFFFFFFF000
00FFFFFFFFFFF000
00FFFFFFFFFFF000
00FFFFFFFFFFF000
00FFFFFFFFFFF000
00FFFFFFFFFFF000
00FFFFFFFFFFF000
00FFFFFFFFFFF000
00FFFE0007FFF000
00FFFC0007FFF000
00FFFC0003FFF000
00FFF80003FFF000
00FFF80003FFF000
00FFF80003FFF000
00FFF80003FFF000
00FFF80003FFF000
00FFF80003FFF000
00FFF80003FFF000
00FFF80003FFF000
00FFF80003FFF000
00FFF80003FFF000
00FFF80003FFF000
00FFF80003FFF000
00FFF80003FFF000
00FFF80003FFF000
00FFF80003FFF000
00FFF80003FFF000
00FFF80003FFF000
00FFF80003FFF000
00FFF80003FFF000
00FFF80003FFF000
00FFF80003FFF000
00FFF80003FFF000
ENDCHAR
STARTCHAR 0127
ENCODING 295
SWIDTH 573 0
DWIDTH 51 0
BBX 59 62 -4 0
BITMAP
00FFF80003FFF000
00FFF80003FFF000
00FFF80003FFF000
00FFF80003FFF000
00FFF80003FFF000
00FFF80003FFF000
FFFFFFFFFFFFFFE0
FFFFFFFFFFFFFFE0
FFFFFFFFFFFFFFE0
FFFFFFFFFFFFFFE0
FFFFFFFFFFFFFFE0
FFFFFFFFFFFFFFE0
FFFFFFFFFFFFFFE0
FFFFFFFFFFFFFFE0
FFFFFFFFFFFFFFE0
00FFF80003FFF000
00FFF80003FFF000
00FFF80003FFF000
00FFF80003FFF000
00FFF80003FFF000
00FFFC0003FFF000
00FFFE0007FFF000
00FFFE000FFFF000
00FFFFFFFFFFF000
00FFFFFFFFFFF000
00FFFFFFFFFFF000
00FFFFFFFFFFF000
00FFFFFFFFFFF000
00FFFFFFFFFFF000
00FFFFFFFFFFF000
00FFFFFFFFFFF000
00FFFFFFFFFFF000
00FFFFFFFFFFF000
00FFFFFFFFFFF000
00FFFFFFFFFFF000
00FFFFFFFFFFF000
00FFFFFFFFFFF000
00FFFE0007FFF000
00FFFC0007FFF000
00FFFC0003FFF000
00FFF80003FFF000
00FFF80003FFF000
00FFF80003FFF000
00FFF80003FFF000
00FFF80003FFF000
00FFF80003FFF000
00FFF80003FFF000
00FFF80003FFF000
00FFF80003FFF000
00FFF80003FFF000
00FFF80003FFF000
00FFF80003FFF000
00FFF80003FFF000
00FFF80003FFF000
00FFF80003FFF000
00FFF80003FFF000
00FFF80003FFF000
00FFF80003FFF000
00FFF80003FFF000
00FFF80003FFF000
00FFF80003FFF000
00FFF80003FFF000
ENDCHAR
STARTCHAR 0128
ENCODING 296
SWIDTH 225 0
DWIDTH 20 0
BBX 36 78 -8 0
BITMAP
0018000000
007F000000
01FFE00000
07FFFC00F0
1FFFFF83F0
7FFFFFFFF0
FFFFFFFFF0
FFE3FFFFF0
FF807FFFF0
FF000FFFE0
FC0001FF80
F800003C00
0000000000
0000000000
0000000000
0000000000
000FFF8000
000FFF8000
000FFF8000
000FFF8000
000FFF8000
000FFF8000
000FFF8000
000FFF8000
000FFF8000
000FFF8000
000FFF8000
000FFF8000
000FFF8000
000FFF8000
000FFF8000
000FFF8000
000FFF8000
000FFF8000
000FFF8000
000FFF8000
000FFF8000
000FFF8000
000FFF8000
000FFF8000
000FFF8000
000FFF8000
000FFF8000
000FFF8000
000FFF8000
000FFF8000
000FFF8000
000FFF8000
000FFF8000
000FFF8000
000FFF8000
000FFF8000
000FFF8000
000FFF8000
000FFF8000
000FFF8000
000FFF8000
000FFF8000
000FFF8000
000FFF8000
000FFF8000
000FFF8000
000FFF8000
000FFF8000
000FFF8000
000FFF8000
000FFF8000
000FFF8000
000FFF8000
000FFF8000
000FFF8000
000FFF8000
000FFF8000
000FFF8000
000FFF8000
000FFF8000
000FFF8000
000FFF8000
ENDCHAR
STARTCHAR 0129
ENCODING 297
SWIDTH 225 0
DWIDTH 20 0
BBX 37 78 -8 0
BITMAP
001C000000
007F000000
01FFE00000
07FFFC0078
0FFFFF81F8
3FFFFFF7F8
FFFFFFFFF8
FFE3FFFFF8
FFC07FFFF8
FF000FFFE0
FC0001FF80
F800003C00
0000000000
0000000000
0000000000
0000000000
000FFF8000
000FFF8000
000FFF8000
000FFF8000
000FFF8000
000FFF8000
000FFF8000
000FFF8000
000FFF8000
000FFF8000
000FFF8000
000FFF8000
000FFF8000
000FFF8000
000FFF8000
000FFF8000
000FFF8000
000FFF8000
000FFF8000
000FFF8000
000FFF8000
000FFF8000
000FFF8000
000FFF8000
000FFF8000
000FFF8000
000FFF8000
000FFF8000
000FFF8000
000FFF8000
000FFF8000
000FFF8000
000FFF8000
000FFF8000
000FFF8000
000FFF8000
000FFF8000
000FFF8000
000FFF8000
000FFF8000
000FFF8000
000FFF8000
000FFF8000
000FFF8000
000FFF8000
000FFF8000
000FFF8000
000FFF8000
000FFF8000
000FFF8000
000FFF8000
000FFF8000
000FFF8000
000FFF8000
000FFF8000
000FFF8000
000FFF8000
000FFF8000
000FFF8000
000FFF8000
000FFF8000
000FFF8000
ENDCHAR
STARTCHAR 012A
ENCODING 298
SWIDTH 225 0
DWIDTH 20 0
BBX 35 74 -7 0
BITMAP
FFFFFFFFE0
FFFFFFFFE0
FFFFFFFFE0
FFFFFFFFE0
FFFFFFFFE0
FFFFFFFFE0
FFFFFFFFE0
FFFFFFFFE0
0000000000
0000000000
0000000000
0000000000
001FFF0000
001FFF0000
001FFF0000
001FFF0000
001FFF0000
001FFF0000
001FFF0000
001FFF0000
001FFF0000
001FFF0000
001FFF0000
001FFF0000
001FFF0000
001FFF0000
001FFF0000
001FFF0000
001FFF0000
001FFF0000
001FFF0000
001FFF0000
001FFF0000
001FFF0000
001FFF0000
001FFF0000
001FFF0000
001FFF0000
001FFF0000
001FFF0000
001FFF0000
001FFF0000
001FFF0000
001FFF0000
001FFF0000
001FFF0000
001FFF0000
001FFF0000
001FFF0000
001FFF0000
001FFF0000
001FFF0000
001FFF0000
001FFF0000
001FFF0000
001FFF0000
001FFF0000
001FFF0000
001FFF0000
001FFF0000
001FFF0000
001FFF0000
001FFF0000
001FFF0000
001FFF0000
001FFF0000
001FFF0000
001FFF0000
001FFF0000
001FFF0000
001FFF0000
001FFF0000
001FFF0000
001FFF0000
ENDCHAR
STARTCHAR 012B
ENCODING 299
SWIDTH 225 0
DWIDTH 20 0
BBX 35 74 -7 0
BITMAP
FFFFFFFFE0
FFFFFFFFE0
FFFFFFFFE0
FFFFFFFFE0
FFFFFFFFE0
FFFFFFFFE0
FFFFFFFFE0
FFFFFFFFE0
0000000000
0000000000
0000000000
0000000000
001FFF0000
001FFF0000
001FFF0000
001FFF0000
001FFF0000
001FFF0000
001FFF0000
001FFF0000
001FFF0000
001FFF0000
001FFF0000
001FFF0000
001FFF0000
001FFF0000
001FFF0000
001FFF0000
001FFF0000
001FFF0000
001FFF0000
001FFF0000
001FFF0000
001FFF0000
001FFF0000
001FFF0000
001FFF0000
001FFF0000
001FFF0000
001FFF0000
001FFF0000
001FFF0000
001FFF0000
001FFF0000
001FFF0000
001FFF0000
001FFF0000
001FFF0000
001FFF0000
001FFF0000
001FFF0000
001FFF0000
001FFF0000
001FFF0000
001FFF0000
001FFF0000
001FFF0000
001FFF0000
001FFF0000
001FFF0000
001FFF0000
001FFF0000
001FFF0000
001FFF0000
001FFF0000
001FFF0000
001FFF0000
001FFF0000
001FFF0000
001FFF0000
001FFF0000
001FFF0000
001FFF0000
001FFF0000
ENDCHAR
STARTCHAR 012E
ENCODING 302
SWIDTH 225 0
DWIDTH 20 0
BBX 15 76 3 -14
BITMAP
7FFC
7FFC
7FFC
7FFC
7FFC
7FFC
7FFC
7FFC
7FFC
7FFC
7FFC
7FFC
7FFC
7FFC
7FFC
7FFC
7FFC
7FFC
7FFC
7FFC
7FFC
7FFC
7FFC
7FFC
7FFC
7FFC
7FFC
7FFC
7FFC
7FFC
7FFC
7FFC
7FFC
7FFC
7FFC
7FFC
7FFC
7FFC
7FFC
7FFC
7FFC
7FFC
7FFC
7FFC
7FFC
7FFC
7FFC
7FFC
7FFC
7FFC
7FFC
7FFC
7FFC
7FFC
7FFC
7FFC
7FFC
7FFC
7FFC
7FFC
7FFC
7FFC
0FC0
1F80
3F00
3F00
7E00
7E00
FC3E
FC3E
FFFE
FFFE
FFFE
FFFC
FFFC
7FF8
ENDCHAR
STARTCHAR 012F
ENCODING 303
SWIDTH 225 0
DWIDTH 20 0
BBX 15 76 3 -14
BITMAP
7FFC
7FFC
7FFC
7FFC
7FFC
7FFC
7FFC
7FFC
7FFC
7FFC
7FFC
7FFC
7FFC
7FFC
7FFC
7FFC
7FFC
7FFC
7FFC
7FFC
7FFC
7FFC
7FFC
7FFC
7FFC
7FFC
7FFC
7FFC
7FFC
7FFC
7FFC
7FFC
7FFC
7FFC
7FFC
7FFC
7FFC
7FFC
7FFC
7FFC
7FFC
7FFC
7FFC
7FFC
7FFC
7FFC
7FFC
7FFC
7FFC
7FFC
7FFC
7FFC
7FFC
7FFC
7FFC
7FFC
7FFC
7FFC
7FFC
7FFC
7FFC
7FFC
0FC0
1F80
3F00
3F00
7E00
7E00
FC3E
FC3E
FFFE
FFFE
FFFE
FFFC
FFFC
7FF8
ENDCHAR
STARTCHAR 0134
ENCODING 308
SWIDTH 506 0
DWIDTH 45 0
BBX 38 77 4 0
BITMAP
0007FFFE00
000FFFFF00
001FFFFF80
003FFFFFC0
007FFFFFE0
00FFFFFFF0
01FFFFFFF8
03FFC01FFC
03FF000FFC
03FE0007FC
03FC0003FC
0000000000
0000000000
0000000000
0000000000
03FFFFFFFC
03FFFFFFFC
03FFFFFFFC
03FFFFFFFC
03FFFFFFFC
03FFFFFFFC
03FFFFFFFC
03FFFFFFFC
03FFFFFFFC
03FFFFFFFC
03FFFFFFFC
03FFFFFFFC
03FFFFFFFC
03FFFFFFFC
000000FFFC
000000FFFC
000000FFFC
000000FFFC
000000FFFC
000000FFFC
000000FFFC
000000FFFC
000000FFFC
000000FFFC
000000FFFC
000000FFFC
000000FFFC
000000FFFC
000000FFFC
000000FFFC
000000FFFC
000000FFFC
000000FFFC
000000FFFC
000000FFFC
000000FFFC
000000FFFC
000000FFFC
000000FFFC
000000FFFC
000000FFFC
000000FFFC
000000FFFC
000000FFFC
000000FFFC
FFFC00FFFC
FFFC00FFFC
FFFE00FFFC
FFFFFFFFFC
FFFFFFFFFC
FFFFFFFFFC
FFFFFFFFFC
FFFFFFFFFC
7FFFFFFFFC
7FFFFFFFFC
3FFFFFFFFC
1FFFFFFFFC
1FFFFFFFFC
0FFFFFFFFC
07FFFFFFFC
03FFFFFFFC
03FFFFFFFC
ENDCHAR
STARTCHAR 0135
ENCODING 309
SWIDTH 506 0
DWIDTH 45 0
BBX 38 77 4 0
BITMAP
0007FFFE00
000FFFFF00
001FFFFF80
003FFFFFC0
007FFFFFE0
00FFFFFFF0
01FFFFFFF8
03FFC01FFC
03FF000FFC
03FE0007FC
03FC0003FC
0000000000
0000000000
0000000000
0000000000
03FFFFFFFC
03FFFFFFFC
03FFFFFFFC
03FFFFFFFC
03FFFFFFFC
03FFFFFFFC
03FFFFFFFC
03FFFFFFFC
03FFFFFFFC
03FFFFFFFC
03FFFFFFFC
03FFFFFFFC
03FFFFFFFC
03FFFFFFFC
000000FFFC
000000FFFC
000000FFFC
000000FFFC
000000FFFC
000000FFFC
000000FFFC
000000FFFC
000000FFFC
000000FFFC
000000FFFC
000000FFFC
000000FFFC
000000FFFC
000000FFFC
000000FFFC
000000FFFC
000000FFFC
000000FFFC
000000FFFC
000000FFFC
000000FFFC
000000FFFC
000000FFFC
000000FFFC
000000FFFC
000000FFFC
000000FFFC
000000FFFC
000000FFFC
000000FFFC
FFFC00FFFC
FFFC00FFFC
FFFE00FFFC
FFFFFFFFFC
FFFFFFFFFC
FFFFFFFFFC
FFFFFFFFFC
FFFFFFFFFC
7FFFFFFFFC
7FFFFFFFFC
3FFFFFFFFC
1FFFFFFFFC
1FFFFFFFFC
0FFFFFFFFC
07FFFFFFFC
03FFFFFFFC
03FFFFFFFC
ENDCHAR
STARTCHAR 0136
ENCODING 310
SWIDTH 573 0
DWIDTH 51 0
BBX 44 77 4 -15
BITMAP
FFF80007FFF0
FFF80007FFF0
FFF8000FFFF0
FFF8001FFFF0
FFF8001FFFF0
FFF8003FFFF0
FFF8007FFFF0
FFF8007FFFE0
FFF800FFFFC0
FFF801FFFFC0
FFF801FFFF80
FFF803FFFF00
FFF807FFFE00
FFF807FFFE00
FFF80FFFFC00
FFF81FFFF800
FFF81FFFF000
FFF83FFFF000
FFF87FFFE000
FFF8FFFFC000
FFF8FFFFC000
FFF9FFFF8000
FFFBFFFF0000
FFFBFFFE0000
FFFFFFFE0000
FFFFFFFC0000
FFFFFFF80000
FFFFFFF00000
FFFFFFF00000
FFFFFFE00000
FFFFFFC00000
FFFFFFC00000
FFFFFFE00000
FFFFFFF00000
FFFFFFF00000
FFFFFFF80000
FFFFFFFC0000
FFFFFFFE0000
FFFBFFFE0000
FFF9FFFF0000
FFF9FFFF8000
FFF8FFFF8000
FFF87FFFC000
FFF87FFFE000
FFF83FFFF000
FFF81FFFF000
FFF80FFFF800
FFF80FFFFC00
FFF807FFFE00
FFF803FFFE00
FFF803FFFF00
FFF801FFFF80
FFF800FFFFC0
FFF800FFFFC0
FFF8007FFFE0
FFF8003FFFF0
FFF8001FFFF0
FFF8001FFFF0
FFF8000FFFF0
FFF80007FFF0
FFF80007FFF0
FFF80003FFF0
000000000000
000000000000
00001F000000
00001F800000
00001F800000
00001F800000
00001F800000
00001F800000
00001F800000
00003F000000
00003E000000
00007E000000
0000FC000000
0000F8000000
0001F8000000
ENDCHAR
ENDFONT
